<?xml version="1.0" encoding="utf-8"?>
<!-- Generator: Adobe Illustrator 26.5.1, SVG Export Plug-In . SVG Version: 6.00 Build 0)  -->
<svg version="1.1" id="Layer_1" xmlns="http://www.w3.org/2000/svg" xmlns:xlink="http://www.w3.org/1999/xlink" x="0px" y="0px"
	 viewBox="0 0 724.1033 382.4203" style="enable-background:new 0 0 724.1033 382.4203;" xml:space="preserve">
<path style="fill:#1F0800;stroke:#3A2722;stroke-width:5;stroke-miterlimit:10;" d="M87.6985,134.3077l39.7844-12.8689
	l28.3484-15.4768c0.207-0.193,43.1101-16.587,43.3967-16.7702c16.2084-10.3611,18.0203-16.0715,55.2135-22.9717
	c17.6101-3.2671,28.9737-0.5223,43.7106,3.8875c10.6328,3.1817,26.1817-0.7444,32.2079,1.0602
	c2.78,0.8325,13.837,2.9286,14.0132,4.1201l3.2409,5.7754c13.8034,7.0682,36.9716,4.9002,39.1097,5.6546
	c19.5548,15.0944,58.6642,22.6183,74.7682,16.5081l15.1876-14.7013c24.5873-5.9638,22.8634,0.4574,48.1696-12.6188
	c0.4756-1.2956,16.8768-3.6676,27.2684-1.4402c4.5556,3.4991,17.412,4.2694,25.1695,7.6579
	c25.3062,1.767,28.9772,24.2888,29.1478,24.7786l22.951,22.3295c0.0278,0.0506-2.4258,11.3516-6.0439,12.7548H99.0244
	C91.8793,140.5833,84.3831,137.3998,87.6985,134.3077z"/>
<path style="fill:#331B0A;stroke:#4A3122;stroke-width:5;stroke-miterlimit:10;" d="M633.252,154.9191l63.5739,92.1266
	c0.1016,0.147,0.0113,0.3651-0.1509,0.3651H89.9218h-60.327c-4.1265,0-6.4236-5.5398-3.8508-9.2865l56.8628-82.8062
	c0.9374-1.3651,2.3603-2.1582,3.8638-2.1536l546.631,1.6705C633.1601,154.8351,633.2154,154.8661,633.252,154.9191z"/>
<path style="fill:#1F0800;" d="M86.8901,157.2874l0.0038,85.4716c0.0066,0.4498-0.3069,0.8176-0.6943,0.8144H28.7052
	c-0.5749-0.0048-1.2823-2.0592-0.9245-2.5818l57.6066-83.8083C85.7898,156.5951,86.879,156.5361,86.8901,157.2874z"/>
<path style="fill:#1F0800;" d="M631.7332,158.5242l-2.387,85.4157h60.9928c0.9915,0,1.5422-1.3328,0.9215-2.231L631.7332,158.5242z"
	/>
<path style="fill:#331B0A;stroke:#4A3122;stroke-width:7;stroke-miterlimit:10;" d="M142.2694,241.6681l28.0103-18.9742
	c5.5962-3.7909,18.7708-5.1396,29.0211-2.971l37.6537,7.9662c3.2327,0.6839,5.8995,1.6692,7.7225,2.8533l16.3316,10.607
	c3.6961,2.4005,10.6921,3.8885,18.283,3.8885h88.9826c3.9889,0,7.8947,0.4126,11.2575,1.1894l69.6205,16.0801
	c3.9633,0.9154,8.6625,1.3211,13.3404,1.1517l62.5099-2.2632l33.6607-3.0482c7.3712-0.3013,13.7513-1.9926,16.7709-4.4458
	l23.0189-24.9681c7.0256-4.724,36.0429,0.5744,40.9182,5.2523c3.7846,3.6315,3.3422,9.854,3.7103,10.5468l21.2982,24.0433
	c0.2508,0.4719,14.687-2.3508,25.0789,2.015l25.9669,13.284c3.8516,3.8006-48.2277,5.5443-67.0475,5.5545
	c-4.3256,0.0023-67.9714,4.3491-110.8207,8.4923c-20.4225,1.9747-110.1141-0.6163-131.1712-0.7988l-133.6902,3.3538
	c-60.9794-0.3749-167.711-11.4579-214.1441-14.0525c-55.7316-3.1143-52.6208,1.945-51.4212,0.0753
	c1.4854-2.315,3.8673-10.9168,8.4785-12.5173l22.3297-7.7503c0.8264-0.9831,21.9255,3.4669,36.3655,0.8026L84.65,254.1261
	c3.2933-1.4132,8.0167-6.7117,13.0694-6.9807l29.1353-1.5513C133.421,245.244,139.1406,243.7875,142.2694,241.6681z"/>
</svg>
