<?xml version="1.0" encoding="utf-8"?>
<!-- Generator: Adobe Illustrator 26.5.1, SVG Export Plug-In . SVG Version: 6.00 Build 0)  -->
<svg version="1.1" id="Layer_1" xmlns="http://www.w3.org/2000/svg" xmlns:xlink="http://www.w3.org/1999/xlink" x="0px" y="0px"
	 viewBox="0 0 584 242" style="enable-background:new 0 0 584 242;" xml:space="preserve">
<path style="fill:#3A2315;stroke:#564033;stroke-width:7;stroke-miterlimit:10;" d="M33.7713,192.7858l3.4347-14.9402
	c1.8074-7.8619,6.465-14.5955,12.9139-18.6952c11.5162-7.3211,30.271-18.51,46.6899-39.4111
	c1.2558-1.5986,2.3541-3.3393,3.2774-5.185l15.5004-30.9895c4.5014-8.9995,12.9139-14.8883,22.3326-15.6708
	c7.6726-0.6375,16.6316-0.9253,23.9346-0.6324c7.5004,0.3008,14.5698,3.8602,19.6037,9.893l19.5686,23.4517
	c2.3339,2.797,5.1321,5.0938,8.2488,6.7709l15.8837,8.5466c0.3396,0.1828,0.6814,0.3575,1.0248,0.5242
	c14.2727,6.9258,30.9932-0.9585,36.6817-16.7442l10.9631-30.4227c2.2708-6.3014,6.3775-11.6673,11.7695-15.0764
	c21.379-13.5168,52.5332-57.3,64.4925-45.0737l13.5179,12.8846c5.8751,5.5999,13.6465,8.1482,21.4326,7.3104
	c7.2729-0.7825,17.8641,1.2503,34.9147,16.3203c2.0449,1.8073,3.844,3.9276,5.338,6.2844l39.702,62.6283
	c1.1004,1.7358,2.0296,3.592,2.7724,5.538l7.6026,19.918c2.8999,7.5972,8.3717,13.8295,15.4201,16.8714
	c5.2527,2.267,10.8893,8.0051,14.4989,12.1524c2.4007,2.7584,4.2868,5.989,5.5769,9.5134l4.8324,13.2009
	c1.3333,3.6423,3.2778,6.9932,5.7789,9.8232C532.4301,213.9682,542.6517,231,511.1197,231H11.8638
	c-15.5058,0.0001-1.5021-12.0629,10.1831-20.3103C27.907,206.5536,32.0807,200.1395,33.7713,192.7858z"/>
<path style="fill:#2B1A0F;stroke:#412F22;stroke-width:7;stroke-miterlimit:10;" d="M66.7883,217.2837l38.383-47.4269
	c0.7878-0.9734,1.7756-1.7327,2.8837-2.2166l28.4706-16.4675c1.4076-0.6147,22.2604-2.5821,23.7448-2.2403l40.3521,11.7346
	c1.6246,0.3741,9.4502,9.2654,10.5378,10.6257l13.938,17.4339c0.7022,0.8783,1.5675,1.5864,2.5393,2.0778l24.8648,12.575
	c0.863,0.4364,1.7937,0.6939,2.7441,0.7591l40.8177,5.409c1.6971,0.1164,10.5052-2.5061,11.9092-3.5458l21.0322-15.5751
	c0.3306-0.2448,0.6785-0.4611,1.0404-0.6467l27.101-17.124c1.4247-0.7307,17.8654-1.716,19.4181-1.422
	c5.1844,0.9816,11.952,2.2922,13.4923,2.8485c1.8101,0.6539,41.4295,14.1622,49.3657,15.864
	c0.7414,0.159,18.2351-4.0192,18.9869-4.102l27.4977-3.0303c1.0322-0.1138,2.0748,0.0019,3.0643,0.3398l19.8855,6.7905
	c0.2235,0.0763,0.4502,0.1414,0.6793,0.1952l24.3356,4.4505c0.8177,0.1917,18.1531,7.6353,18.8701,8.1025l16.4366,12.9575
	c1.232,0.8028,2.2296,1.9666,2.8776,3.357l0,0C586.8619,231,570.9323,231,565.2482,231H72.5232
	C35.5594,231,62.4644,222.6263,66.7883,217.2837z"/>
<path style="fill:#371F13;stroke:#412C1D;stroke-width:7;stroke-miterlimit:10;" d="M479.9842,182.814l-38.8626-65.9019
	c-1.5357-4.5776-4.3023-8.5515-7.9429-11.4083l-23.0933-18.1217c-5.9506-4.6696-13.6314-5.8935-20.5706-3.2779l-14.1976,5.3514
	c-3.2921,1.2409-6.8054,1.6352-10.2623,1.1519l0,0c-9.1434-1.2785-18.0803,3.622-22.5452,12.3626l-13.0072,25.4627l-15.0807,26.377
	c-2.3958,4.1902-5.9081,7.4944-10.0732,9.476l-3.0701,1.4606c-2.6603,1.2656-5.069,3.0781-7.0928,5.3371l-5.8069,6.4817
	c-1.3225,1.4763-2.4672,3.1282-3.4066,4.9162l-12.0758,22.9851l26.9866,2.1398l23.6955-17.5473l29.5754-14.1012
	c6.4246-3.0631,13.6125-3.6986,20.4103-1.8044l51.13,14.2476c4.9425,1.3773,10.0893,1.6693,15.1374,0.8589L479.9842,182.814z"/>
</svg>
