<?xml version="1.0" encoding="utf-8"?>
<!-- Generator: Adobe Illustrator 26.5.1, SVG Export Plug-In . SVG Version: 6.00 Build 0)  -->
<svg version="1.1" id="Layer_1" xmlns="http://www.w3.org/2000/svg" xmlns:xlink="http://www.w3.org/1999/xlink" x="0px" y="0px"
	 viewBox="0 0 896 720" style="enable-background:new 0 0 896 720;" xml:space="preserve">
<g>
	<rect x="-5.4233" y="419.0267" style="fill:#1E1E1E;" width="907.649" height="2.8265"/>
	<rect x="-5.4233" y="346.5567" style="fill:#1E1E1E;" width="906.4091" height="2.8627"/>
	<rect x="-4.8033" y="332.8123" style="fill:#1E1E1E;" width="906.4091" height="2.8627"/>
	<rect x="26.7247" y="325.0423" style="fill:#1E1E1E;" width="4.4339" height="115.3246"/>
	<rect x="52.4507" y="325.0423" style="fill:#1E1E1E;" width="4.4339" height="115.3246"/>
	<rect x="79.1768" y="325.0423" style="fill:#1E1E1E;" width="4.4339" height="115.3246"/>
	<rect x="105.9028" y="325.0423" style="fill:#1E1E1E;" width="4.4339" height="115.3246"/>
	<rect x="132.1854" y="325.0423" style="fill:#1E1E1E;" width="4.4339" height="115.3246"/>
	<rect x="158.9114" y="325.0423" style="fill:#1E1E1E;" width="4.4339" height="115.3246"/>
	<rect x="185.6374" y="325.0423" style="fill:#1E1E1E;" width="4.4339" height="115.3246"/>
	<rect x="212.3634" y="325.0423" style="fill:#1E1E1E;" width="4.4339" height="115.3246"/>
	<rect x="1" y="325.0423" style="fill:#1E1E1E;" width="4.4339" height="115.3246"/>
	<rect x="264.4853" y="325.0423" style="fill:#1E1E1E;" width="4.4339" height="115.3246"/>
	<rect x="291.2113" y="325.0423" style="fill:#1E1E1E;" width="4.4339" height="115.3246"/>
	<rect x="317.9373" y="325.0423" style="fill:#1E1E1E;" width="4.4339" height="115.3246"/>
	<rect x="344.6633" y="325.0423" style="fill:#1E1E1E;" width="4.4339" height="115.3246"/>
	<rect x="370.946" y="325.0423" style="fill:#1E1E1E;" width="4.4339" height="115.3246"/>
	<rect x="397.672" y="325.0423" style="fill:#1E1E1E;" width="4.4339" height="115.3246"/>
	<rect x="424.398" y="325.0423" style="fill:#1E1E1E;" width="4.4339" height="115.3246"/>
	<rect x="451.124" y="325.0423" style="fill:#1E1E1E;" width="4.4339" height="115.3246"/>
	<rect x="238.7606" y="325.0423" style="fill:#1E1E1E;" width="4.4339" height="115.3246"/>
	<rect x="504.4079" y="325.0423" style="fill:#1E1E1E;" width="4.4339" height="115.3246"/>
	<rect x="531.134" y="325.0423" style="fill:#1E1E1E;" width="4.4339" height="115.3246"/>
	<rect x="557.86" y="325.0423" style="fill:#1E1E1E;" width="4.4339" height="115.3246"/>
	<rect x="583.586" y="325.0423" style="fill:#1E1E1E;" width="4.4339" height="115.3246"/>
	<rect x="609.8686" y="325.0423" style="fill:#1E1E1E;" width="4.4339" height="115.3246"/>
	<rect x="636.5946" y="325.0423" style="fill:#1E1E1E;" width="4.4339" height="115.3246"/>
	<rect x="663.3206" y="325.0423" style="fill:#1E1E1E;" width="4.4339" height="115.3246"/>
	<rect x="690.0466" y="325.0423" style="fill:#1E1E1E;" width="4.4339" height="115.3246"/>
	<rect x="478.6832" y="325.0423" style="fill:#1E1E1E;" width="4.4339" height="115.3246"/>
	<rect x="742.1685" y="325.0423" style="fill:#1E1E1E;" width="4.4339" height="115.3246"/>
	<rect x="768.8945" y="325.0423" style="fill:#1E1E1E;" width="4.4339" height="115.3246"/>
	<rect x="796.6205" y="325.0423" style="fill:#1E1E1E;" width="4.4339" height="115.3246"/>
	<rect x="824.3466" y="325.0423" style="fill:#1E1E1E;" width="4.4339" height="115.3246"/>
	<rect x="850.6292" y="325.0423" style="fill:#1E1E1E;" width="4.4339" height="115.3246"/>
	<rect x="875.3552" y="325.0423" style="fill:#1E1E1E;" width="4.4339" height="115.3246"/>
	<rect x="716.4438" y="325.0423" style="fill:#1E1E1E;" width="4.4339" height="115.3246"/>
	<polygon style="fill:#1E1E1E;" points="7.0929,325.0423 -0.7772,325.0423 3.1578,318.5808 	"/>
	<polygon style="fill:#1E1E1E;" points="32.8767,325.0423 25.0066,325.0423 28.9417,318.5808 	"/>
	<polygon style="fill:#1E1E1E;" points="58.6027,325.0423 50.7326,325.0423 54.6677,318.5808 	"/>
	<polygon style="fill:#1E1E1E;" points="138.3097,325.0423 130.4395,325.0423 134.3746,318.5808 	"/>
	<polygon style="fill:#1E1E1E;" points="85.3288,325.0423 77.4586,325.0423 81.3937,318.5808 	"/>
	<polygon style="fill:#1E1E1E;" points="111.8192,325.0423 103.9491,325.0423 107.8841,318.5808 	"/>
	<polygon style="fill:#1E1E1E;" points="165.0634,325.0423 157.1933,325.0423 161.1283,318.5808 	"/>
	<polygon style="fill:#1E1E1E;" points="191.7894,325.0423 183.9193,325.0423 187.8544,318.5808 	"/>
	<polygon style="fill:#1E1E1E;" points="218.5154,325.0423 210.6453,325.0423 214.5804,318.5808 	"/>
	<polygon style="fill:#1E1E1E;" points="244.9126,325.0423 237.0424,325.0423 240.9775,318.5808 	"/>
	<polygon style="fill:#1E1E1E;" points="270.6373,325.0423 262.7672,325.0423 266.7022,318.5808 	"/>
	<polygon style="fill:#1E1E1E;" points="297.3633,325.0423 289.4932,325.0423 293.4283,318.5808 	"/>
	<polygon style="fill:#1E1E1E;" points="324.0893,325.0423 316.2192,325.0423 320.1543,318.5808 	"/>
	<polygon style="fill:#1E1E1E;" points="350.8153,325.0423 342.9452,325.0423 346.8803,318.5808 	"/>
	<polygon style="fill:#1E1E1E;" points="377.098,325.0423 369.2278,325.0423 373.1629,318.5808 	"/>
	<polygon style="fill:#1E1E1E;" points="403.824,325.0423 395.9539,325.0423 399.8889,318.5808 	"/>
	<polygon style="fill:#1E1E1E;" points="430.55,325.0423 422.6799,325.0423 426.6149,318.5808 	"/>
	<polygon style="fill:#1E1E1E;" points="457.276,325.0423 449.4059,325.0423 453.3409,318.5808 	"/>
	<polygon style="fill:#1E1E1E;" points="484.777,325.5721 476.9069,325.5721 480.842,319.1107 	"/>
	<polygon style="fill:#1E1E1E;" points="510.5599,325.0423 502.6898,325.0423 506.6249,318.5808 	"/>
	<polygon style="fill:#1E1E1E;" points="537.2859,325.5721 529.4158,325.5721 533.3509,319.1107 	"/>
	<polygon style="fill:#1E1E1E;" points="564.012,325.0423 556.1418,325.0423 560.0769,318.5808 	"/>
	<polygon style="fill:#1E1E1E;" points="589.738,325.0423 581.8679,325.0423 585.8029,318.5808 	"/>
	<polygon style="fill:#1E1E1E;" points="138.3097,325.0423 130.4395,325.0423 134.3746,318.5808 	"/>
	<polygon style="fill:#1E1E1E;" points="616.0206,325.0423 608.1505,325.0423 612.0855,318.5808 	"/>
	<polygon style="fill:#1E1E1E;" points="642.7982,325.0423 634.928,325.0423 638.8631,318.5808 	"/>
	<polygon style="fill:#1E1E1E;" points="138.3097,325.0423 130.4395,325.0423 134.3746,318.5808 	"/>
	<polygon style="fill:#1E1E1E;" points="669.4727,325.0423 661.6025,325.0423 665.5376,318.5808 	"/>
	<polygon style="fill:#1E1E1E;" points="696.1987,325.0423 688.3285,325.0423 692.2636,318.5808 	"/>
	<polygon style="fill:#1E1E1E;" points="722.5958,325.0423 714.7256,325.0423 718.6607,318.5808 	"/>
	<polygon style="fill:#1E1E1E;" points="748.3205,325.0423 740.4504,325.0423 744.3854,318.5808 	"/>
	<polygon style="fill:#1E1E1E;" points="775.0465,325.0423 767.1764,325.0423 771.1115,318.5808 	"/>
	<polygon style="fill:#1E1E1E;" points="802.7725,325.0423 794.9024,325.0423 798.8375,318.5808 	"/>
	<polygon style="fill:#1E1E1E;" points="138.3097,325.0423 130.4395,325.0423 134.3746,318.5808 	"/>
	<polygon style="fill:#1E1E1E;" points="830.4985,325.0423 822.6284,325.0423 826.5635,318.5808 	"/>
	<polygon style="fill:#1E1E1E;" points="856.7812,325.0423 848.9111,325.0423 852.8461,318.5808 	"/>
	<polygon style="fill:#1E1E1E;" points="881.5072,325.0423 873.6371,325.0423 877.5721,318.5808 	"/>
</g>
</svg>
