<?xml version="1.0" encoding="utf-8"?>
<!-- Generator: Adobe Illustrator 26.5.0, SVG Export Plug-In . SVG Version: 6.00 Build 0)  -->
<svg version="1.1" xmlns="http://www.w3.org/2000/svg" xmlns:xlink="http://www.w3.org/1999/xlink" x="0px" y="0px"
	 viewBox="0 0 595.2756 841.8898" style="enable-background:new 0 0 595.2756 841.8898;" xml:space="preserve">
<g id="Layer_1_copy" style="display:none;">
	<path style="display:inline;fill:#FFFFFF;stroke:#000000;stroke-miterlimit:10;" d="M401.1449,314.9906
		C404,355,483,406,469,420.9449C394.0309,500.9739,413.9316,526.9271,426,561c10,34-13,87-13,87
		c-23.0764,5.6252-36.1725-59.7831-65.5-22c-16.05,20.6774-21.5651-42.1248-22.25-60c-0.5537-14.4503-8.3033,47.6262-45.9384,55
		c-15.3116,3-18.074,19.6024-21.0616,19c-44.8538-9.0434-46.4474-82.6741-60.25-64c-17,23-33.8802,55.3503-56.2903,72.3086
		C165,486,125,420.9449,89.4229,318C77.9952,284.9333,136,332,180,310c17.1514-8.5757,32.9102-186.5538,100.5-186.5538
		C363.3427,123.4462,392.1005,188.2499,401.1449,314.9906z"/>
	<circle style="display:inline;stroke:#FFFFFF;stroke-miterlimit:10;" cx="258.25" cy="220.25" r="22.25"/>
	<circle style="display:inline;stroke:#FFFFFF;stroke-miterlimit:10;" cx="325.25" cy="219.5" r="22.25"/>
</g>
<g id="Layer_1">
	<path style="fill:#FFFFFF;stroke:#000000;stroke-miterlimit:10;" d="M401.1449,314.9906
		c-0.442,14.033,57.5217,52.2929,52.2021,76.0094c-24,107-17.4154,157.9271-5.347,192c-34,23-35,65-35,65
		c-23.0764,5.6252-44-68-73.3275-30.2169C323.6225,638.4605,306.8376,538.1071,303,539c-16.2461,3.78-28,98.4462-28,98.4462
		c-25.7097,0-52.8633-107.6509-65-70.4462c-23.9086,73.291-52.5733,57.5288-68.2903,81.3086
		c10-68,10.2804-176.5553-36.9833-236.5553C83.0774,384.2703,168,325,180,310c11.9791-14.9738,32.9102-186.5538,100.5-186.5538
		C363.3427,123.4462,405.1449,187.9906,401.1449,314.9906z"/>
	<circle style="stroke:#FFFFFF;stroke-miterlimit:10;" cx="258.25" cy="220.25" r="22.25"/>
	<circle style="stroke:#FFFFFF;stroke-miterlimit:10;" cx="325.25" cy="219.5" r="22.25"/>
</g>
</svg>
