<?xml version="1.0" encoding="utf-8"?>
<!-- Generator: Adobe Illustrator 26.5.1, SVG Export Plug-In . SVG Version: 6.00 Build 0)  -->
<svg version="1.1" id="Layer_1_copy" xmlns="http://www.w3.org/2000/svg" xmlns:xlink="http://www.w3.org/1999/xlink" x="0px"
	 y="0px" viewBox="0 0 595.3 841.9" style="enable-background:new 0 0 595.3 841.9;" xml:space="preserve">
<path style="fill:#E3E2D4;stroke:#666766;stroke-width:10;stroke-miterlimit:10;" d="M407,318c1.2008,11.2331,66.856,25.51,68,39
	c9.3359,110.084-48,279.4-48,279.4c-23.1,5.6-44.3-60.1-73.6-22.4c-16,20.7-33.6-70.9-37.4-70c-8.1,1.9-22.9,98-37.2,52
	c-10.3-32.9-44.8,39-44.8,39c-25.7,0-26.9-102.2-39-65c-19.8,60.6-32.4,34.3-48,60c-14,23-15.3-100.5-6.6-138
	c10-43,37.5-92.6,46.6-173c5.6-48.9,13-182.6,110.6-182.6C383,136.4,401.5,266.8,407,318z"/>
<path d="M264.1,239c12.3,0,22.2,6.1,22.2,18.3c0,12.3-10,26.2-22.2,26.2s-22.2-10-22.2-22.2C241.9,249.1,251.8,239,264.1,239z"/>
<path d="M331.1,238.2c12.3,0,22.2,6.1,22.2,18.3c0,12.2-10,26.2-22.2,26.2s-22.2-10-22.2-22.2C308.9,248.3,318.8,238.2,331.1,238.2z
	"/>
<ellipse style="fill:none;stroke:#383A39;stroke-width:8;stroke-miterlimit:10;" cx="468.809" cy="372.1906" rx="20.9501" ry="16.1315"/>
<polygon style="fill:#434242;stroke:#383A39;stroke-width:8;stroke-miterlimit:10;" points="468.8868,381.3351 436.9291,408.9023 
	496.6413,412.93 "/>
<path style="fill:#E4D2A5;stroke:#383A39;stroke-width:8;stroke-miterlimit:10;" d="M436.8312,410.3528l-4.9646,73.6024
	c-0.112,1.66,1.1429,3.0964,2.8029,3.2084l54.7023,3.6898c1.1069,0.0747,2.0648-0.7621,2.1394-1.869l4.9912-73.996
	c0.0767-1.1367-0.7827-2.1204-1.9194-2.1971l-56.2035-3.791C437.5785,408.9461,436.8853,409.5517,436.8312,410.3528z"/>
<polygon style="fill:#434242;stroke:#383A39;stroke-width:8;stroke-miterlimit:10;" points="431.6639,486.9608 439.8281,500.8434 
	481.6332,503.6632 491.3761,490.9885 "/>
<rect x="437.3888" y="452.308" transform="matrix(0.0673 -0.9977 0.9977 0.0673 -27.9349 892.4683)" style="fill:#E3BF74;" width="51.9855" height="17.7349"/>
<path style="fill:#DE9367;" d="M465.6825,427.2646l-1.5218,2.583c-0.9959,0.9944-2.3497,3.426-1.7939,4.7189l1.3659,2.0226
	c0.6305,0.8481,1.8753,0.9178,2.5964,0.1453l1.7046-2.1146c0.5669-0.9958-0.4246-3.2948-1.0869-4.2297L465.6825,427.2646z"/>
</svg>
