<?xml version="1.0" encoding="utf-8"?>
<!-- Generator: Adobe Illustrator 26.5.1, SVG Export Plug-In . SVG Version: 6.00 Build 0)  -->
<svg version="1.1" id="Layer_1_copy" xmlns="http://www.w3.org/2000/svg" xmlns:xlink="http://www.w3.org/1999/xlink" x="0px"
	 y="0px" viewBox="0 0 595.3 841.9" style="enable-background:new 0 0 595.3 841.9;" xml:space="preserve">
<path style="fill:#E3E2D4;stroke:#666766;stroke-width:10;stroke-miterlimit:10;" d="M399.3,286c8.9219,68.6402,70.7,57.1,66.7,103
	c-3,52.9-7.3694,148.2053-41,223.1c-18.7733,56.7915-34.6457-38.4623-44.7115-11.0469
	c-6.7471,18.3765-7.981,41.8454-17.9572,41.8454c-14.9643,0-31.3312-55.58-31.3312-76.7622
	c-6.5785-39.9049-39.1709,76.2231-52.4,48.9637c-16.5-33.9993-32.9,37.4-46.6,26c-12.613-40.7354-8.3384-63.0135-20.3098-70.9946
	c-3.5276-2.3517-16.7378,44.1456-19.9525,46.9097c-13.0122,11.1885-24.4985,5.7245-36.9755,19.277
	c-4.4621,4.8467-13.1126-21.6092-13.1733-28.1968c-0.2791-30.301-3.5368-51.6887,6.4111-122.433
	c11.1535-54.5241,27.5641-83.244,37.6155-137.6265c1.4034-7.5932,2.2074-15.2831,2.5811-22.9959
	c5.6681-116.9976,43.2578-184.9398,106.5034-184.9398C380.2884,140.0999,393.4588,246.35,399.3,286z"/>
<ellipse style="fill:none;stroke:#383A39;stroke-width:8;stroke-miterlimit:10;" cx="458.6306" cy="387.4518" rx="20.9501" ry="16.1315"/>
<polygon style="fill:#434242;stroke:#383A39;stroke-width:8;stroke-miterlimit:10;" points="461.3965,396.5925 433.5118,428.2737 
	493.2135,424.0921 "/>
<path style="fill:#E4D2A5;stroke:#383A39;stroke-width:8;stroke-miterlimit:10;" d="M433.6134,429.7239l5.1542,73.5893
	c0.1162,1.6597,1.5559,2.9109,3.2156,2.7946l54.6926-3.8307c1.1067-0.0775,1.941-1.0375,1.8635-2.1442l-5.1818-73.9829
	c-0.0796-1.1365-1.0655-1.9933-2.202-1.9137l-56.1935,3.9358C434.1611,428.2282,433.5573,428.9229,433.6134,429.7239z"/>
<polygon style="fill:#434242;stroke:#383A39;stroke-width:8;stroke-miterlimit:10;" points="438.9781,506.3183 448.9653,518.953 
	490.763,516.0255 498.6797,502.1368 "/>
<rect x="458.0135" y="450.424" transform="matrix(0.9976 -0.0699 0.0699 0.9976 -32.146 33.785)" style="fill:#E3BF74;" width="17.7355" height="51.9872"/>
<path style="fill:#DE9367;" d="M464.5075,442.5284l-1.154,2.767c-0.8505,1.1213-1.8588,3.7153-1.1312,4.92l1.6298,1.8167
	c0.7406,0.7538,1.9832,0.6525,2.5919-0.2114l1.3991-2.328c0.4253-1.064-0.8714-3.2057-1.6555-4.0412L464.5075,442.5284z"/>
<path d="M264.15,238c12.3,0,22.2,6.1,22.2,18.3c0,12.3-10,26.2-22.2,26.2s-22.2-10-22.2-22.2C241.95,248.1,251.85,238,264.15,238z"
	/>
<path d="M331.15,237.2c12.3,0,22.2,6.1,22.2,18.3s-10,26.2-22.2,26.2s-22.2-10-22.2-22.2C308.95,247.3,318.85,237.2,331.15,237.2z"
	/>
</svg>
