<?xml version="1.0" encoding="utf-8"?>
<!-- Generator: Adobe Illustrator 26.5.1, SVG Export Plug-In . SVG Version: 6.00 Build 0)  -->
<svg version="1.1" id="Layer_1" xmlns="http://www.w3.org/2000/svg" xmlns:xlink="http://www.w3.org/1999/xlink" x="0px" y="0px"
	 viewBox="0 0 595.3 841.9" style="enable-background:new 0 0 595.3 841.9;" xml:space="preserve">
<g id="Layer_1_copy">
	<path style="fill:#E3E2D4;stroke:#666766;stroke-width:10;stroke-miterlimit:10;" d="M401,314.9
		c12.9577,201.7706-22.91,336.0545-29.2157,350.4635c-0.5288,1.2085-5.8821-18.1934-7.1418-18.585
		C349.6563,642.1202,353.8208,592.1158,337.9,619c-16,20.7-18.1-75.8-21.9-74.9c-18.1444,4.2562-12.8556,130.3105-37.2,52
		c-10.3-32.9-20.8,56.1-20.8,56.1c-16.1,19.6844-15.9-111.4-28-74.2c-7.2104,16.8876-8.0955,29.2776-14.2603,56.9896
		c-0.4747,2.134-9.5403,29.2971-10.2013,27.2132C180.7638,584.0935,180.2411,534.2479,188,316.9999c3.9-48.1,12-180.5,109.6-180.5
		C383,136.4,395.5,263.7,401,314.9z"/>
	<path d="M264.1,238c12.2607,0,20.2,4.9393,20.2,17.2s-7.9393,27.2-20.2,27.2c-12.2607,0-22.2-9.9393-22.2-22.2
		C241.9,247.9393,251.8393,238,264.1,238z"/>
	<path d="M328.8348,237.4124c14.0403-1.3905,23.7432,5.3123,22.3528,19.3527c-1.0289,10.3898-7.4326,23.7935-17.8224,24.8225
		c-14.0404,1.3905-25.7433-10.3124-24.3528-24.3528C310.0413,246.8451,318.4451,238.4413,328.8348,237.4124z"/>
</g>
<ellipse style="fill:none;stroke:#383A39;stroke-width:8;stroke-miterlimit:10;" cx="396.6306" cy="414.4693" rx="20.9501" ry="16.1315"/>
<polygon style="fill:#434242;stroke:#383A39;stroke-width:8;stroke-miterlimit:10;" points="396.6306,423.4693 366.6005,453.1247 
	426.4484,453.1247 "/>
<path style="fill:#E4D2A5;stroke:#383A39;stroke-width:8;stroke-miterlimit:10;" d="M366.6005,454.5785v73.7696
	c0,1.6638,1.3487,3.0125,3.0125,3.0125h54.8266c1.1094,0,2.0088-0.8994,2.0088-2.0088v-74.1642
	c0-1.1393-0.9236-2.0629-2.0629-2.0629h-56.3312C367.2514,453.1247,366.6005,453.7756,366.6005,454.5785z"/>
<polygon style="fill:#434242;stroke:#383A39;stroke-width:8;stroke-miterlimit:10;" points="366.6005,531.3606 375.6805,544.6622 
	417.5807,544.6622 426.4484,531.3606 "/>
<rect x="387.6569" y="477.4889" style="fill:#E3BF74;" width="17.7355" height="51.9872"/>
<path style="fill:#DE9367;" d="M396.5245,469.5103l-1.3445,2.6796c-0.9267,1.0592-2.1138,3.5764-1.4722,4.829l1.4989,1.9261
	c0.6862,0.8037,1.9328,0.7895,2.6003-0.0298l1.5584-2.2245c0.4986-1.0317-0.6454-3.2587-1.3692-4.147L396.5245,469.5103z"/>
</svg>
