<?xml version="1.0" encoding="utf-8"?>
<!-- Generator: Adobe Illustrator 26.5.1, SVG Export Plug-In . SVG Version: 6.00 Build 0)  -->
<svg version="1.1" id="Layer_1" xmlns="http://www.w3.org/2000/svg" xmlns:xlink="http://www.w3.org/1999/xlink" x="0px" y="0px"
	 viewBox="0 0 595.3 841.9" style="enable-background:new 0 0 595.3 841.9;" xml:space="preserve">
<g id="Layer_1_copy">
	<path style="fill:#E3E2D4;stroke:#666766;stroke-width:10;stroke-miterlimit:10;" d="M389.759,283.4193
		c2.8,14.1,40.4,10.3,47.4,30.2c16.4,46.6,7.5,66.3,42.4,54.6c23.3-15.5,21.1-22.1,49.9-13.2c25,7.8,55.1-67.9,55.2-62.1
		c0.4,24.1-12.2,77.1-11.2,103.5c1.6,42.4-45.4,32.3-46.3,25.1c-5.3-41-36.4516,22.093-69.2,14.2c-24.4,0-68.1377,86.729-87,65.9
		c-28.026-38.0308-128.1,4.7-140.8-5.6c-13.2503-22.0074-27.625-28.7451-34.125-33.3451c-12-8.5-96.875,25.9451-105.175-0.4549
		c-4.7-14.9,2.4-40.4-10.3-42.6c-25-4.3-26.9367,12.0357-44.8-1.6c0,0-29.025-22.2549-18-35.7c0,0,17.2-15.2,2.5-90.2
		c-0.9-4.5,23.3,59.8,57.8,42.8c36.4183-5.2813,34,4.8,41.4,17.5c9.3543,14.3819,34.3843,1.0168,48.3-28.4
		c7.8-20.7,41.3,4,39.7-40.5c-2.1-57,16.4-135.3,93.1-135.3C372.459,148.0193,390.559,219.6193,389.759,283.4193z"/>
</g>
<path style="fill:#FFFFFF;stroke:#000000;stroke-miterlimit:10;" d="M92,419.4"/>
<path style="fill:#FFFFFF;stroke:#000000;stroke-miterlimit:10;" d="M231.4,537.2"/>
<ellipse style="fill:none;stroke:#383A39;stroke-width:8;stroke-miterlimit:10;" cx="465.2577" cy="356.8136" rx="20.9501" ry="16.1315"/>
<polygon style="fill:#434242;stroke:#383A39;stroke-width:8;stroke-miterlimit:10;" points="467.6096,348.8402 508.1484,337.099 
	455.547,308.5533 "/>
<path style="fill:#E4D2A5;stroke:#383A39;stroke-width:8;stroke-miterlimit:10;" d="M508.8419,335.8213l35.186-64.8375
	c0.7936-1.4623,0.2515-3.291-1.2108-4.0846l-48.1881-26.1508c-0.9751-0.5292-2.1945-0.1677-2.7237,0.8074l-35.3742,65.1842
	c-0.5434,1.0014-0.1722,2.2537,0.8292,2.7971l49.5105,26.8684C507.5764,336.7886,508.4589,336.5269,508.8419,335.8213z"/>
<polygon style="fill:#434242;stroke:#383A39;stroke-width:8;stroke-miterlimit:10;" points="545.4648,268.3361 543.8287,252.3142 
	507.0019,232.3289 492.8634,239.7903 "/>
<rect x="479.8732" y="269.6979" transform="matrix(0.477 -0.8789 0.8789 0.477 19.746 590.3132)" style="fill:#E3BF74;" width="51.9872" height="17.7355"/>
<path style="fill:#DE9367;" d="M489.6632,308.4245l2.4598-1.7138c1.3197-0.4889,3.5637-2.1351,3.5972-3.5421l-0.3987-2.4078
	c-0.2197-1.0337-1.3222-1.6158-2.2997-1.2141l-2.4308,1.2119c-0.9303,0.6689-0.9871,3.172-0.7746,4.2979L489.6632,308.4245z"/>
<path style="fill:#231F20;stroke:#231F20;stroke-width:5;stroke-miterlimit:10;" d="M244.7208,241.4462l18.0228-0.4374
	c3.1637-0.0768,6.2673,0.8537,9.0449,2.7118l14.1881,9.4911c0.5088,0.1451,0.4778,1.1074-0.04,1.2431l-38.3348,10.0439
	c-0.0254,0.0067-0.035-0.0403-0.0108-0.0531l20.1292-10.6794c0.0277-0.0147,0.0283-0.0385,0.0012-0.0529l-23.0155-12.2096
	C244.6801,241.4899,244.6935,241.4384,244.7208,241.4462z"/>
<path style="fill:#231F20;stroke:#231F20;stroke-width:5;stroke-miterlimit:10;" d="M358.3049,241.4462l-18.0229-0.4374
	c-3.1637-0.0768-6.2673,0.8537-9.0449,2.7118l-14.1881,9.4911c-0.5088,0.1451-0.4778,1.1074,0.0401,1.2431l38.3347,10.0439
	c0.0254,0.0067,0.035-0.0403,0.0108-0.0531l-20.1292-10.6794c-0.0277-0.0147-0.0283-0.0385-0.0012-0.0529l23.0155-12.2096
	C358.3456,241.4899,358.3322,241.4384,358.3049,241.4462z"/>
</svg>
