<?xml version="1.0" encoding="utf-8"?>
<!-- Generator: Adobe Illustrator 26.5.0, SVG Export Plug-In . SVG Version: 6.00 Build 0)  -->
<svg version="1.1" xmlns="http://www.w3.org/2000/svg" xmlns:xlink="http://www.w3.org/1999/xlink" x="0px" y="0px"
	 viewBox="0 0 595.2756 841.8898" style="enable-background:new 0 0 595.2756 841.8898;" xml:space="preserve">
<g id="Layer_1" style="display:none;">
	<path style="display:inline;fill:#FFFFFF;stroke:#000000;stroke-miterlimit:10;" d="M407,318c11,102.9449,20,318.3619,20,318.3619
		c-23.0764,5.6252-44.2847-60.145-73.6122-22.3619c-16.05,20.6774-33.5502-70.8929-37.3878-70
		c-8.123,1.89-22.8741,97.9946-37.2131,52C268.5293,563.0974,234,635,234,635c-25.7097,0-26.8633-102.2047-39-65
		c-19.7571,60.5646-32.3646,34.3133-48,60c-14,23-15.32-100.5292-6.6058-138c10-43,23.558-101.1141,37.7298-172.3573
		C187.7284,271.3599,200,136.3942,297.6378,136.3942C383,136.3942,401.527,266.7799,407,318z"/>
	<circle style="display:inline;stroke:#FFFFFF;stroke-miterlimit:10;" cx="264.1378" cy="248.25" r="22.25"/>
	<circle style="display:inline;stroke:#FFFFFF;stroke-miterlimit:10;" cx="331.1378" cy="247.5" r="22.25"/>
</g>
<g id="Layer_1_copy">
	<path style="fill:#FFFFFF;stroke:#000000;stroke-miterlimit:10;" d="M407,318c5,44,70,62,130,189
		c8.4791,17.9473-43.6554,10.4766-72,27c-31.1798,18.1761-11.0176,53.114-32,89c-15,25.6544-22-37-47-48
		c-26.5578-11.6854-19,39-77.1122,19c-18.331-6.3088-41.4346,66.4111-53.8878,53c-26-28-54.6451-13.6042-63-40
		c-11.1539-35.239-43.6501-71.5963-52-46c-19.7571,60.5646-59.2878,4.191-87.7142,14C32,582,74.2859,480.4708,83,443
		c10-43,80.9522-52.1141,95.1239-123.3573C187.7284,271.3599,200,136.3942,297.6378,136.3942
		C383,136.3942,401.1838,266.8178,407,318z"/>
	<circle style="stroke:#FFFFFF;stroke-miterlimit:10;" cx="264.1378" cy="248.25" r="22.25"/>
	<circle style="stroke:#FFFFFF;stroke-miterlimit:10;" cx="331.1378" cy="247.5" r="22.25"/>
</g>
</svg>
