<?xml version="1.0" encoding="utf-8"?>
<!-- Generator: Adobe Illustrator 26.5.1, SVG Export Plug-In . SVG Version: 6.00 Build 0)  -->
<svg version="1.1" id="Layer_1" xmlns="http://www.w3.org/2000/svg" xmlns:xlink="http://www.w3.org/1999/xlink" x="0px" y="0px"
	 viewBox="0 0 896 720" style="enable-background:new 0 0 896 720;" xml:space="preserve">
<polygon style="fill:#35421C;stroke:#343D1F;stroke-width:4;stroke-miterlimit:10;" points="-12.7535,438.8868 -2.1629,422.5827 
	0.2493,438.8868 12.343,410.9527 14.8987,429.8333 22.0546,416.6007 25.4623,434.9971 31.0848,413.2119 34.8356,438.8868 
	37.7297,423.3784 41.6484,430.3174 45.0559,416.2779 48.9747,437.9019 55.7899,417.2462 59.9795,438.8868 63.1163,415.3098 
	69.5907,430.6401 76.5762,409.1775 80.1609,431.3031 85.9472,420.9578 87.651,439.8384 90.5475,426.7672 98.3849,439.677 
	100.4295,418.3759 109.3719,438.8868 109.2892,423.0556 116.2748,438.2247 126.668,418.6986 127.3495,438.0633 136.9017,421.7355 
	145.4099,436.1268 151.0324,410.4685 154.7807,434.8358 160.5737,419.6668 166.8048,438.8868 168.9223,424.508 180.8489,439.0315 
	187.3932,421.4419 191.4718,435.5443 194.1953,417.8379 201.2377,436.1268 205.8591,406.226 211.5173,435.9654 220.2067,418.8599 
	226.8516,430.9628 234.689,412.5664 236.8731,438.8868 250.6569,406.226 254.2325,420.7502 261.7794,413.3193 263.3129,431.6084 
	272.8542,416.4394 273.6301,438.8868 280.522,422.5564 284.708,432.4751 290.0626,424.508 291.9368,439.0315 300.0493,423.5397 
	300.0493,438.8868 309.8861,420.0213 314.5972,433.7062 319.5384,422.8942 325.1608,439.1928 328.9092,424.8307 336.8063,438.8868 
	342.5495,422.5564 345.72,437.4178 348.6733,417.4076 352.9896,434.8358 357.1906,420.9112 365.7113,438.2247 368.7782,423.5397 
	376.9564,435.1586 382.9765,416.7621 386.8384,434.1904 390.7004,420.4199 396.5365,438.8868 401.4911,422.0873 407.284,434.8358 
	413.2473,424.508 415.9734,433.5448 424.3221,416.7621 426.4017,438.8868 435.591,422.5564 437.4981,434.1904 446.3194,416.1166 
	450.4471,437.8481 452.4915,419.7744 460.6776,438.8868 470.5543,406.226 473.7242,431.5327 480.5475,419.9895 483.2736,436.7723 
	488.3849,423.449 493.0238,438.8868 497.8253,411.5822 502.783,430.4755 508.8305,423.449 509.8528,434.5131 518.0311,413.5346 
	519.4431,438.8868 530.6392,417.5654 537.4545,430.3174 543.5881,417.5654 550.4034,434.5131 557.2186,416.7621 558.4973,438.8868 
	568.8355,422.5564 579.2344,435.1586 582.206,424.1086 590.613,434.1904 595.043,417.5654 599.849,438.8868 608.6733,417.5654 
	613.5837,433.6253 618.5554,426.1217 623.326,433.8676 628.999,425.8007 633.1603,438.8868 637.9788,415.1483 643.4981,431.6084 
	650.5868,421.6033 651.9498,433.5448 659.1058,417.5654 664.174,438.8868 669.9174,406.226 675.3586,428.3286 685.0037,417.5654 
	685.0037,433.5448 694.8856,420.635 694.0391,438.8868 700.9311,414.6545 704.7677,433.8676 710.4299,423.449 718.0574,435.804 
	724.5318,420.9578 725.0529,438.8868 733.7323,423.449 739.5906,438.0742 752.1334,412.8891 756.9041,434.1904 763.7192,417.5654 
	765.256,438.8868 773.2966,411.4939 781.0981,435.1586 787.4913,426.4445 788.9355,437.4178 795.4099,420.635 799.5015,438.8868 
	812.351,417.8153 813.4702,438.7087 824.3745,410.3072 823.9728,435.7984 835.9604,415.4711 831.8781,438.8868 842.4348,419.0213 
	849.2501,436.4496 851.6354,421.2806 857.0875,436.7723 868.6733,416.7621 867.4865,438.8868 875.5272,422.5564 881.2573,432.7395 
	888.4376,416.7621 894.2303,434.5131 901.7271,413.5346 905.3923,438.8868 905.3923,738.5801 -12.7535,738.5801 "/>
<g>
	<path style="fill:#464A48;" d="M575.5523,402.9789c-0.729-19.3166-6.6015-23.0425-15.007-28.0316
		c-7.0339-4.175-24.511-4.9747-32.0486,0.421c2.4807-0.5563,9.2115-4.348,18.2897,0.5794
		c11.5834,6.2872,15.8943,7.0063,17.8895,28.6382c0.0299,0.3242,0.1605,70.9371,0.1605,70.9371l11.3799-5.4644
		C576.2165,470.0588,575.5646,403.3044,575.5523,402.9789z"/>
	<path style="fill:#7C7F81;stroke:#626363;stroke-width:10;stroke-miterlimit:10;" d="M560.0229,408.4799
		c0-21.4858-6.0492-27.3601-20.7007-29.5978c-11.6332-1.7767-20.7007,5.2144-20.7007,18.4947c0,0.326,0,63.5267,0,63.5267
		l41.4014,7.5776C560.0229,468.4812,560.0229,408.8059,560.0229,408.4799z"/>
</g>
<g>
	<path style="fill:#464A48;" d="M257.8245,395.9209c-0.729-19.3166-6.6015-23.0424-15.007-28.0315
		c-7.0339-4.175-24.511-4.9747-32.0485,0.421c2.4807-0.5563,9.2115-4.348,18.2897,0.5794
		c11.5834,6.2872,15.8943,7.0063,17.8895,28.6382c0.0299,0.3242,0.1751,70.9975,0.1751,70.9975l11.3652-5.5247
		C258.4886,463.0009,257.8367,396.2465,257.8245,395.9209z"/>
	<path style="fill:#7C7F81;stroke:#626363;stroke-width:10;stroke-miterlimit:10;" d="M242.295,401.4379
		c0-21.4858-6.0492-27.3601-20.7007-29.5978c-11.6332-1.7767-20.7007,5.2144-20.7007,18.4948c0,0.326,0,63.5267,0,63.5267
		l41.4014,7.5776C242.295,461.4392,242.295,401.7639,242.295,401.4379z"/>
</g>
<g>
	<path style="fill:#464A48;" d="M109.1879,616.056c-0.729-19.3167-6.6015-23.0424-15.007-28.0316
		c-7.0339-4.175-24.511-4.9747-32.0485,0.421c2.4807-0.5563,9.2115-4.348,18.2897,0.5793
		c11.5834,6.2872,15.8943,7.0063,17.8895,28.6382c0.0299,0.3242,0.3257,70.7358,0.3257,70.7358l11.2146-5.2631
		C109.852,683.136,109.2002,616.3816,109.1879,616.056z"/>
	<path style="fill:#7C7F81;stroke:#626363;stroke-width:10;stroke-miterlimit:10;" d="M93.6584,621.573
		c0-21.486-6.0492-27.3603-20.7007-29.5978c-11.6332-1.7767-20.7007,5.2143-20.7007,18.4948c0,0.3259,0,63.5267,0,63.5267
		l41.4014,7.5776C93.6584,681.5742,93.6584,621.8989,93.6584,621.573z"/>
</g>
<g>
	<path style="fill:#7C7F81;stroke:#626363;stroke-width:10;stroke-miterlimit:10;" d="M459.8002,623.1655
		c0-21.486-6.0492-27.3601-20.7007-29.5978c-11.6332-1.7767-20.7007,5.2144-20.7007,18.4949c0,0.3259,0,63.5267,0,63.5267
		l41.4014,7.5776C459.8002,683.1666,459.8002,623.4914,459.8002,623.1655z"/>
	<path style="fill:#464A48;" d="M475.3297,617.6483c-0.729-19.3166-6.6015-23.0424-15.007-28.0314
		c-7.0339-4.175-25.8086-5.1894-33.3461,0.2065c2.4807-0.5563,11.5281-2.5495,19.5873,0.7939
		c11.5834,6.2872,15.8943,7.0063,17.8895,28.6382c0.0299,0.3242,0.3497,70.7087,0.3497,70.7087l11.1906-5.2358
		C475.9938,684.7283,475.342,617.9741,475.3297,617.6483z"/>
</g>
<g>
	<path style="fill:#7C7F81;stroke:#626363;stroke-width:10;stroke-miterlimit:10;" d="M780.9427,621.573
		c0-21.486-6.0492-27.3603-20.7007-29.5978c-11.6332-1.7767-20.7007,5.2143-20.7007,18.4948c0,0.3259,0,63.5267,0,63.5267
		l41.4014,7.5776C780.9427,681.5742,780.9427,621.8989,780.9427,621.573z"/>
	<path style="fill:#464A48;" d="M796.4722,616.632c-0.729-19.6727-6.6015-23.4672-15.007-28.5483
		c-7.0339-4.252-27.0743-4.7355-34.6118,0.7597c2.4807-0.5665,13.0522-3.3021,20.853,0.2592
		c11.5834,6.4031,15.8943,7.1354,17.8895,29.1661c0.0299,0.3302,0.3588,72.093,0.3588,72.093l11.1816-5.4133
		C797.1363,684.9485,796.4844,616.9636,796.4722,616.632z"/>
</g>
<polygon style="fill:#35421C;" points="729.513,684.1946 727.1888,666.7137 734.4019,684.0612 736.2898,673.483 739.828,683.9133 
	744.065,675.0255 744.5287,683.7849 747.9359,668.8768 750.1982,683.6302 751.874,675.3972 754.6556,683.5087 752.455,668.3636 
	759.1953,683.3849 761.2191,676.7712 764.7824,683.2325 767.7807,680.4161 768.049,685.4827 772.063,675.4314 771.0359,685.4011 
	775.1916,681.7789 777.4774,685.2255 776.8797,673.9354 780.6202,685.1398 783.1592,679.9968 785.9528,686.7812 786.7089,682.1553 
	788.7755,686.7043 790.8282,679.7876 792.5876,686.6003 793.4116,675.7425 796.0797,686.505 797.2529,675.6378 799.4333,682.5224 
	808.5826,690.6425 723.8663,696.4347 "/>
<g>
	<polygon style="fill:#2C331B;" points="192.034,458.0352 188.5659,436.7087 196.7505,457.8382 197.8364,444.9101 
		201.9853,457.6198 205.4601,446.7391 206.5203,457.4303 208.7723,439.2051 211.9899,457.202 212.0347,447.1385 215.2903,457.0225 
		212.1048,440.547 220.6699,456.8397 221.1642,449.7508 226.0601,457.6147 228.7616,454.1552 230.375,457.3393 232.5529,447.0394 
		233.2566,459.2187 236.0206,455.7674 237.471,458.9594 236.1044,445.1794 241.503,458.8328 243.598,452.536 246.7724,460.7997 
		247.1802,455.1466 249.4957,460.6861 250.9967,452.2271 253.1734,460.5326 252.2113,447.2704 256.5424,460.3919 255.9172,447.1158 
		259.5059,455.5061 263.9175,465.3562 187.4307,473.0187 	"/>
	<polygon style="fill:#35421C;" points="191.98,462.2423 188.5119,440.9158 196.6965,462.0453 197.7824,449.1172 201.9313,461.8269 
		205.4061,450.9462 206.4663,461.6374 208.7183,443.4122 211.9359,461.4091 212.9807,451.3456 216.2363,461.2296 213.0508,442.7541 
		220.6159,461.0468 222.1102,452.9579 226.0061,460.8218 228.7076,457.3623 229.321,463.5464 232.4989,451.2465 232.2026,463.4258 
		235.9666,458.9745 238.417,463.1665 237.0504,449.3865 241.449,463.0399 243.544,456.7431 246.7184,465.0068 247.1262,459.3537 
		249.4417,464.8932 250.9427,456.4342 253.1194,464.7397 253.1573,451.4775 256.4884,464.599 256.8632,451.3229 260.4519,459.7132 
		268.8635,469.5633 187.3767,477.2258 	"/>
</g>
<polygon style="fill:#2C331B;" points="399.8887,681.5613 401.5927,661.2762 408.6053,676.7578 410.9505,665.0314 
	413.8401,678.9759 418.5628,667.5668 418.9151,676.585 422.1368,661.1902 423.8448,679.3926 425.7238,669.451 428.1451,679.5718 
	425.509,660.8951 432.5248,679.7542 434.6873,671.8177 437.915,679.9788 441.8952,676.7563 440.9915,682.9698 446.1825,670.9774 
	444.8732,683.0897 447.9948,679.9673 449.0876,683.3486 449.8731,669.5027 453.1196,683.475 455.7317,677.3745 458.207,685.8738 
	459.084,680.2743 460.9303,685.9872 463.1303,677.6827 464.608,686.1404 465.75,672.9276 467.977,686.2809 469.4559,673.0821 
	471.337,681.6588 476.8958,693.2582 402.054,687.1094 "/>
<polygon style="fill:#35421C;" points="400.8887,681.1566 402.2083,663.6155 408.6053,681.3531 410.7638,668.5602 
	413.8401,681.5712 418.2087,671.0176 418.3752,681.76 422.1368,663.7856 423.8448,681.9879 425.7238,672.0463 428.1451,682.1671 
	426.509,663.4905 432.5248,682.3495 434.6873,674.4131 437.915,682.5741 440.8952,679.3516 440.9915,685.5652 445.1825,673.5727 
	443.8732,685.685 447.9948,681.5626 450.0876,685.944 449.8731,672.098 453.1196,686.0703 455.7317,679.9698 458.207,688.4692 
	459.084,682.8696 460.9303,688.5826 463.1303,680.278 464.608,688.7358 465.75,675.5229 467.977,688.8762 469.4559,675.6774 
	471.337,684.2541 479.8958,694.8536 398.054,695.7048 "/>
<g>
	<polygon style="fill:#2C331B;" points="579.1657,483.776 510.9572,475.0953 513.171,458.5446 516.8901,450.5645 515.4348,463.8017 
		520.5403,451.2239 518.7529,464.4013 522.0522,456.4492 523.1202,465.6649 525.2576,459.8359 526.2271,464.3264 530.7528,458.9911 
		530.5486,464.306 537.4911,452.7126 534.535,464.8455 536.5394,461.0164 538.6559,465.9513 540.0382,453.8141 542.4941,466.4643 
		542.9527,460.4059 546.1531,464.2107 552.0948,456.9319 551.4622,465.1698 555.4091,449.9176 555.7759,465.9492 560.3612,456.5765 
		560.0115,466.7144 565.6756,448.2787 565.3988,467.6878 566.9203,457.2138 569.8655,468.495 571.6635,459.248 574.889,465.0473 
		574.5454,453.7057 579.6671,470.2657 	"/>
	<polygon style="fill:#35421C;" points="581.7162,489.2098 507.5077,478.5291 512.7215,461.9784 516.4406,453.9983 
		514.9852,467.2355 520.0908,454.6577 518.3034,467.8351 521.6027,459.8831 522.6707,469.0987 524.8081,463.2697 525.7776,467.7602 
		530.3033,462.4249 530.0991,467.7398 536.3355,454.7793 533.0855,468.2793 536.0899,464.4502 539.2064,469.3851 540.5887,457.248 
		542.0446,469.8981 543.5032,463.8397 545.7036,467.6445 550.6453,460.3657 551.0127,468.6036 554.9596,453.3514 555.3264,469.383 
		559.9117,460.0103 559.562,470.1482 565.2261,452.7126 564.9493,471.1216 567.4708,460.6476 569.416,471.9288 571.2139,462.6819 
		574.4395,468.4811 574.0959,457.1396 579.2176,473.6996 	"/>
</g>
<g>
	<g>
		<polygon style="fill:#2C331B;" points="44.4716,679.7294 46.6286,664.7678 49.8393,675.9603 50.3619,669.6224 52.8991,677.8721 
			52.8155,667.3566 57.9583,680.5184 61.4645,667.0845 64.4281,680.8165 66.3398,670.2437 68.7285,681.0507 74.2909,663.3259 
			73.1082,681.2894 74.297,673.8558 78.4986,681.5831 79.4679,677.0225 81.5658,684.8008 80.1329,672.7969 84.4475,684.9576 
			85.6504,678.3594 90.6621,685.2963 91.2665,671.915 93.6942,685.4614 93.6762,679.9136 97.9038,686.5294 99.8471,682.1185 
			100.6362,688.6667 103.7253,679.3915 105.1757,688.4172 104.9655,674.5673 108.5448,688.6008 108.8189,673.3286 
			111.9203,683.7103 112.3269,702.0958 42.5885,695.1702 		"/>
	</g>
	<polygon style="fill:#35421C;" points="43.9966,682.4175 47.1536,667.4558 49.3643,678.6484 50.8869,672.3104 53.4241,680.5602 
		53.3405,670.0447 58.4833,683.2065 61.9895,669.7726 63.9531,683.5045 65.8648,672.9317 68.2535,683.7388 73.8159,666.014 
		72.6332,683.9774 74.822,675.5438 78.0236,684.2711 78.9929,679.7105 81.0908,687.4889 80.6579,675.4849 83.9725,687.6456 
		86.1754,681.0475 90.1871,687.9843 91.7915,674.603 93.2192,688.1495 94.2012,682.6016 97.4288,689.2174 99.3721,684.8066 
		100.1612,691.3548 103.2503,682.0795 104.7007,691.1053 105.4905,677.2554 108.0698,691.2889 109.3439,676.0166 111.4453,686.3984 
		112.8519,704.7838 38.1135,697.8582 	"/>
</g>
<g>
	<g>
		<path style="fill:#371F13;" d="M203.2729,451.1862c-0.9098-2.1545-5.3131-3.9178-6.6013-5.5433
			c-2.2285-2.812-2.9022-8.3073-7.0168-15.4118c-5.7007-9.8429-12.9013-8.667-18.9117-0.9562
			c-2.4357,3.1247-6.0367-0.0611-10.0326,0.8442c-13.4708,3.0518-10.7309,18.385-10.7309,18.385l-2.7148,17.2673l60.9085-0.902
			L203.2729,451.1862z"/>
		<path style="fill:#412C1D;" d="M202.3822,448.8092c-1.5039-3.4336-4.3182-2.7981-6.1707-6.0056
			c-1.8526-3.2075-2.298-11.2406-6.5743-15.7091c-14.9185-15.5892-15.5042,4.4446-23.3495,1.6483
			c-9.8823-3.5224-16.7424,2.6693-17.2981,18.6565c-0.16,4.6025-2.8141,17.4198-2.8141,17.4198
			c-0.009,1.3076-0.3036,3.2333,0.5328,3.5594c3.7707,1.4701,7.905-1.9,11.229-0.9799c5.4943,1.5209,11.4363,1.0009,18.1522,0.5915
			c5.9068-0.3601,19.0338,1.0244,24.826-0.0255c3.5547-0.6443,4.9848-1.5269,7.9783-1.521
			c0.8356,0.0016,0.3851-2.6966-0.1941-3.7842C208.6998,462.6595,204.1975,452.9537,202.3822,448.8092z M150.3646,448.5561
			c1.9043-7.7736-0.5376-19.59,14.2226-16.8259c14.0252,2.6265,8.134-18.1688,22.8686-1.5876
			c7.5247,8.4677,5.2157,16.8065,8.9922,17.5299c5.9342,1.1367,6.3572,7.937,8.825,11.7848
			c0.4761,0.7424,1.5862,1.2663,1.5302,3.4386c-0.049,1.9026-5.4932,1.434-8.4964,2.1382c-1.2994,0.3047-2.6423,0.269-3.9966-0.1126
			c-4.1125-1.1588-9.6285-0.7299-13.1274-0.1935c-0.8896,0.1364-6.1328,0.5433-7.6049,0.3303
			c-1.4018-0.2028-3.8275,0.6672-5.2312,0.3348c-3.8342-0.908-10.2812,0.4507-13.4002,0.0512
			c-3.3462-0.4286-7.6817,0.3271-7.6817,0.3271S149.352,452.6896,150.3646,448.5561z"/>
	</g>
	<g>
		<g>
			<path style="fill:#371F13;" d="M165.7109,462.0083l-5.9705,0.2204c-4.2168-5.073-5.6077-13.8846-10.7304-8.8212
				c-4.9676,4.9101-5.6313,10.2623-5.6313,10.2623l-1.2549,7.8811l28.8528-0.0589L165.7109,462.0083z"/>
			<path style="fill:#412C1D;" d="M166.2717,461.7389c-1.3779-3.1321-4.8262,2.6294-8.3393-2.3416
				c-3.5131-4.9709-3.3906-10.7294-9.4922-6.741c-5.0649,3.3108-6.0119,7.4406-6.1502,11.3026
				c-0.0752,2.1005-1.3007,7.9507-1.3007,7.9507c-0.0047,0.5967-0.141,1.4756,0.243,1.624c1.7309,0.6689,3.631-0.8713,5.157-0.4532
				c2.5223,0.6911,5.8675,1.1219,8.3355,0.2601c2.5875-0.9035,8.7401,0.4572,11.4005-0.025
				c1.6327-0.2959,4.0645-0.6333,5.4392-0.6322c0.3837,0.0003,0.1782-1.2307-0.0873-1.7267
				C171.4772,470.9567,167.1033,463.6291,166.2717,461.7389z M143.8307,463.5978c0.1765-3.3878,0.4318-5.5486,6.1101-8.6266
				c5.7727-3.1292,1.7552-0.5084,8.1191,7.8995c3.2519,4.2964,5.8356-2.0227,6.9333,0.2991
				c1.0125,2.1416,4.8195,7.1427,4.8195,7.1427s-0.3576,0.4568-0.7468,0.5458c-1.0574,0.242-1.848-0.0898-3.2274,0.2331
				c-0.5969,0.1397-1.2135,0.1242-1.8353-0.0492c-1.888-0.5266-4.4212-0.3279-6.0282-0.0812
				c-0.4086,0.0627-2.8166,0.2512-3.4924,0.1548c-0.6436-0.0918-1.7693,0.5573-2.4137,0.4064
				c-1.7603-0.4123-4.7102-0.0396-6.1423-0.2202c-1.5364-0.1938-3.5277,0.1534-3.5277,0.1534S143.722,465.6845,143.8307,463.5978z"
				/>
		</g>
		<g>
			<path style="fill:#371F13;" d="M210.8966,463.4961l-5.7397,0.5554c-4.0201-3.9949-5.3002-11.3022-10.2563-6.7358
				c-4.8061,4.4282-5.4784,8.9602-5.4784,8.9602l-1.2569,6.6907l27.7312-1.8398l-2.7596-4.2117L210.8966,463.4961z"/>
			<path style="fill:#412C1D;" d="M211.4374,463.2353c-1.9246-1.1408-4.6555,2.5057-7.9999-1.4473
				c-3.3445-3.9529-3.1896-8.7924-9.0796-5.0672c-4.8893,3.0923-5.8408,6.3756-5.9987,9.6248
				c-0.0858,1.7671-1.3013,6.7519-1.3013,6.7519c-0.0084,0.501-0.145,1.2469,0.2231,1.3476c1.6592,0.4538,3.939-0.2177,5.403,0.0385
				c2.4198,0.4233,5.632,0.5773,8.0096-0.299c2.4927-0.9187,8.3972-0.1587,10.9573-0.7284
				c1.5711-0.3496,3.4817-1.2817,4.8029-1.3661c0.3688-0.0236,0.1792-1.0438-0.0728-1.4435
				C216.3811,470.6467,214.9263,465.3034,211.4374,463.2353z M189.8572,466.1875c0.1915-2.8536,0.4508-4.6825,5.9281-7.6175
				c5.5684-2.9839,1.6902-0.5355,7.7525,6.1245c3.0977,3.4032,5.6217-2.0593,6.6618-0.1793
				c0.3881,0.7015,1.8264,1.387,2.6708,2.4075c1.243,1.5023,1.9153,3.2867,1.9153,3.2867s-0.3466,0.4055-0.7213,0.5043
				c-1.0178,0.2686-1.7756,0.0393-3.1034,0.3958c-0.5745,0.1543-1.1671,0.1795-1.7636,0.0726
				c-1.8111-0.3247-4.2471-0.0008-5.7932,0.3059c-0.3931,0.078-2.7086,0.3856-3.3576,0.3466
				c-0.618-0.0371-1.704,0.5774-2.3224,0.4907c-1.6892-0.2367-4.5268,0.2591-5.902,0.1964
				c-1.4754-0.0673-3.3915,0.3476-3.3915,0.3476S189.7393,467.9452,189.8572,466.1875z"/>
		</g>
		<g>
			<path style="fill:#371F13;" d="M171.053,466.6581l4.6956,0.2251c2.7865-3.7972,2.9824-10.4507,7.5052-6.5696
				c4.3859,3.7636,5.4477,7.8197,5.4477,7.8197l1.7809,5.9753l-22.5901-0.3262l1.7445-3.9321L171.053,466.6581z"/>
			<path style="fill:#412C1D;" d="M167.4462,473.3724c-0.1575,0.3727-0.1937,1.3022,0.1066,1.3057
				c1.0759,0.0126,2.7246,0.7616,4.0325,1.0014c2.1313,0.3908,6.8092-0.5787,8.9261,0.1302
				c2.0191,0.6761,4.5938,0.3828,6.4981-0.1154c1.1521-0.3015,3.0688,0.1947,4.3559-0.2945
				c0.2855-0.1085,0.0898-0.7749,0.0256-1.2264c0,0-1.552-4.4384-1.8237-6.0284c-0.4996-2.9235-1.6437-5.8397-5.9437-8.3942
				c-5.1801-3.0773-4.5007,1.281-6.7468,5.0078s-4.8678,0.5686-6.2902,1.6903
				C168.0081,468.4822,167.4462,473.3724,167.4462,473.3724z M190.2573,474.0336c0,0-1.5938-0.2821-2.7768-0.1505
				c-1.1026,0.1227-3.4494-0.1881-4.7855,0.1066c-0.4891,0.1079-1.436-0.3942-1.9305-0.331
				c-0.5193,0.0663-2.4232-0.0998-2.7493-0.1512c-1.2829-0.2023-3.2858-0.3774-4.7103,0.0026
				c-0.4691,0.1251-0.9502,0.1309-1.4315,0.0193c-1.1125-0.2578-1.6976-0.0145-2.5499-0.2079
				c-0.3137-0.0712-0.6399-0.4203-0.6399-0.4203s0.3381-1.6421,1.1691-3.057c0.5645-0.9612,1.6467-1.6488,1.8795-2.3002
				c0.624-1.746,3.2867,3.0604,5.3967-0.1586c4.1293-6.2995,0.7191-8.3218,5.5547-5.8977c4.7565,2.3844,5.1753,4.0217,5.6568,6.5868
				C188.637,469.6543,190.2573,474.0336,190.2573,474.0336z"/>
		</g>
	</g>
</g>
<g>
	<path style="fill:#371F13;" d="M735.8044,676.3984l5.576,0.6863c3.2477-7.1249,3.3764-19.864,8.8043-12.1812
		c5.2636,7.4501,6.587,15.2801,6.587,15.2801l2.2066,11.5467l-26.8138-1.852L735.8044,676.3984z"/>
	<path style="fill:#412C1D;" d="M731.6288,689.0686c-0.1812,0.7056-0.2096,2.4847,0.1469,2.5078
		c1.277,0.0825,3.5809,0.7224,5.1368,1.253c2.5353,0.8647,8.0718-0.739,10.595,0.7343c2.4067,1.4053,5.4576,0.9831,7.7098,0.1317
		c1.3625-0.5151,3.3312,1.8427,4.851,0.9752c0.3371-0.1924,0.0945-1.4799,0.0113-2.3486c0,0-1.9111-8.5892-2.2584-11.6508
		c-0.6385-5.6292-2.0636-11.6975-7.2064-16.826c-6.1954-6.1781-5.3212,2.2102-7.9286,9.2296
		c-2.6075,7.0194-6.572-1.5767-7.4385,2.8973C734.7247,678.6721,731.6288,689.0686,731.6288,689.0686z M758.71,691.5745
		c0,0-1.8959-0.6272-3.2977-0.4392c-1.3066,0.1752-4.0965-0.5479-5.6774-0.0556c-0.5788,0.1802-1.7103-0.8333-2.2961-0.7391
		c-0.6152,0.0989-2.8773-0.3228-3.2651-0.4391c-1.5256-0.4573-3.9053-0.9016-5.5898-0.2508
		c-0.5547,0.2143-1.1255,0.1992-1.6985-0.0407c-1.3242-0.5544-2.0149-0.1199-3.0292-0.5368
		c-0.3734-0.1534-0.7659-0.8401-0.7659-0.8401s2.8765-7.0453,3.5344-10.1002c0.7133-3.3119,3.9481,6.0428,6.402-0.0109
		c4.8022-11.847,0.7236-15.9073,6.4999-10.9997c5.6819,4.8273,6.2045,7.9876,6.8159,12.929
		C756.7187,683.0948,758.71,691.5745,758.71,691.5745z"/>
</g>
<g>
	<path style="fill:#371F13;" d="M746.6227,681.4732c-0.701-2.5102-4.5069-4.9887-5.5675-6.9524
		c-1.8347-3.3969-2.168-9.6086-5.4644-18.0153c-4.567-11.647-10.9839-11.1692-16.6609-3.2595
		c-2.3005,3.2053-5.3298-0.7679-8.9028-0.2207c-12.0454,1.8448-10.3555,19.2767-10.3555,19.2767l-3.2208,18.9584l53.849,6.0535
		L746.6227,681.4732z"/>
	<path style="fill:#412C1D;" d="M745.9491,678.7169c-1.1649-4.0068-3.6813-3.6237-5.165-7.4185s-1.4945-12.8126-5.0593-18.2958
		c-12.4361-19.1293-13.908,3.1637-20.7052-0.8668c-8.5621-5.0771-14.9172,1.0385-16.1699,18.8184
		c-0.3606,5.1185-3.3159,19.117-3.3159,19.117c-0.0702,1.4584-0.4222,3.5737,0.3011,4.0346c3.261,2.078,7.0737-1.2043,9.9663,0.2079
		c4.7811,2.3345,10.0551,2.4429,16.0073,2.7643c5.2352,0.2827,16.7654,3.3497,21.9323,2.8493
		c3.1709-0.3071,4.4763-1.1265,7.1204-0.7728c0.738,0.0987,0.4687-2.9652,0.0088-4.2463
		C750.8701,694.9081,747.3552,683.5531,745.9491,678.7169z M700.0093,672.4046c2.0526-8.4558,0.4584-21.9278,13.3658-17.1317
		c12.2646,4.5573,8.0511-19.3364,20.2775,0.8788c6.2438,10.3235,3.8068,19.3633,7.1084,20.6084
		c5.1881,1.9567,5.2378,9.5959,7.2345,14.1766c0.3853,0.8838,1.3409,1.5972,1.188,4.0153c-0.1339,2.118-4.921,0.9639-7.6075,1.4017
		c-1.1624,0.1894-2.347-0.006-3.5253-0.5889c-3.5777-1.7702-8.4709-1.9308-11.5873-1.7376
		c-0.7924,0.0491-5.4436-0.1046-6.7339-0.5129c-1.2286-0.3889-3.413,0.3011-4.6371-0.2327
		c-3.3439-1.4578-9.1038-0.6887-11.84-1.4961c-2.9356-0.8663-6.8016-0.5253-6.8016-0.5253S698.9178,676.9009,700.0093,672.4046z"/>
</g>
<g>
	<path style="fill:#371F13;" d="M717.2885,679.7567l-6.5641-0.8439c-4.5908-9.9726-6.0432-26.0634-11.7176-18.0463
		c-5.5025,7.7744-6.2783,17.2347-6.2783,17.2347l-1.4476,13.8728l31.7132,5.8828L717.2885,679.7567z"/>
	<path style="fill:#412C1D;" d="M717.9073,679.39c-1.4874-5.9028-5.3273,3.7136-9.1456-5.93
		c-3.8182-9.6435-3.6337-19.9449-10.3746-14.0588c-5.5957,4.886-6.6722,12.0955-6.8578,18.9926
		c-0.1009,3.7512-1.4985,13.9882-1.4985,13.9882c-0.0104,1.0691-0.1677,2.617,0.253,2.9628
		c1.8967,1.5587,3.9985-0.8089,5.6721,0.2576c2.7664,1.7628,6.4393,3.2297,9.1594,2.1965c2.8517-1.0832,9.6024,2.634,12.5307,2.3214
		c1.7971-0.1918,4.4728-0.2921,5.9838-0.0048c0.4218,0.0802,0.2065-2.1701-0.081-3.1147
		C723.5488,697.0007,718.8049,682.9525,717.9073,679.39z M693.226,678.0659c0.2233-6.0388,0.5227-9.8607,6.7905-14.2021
		c6.3719-4.4136,1.9335-0.5474,8.8554,15.8515c3.5369,8.3796,6.4315-2.4162,7.6179,1.9754
		c1.0944,4.0507,5.2354,13.8093,5.2354,13.8093s-0.397,0.7449-0.8256,0.8239c-1.1643,0.2145-2.0304-0.5447-3.5494-0.2519
		c-0.6572,0.1267-1.3348-0.0291-2.0167-0.4692c-2.0705-1.3362-4.8566-1.5056-6.625-1.3968
		c-0.4496,0.0276-3.0979-0.1341-3.8399-0.4472c-0.7067-0.2982-1.9495,0.6322-2.6565,0.2277
		c-1.9312-1.1046-5.1767-1.0485-6.7491-1.6696c-1.6871-0.6664-3.8787-0.4571-3.8787-0.4571S693.0884,681.7855,693.226,678.0659z"/>
</g>
<g>
	<polygon style="fill:#464A48;" points="844.8929,465.8273 832.3119,474.3177 809.6001,376.8935 762.1907,345.2696 
		771.3758,338.3253 793.5396,342.2564 793.2102,319.0898 805.1242,313.5112 842.9647,319.3839 842.9647,349.9759 872.7377,355.2108 
		873.0377,394.5907 862.9266,402.1689 844.7186,396.3193 	"/>
	<polygon style="fill:#7C7F81;stroke:#626363;stroke-width:10;stroke-miterlimit:10;" points="828.191,467.8027 797.6675,462.4688 
		797.6675,384.4955 767.1008,379.122 767.1008,351.4546 797.6675,356.9675 797.6675,325.6842 829.191,330.1969 829.191,362.9035 
		857.099,367.7778 857.3813,396.1721 828.0461,390.4784 	"/>
</g>
<polygon style="fill:#35421C;" points="852.7231,479.5113 778.5146,468.8306 783.7286,452.2799 787.4476,444.2998 785.9922,457.537 
	791.0978,444.9592 789.3105,458.1366 792.6097,450.1846 793.6777,459.4002 795.8152,453.5712 796.7845,458.0617 801.3102,452.7264 
	801.1061,458.0413 807.3426,445.0808 804.0926,458.5808 807.097,454.7517 810.2134,459.6866 811.5956,447.5495 813.0516,460.1996 
	814.5101,454.1412 816.7106,457.946 821.6523,450.6672 822.0198,458.9051 825.9667,443.6529 826.3334,459.6845 830.9186,450.3118 
	830.569,460.4497 836.233,443.0141 835.9562,461.4231 838.4778,450.9491 840.423,462.2303 842.2209,452.9834 845.4465,458.7826 
	845.1028,447.4411 850.2245,464.0011 "/>
</svg>
