<?xml version="1.0" encoding="utf-8"?>
<!-- Generator: Adobe Illustrator 26.5.1, SVG Export Plug-In . SVG Version: 6.00 Build 0)  -->
<svg version="1.1" id="Layer_1" xmlns="http://www.w3.org/2000/svg" xmlns:xlink="http://www.w3.org/1999/xlink" x="0px" y="0px"
	 viewBox="0 0 896 720" style="enable-background:new 0 0 896 720;" xml:space="preserve">
<path style="fill:#4A512B;stroke:#414230;stroke-width:3;stroke-miterlimit:10;" d="M857.6485,412.5631
	c3.7397-62.5273-152.6201-128.6557-306.0078-137.8295s-322.6626,29.5783-326.4023,92.1057
	c-3.7397,62.5273,159.4722,125.152,312.8598,134.3258S853.9089,475.0904,857.6485,412.5631z"/>
<g>
	<g>
		<path style="fill:#1E1E1E;" d="M220.0625,335.2685c48.0825-25.3844,104.4624-46.652,169.6665-58.2496
			c-0.0316,0.2092-0.063,0.4184-0.0946,0.6276c-65.0486,11.5385-121.3079,32.713-169.3039,57.9929
			C220.2412,335.5157,220.1519,335.3921,220.0625,335.2685z"/>
		<path style="fill:#1E1E1E;" d="M213.0636,325.9167c49.1191-27.0393,106.8068-49.7181,173.509-62.4931
			c0.0392,0.1833,0.0783,0.3666,0.1173,0.55c-66.6358,12.7226-124.2681,35.3387-173.3452,62.3068
			C213.2511,326.1591,213.1574,326.0379,213.0636,325.9167z"/>
		<path style="fill:#1E1E1E;" d="M211.81,324.122c49.3336-27.3632,107.2959-50.3168,174.3169-63.3121
			c0.04,0.1829,0.08,0.3658,0.1199,0.5487c-66.9549,12.9426-124.862,35.8333-174.154,63.1248
			C211.9986,324.3629,211.9043,324.2424,211.81,324.122z"/>
		<path style="fill:#1E1E1E;" d="M216.241,320.3102c0.2452-0.132,0.4906-0.2638,0.7363-0.3956
			c3.7473,4.9474,7.3905,10.0232,10.9253,15.2238c-0.2369,0.118-0.4737,0.2361-0.7102,0.3542
			C223.6485,330.3056,219.9967,325.2435,216.241,320.3102z"/>
		<path style="fill:#1E1E1E;" d="M220.5295,318.0248c0.2476-0.1306,0.4953-0.2611,0.7433-0.3914
			c3.6981,5.0284,7.2905,10.1839,10.7729,15.4631c-0.2391,0.1167-0.4781,0.2334-0.7168,0.3503
			C227.8374,328.1811,224.2362,323.0393,220.5295,318.0248z"/>
		<path style="fill:#1E1E1E;" d="M225.0278,315.6763c0.25-0.1292,0.5002-0.2582,0.7505-0.3871
			c3.6461,5.112,7.1848,10.3498,10.6119,15.7097c-0.2414,0.1153-0.4826,0.2307-0.7236,0.3463
			C232.2303,325.9986,228.6826,320.7744,225.0278,315.6763z"/>
		<path style="fill:#1E1E1E;" d="M229.5701,313.3546c0.2524-0.1277,0.505-0.2551,0.7578-0.3825
			c3.5931,5.1949,7.0772,10.5143,10.4482,15.9546c-0.2437,0.1139-0.4872,0.228-0.7305,0.342
			C236.6653,323.8417,233.1721,318.5358,229.5701,313.3546z"/>
		<path style="fill:#1E1E1E;" d="M234.0802,311.0984c0.2548-0.1261,0.5099-0.2521,0.7651-0.3779
			c3.5401,5.276,6.9696,10.675,10.2844,16.1936c-0.2459,0.1125-0.4917,0.2251-0.7373,0.3377
			C241.0681,321.7464,237.6294,316.3607,234.0802,311.0984z"/>
		<path style="fill:#1E1E1E;" d="M238.7105,308.8323c0.2573-0.1245,0.5148-0.2489,0.7725-0.3732
			c3.4853,5.3577,6.8584,10.8372,10.1152,16.4348c-0.2483,0.1109-0.4963,0.222-0.7442,0.3333
			C245.5875,319.6427,242.205,314.1764,238.7105,308.8323z"/>
		<path style="fill:#1E1E1E;" d="M243.3853,306.5952c0.2598-0.1229,0.5197-0.2456,0.7799-0.3682
			c3.4296,5.4388,6.7454,10.998,9.9434,16.674c-0.2506,0.1094-0.501,0.219-0.7512,0.3287
			C250.1496,317.5667,246.8242,312.0206,243.3853,306.5952z"/>
		<path style="fill:#1E1E1E;" d="M248.1049,304.3881c0.2622-0.1212,0.5247-0.2423,0.7873-0.3632
			c3.373,5.5194,6.6306,11.1577,9.7688,16.9114c-0.253,0.1079-0.5056,0.2159-0.7582,0.324
			C254.7547,315.5194,251.4874,309.8941,248.1049,304.3881z"/>
		<path style="fill:#1E1E1E;" d="M211.9931,322.6192c0.2429-0.1333,0.486-0.2666,0.7293-0.3997
			c3.7957,4.8658,7.4888,9.8612,11.0751,14.9829c-0.2347,0.1191-0.4693,0.2385-0.7038,0.3579
			C219.4986,332.4524,215.797,327.4709,211.9931,322.6192z"/>
		<path style="fill:#1E1E1E;" d="M257.4385,300.1725c0.2671-0.1178,0.5344-0.2355,0.8019-0.353
			c3.2599,5.6746,6.4015,11.4655,9.4207,17.3687c-0.2575,0.1047-0.5148,0.2095-0.7719,0.3145
			C263.8597,311.6119,260.7082,305.8339,257.4385,300.1725z"/>
		<path style="fill:#1E1E1E;" d="M262.291,298.0579c0.2696-0.116,0.5394-0.2319,0.8094-0.3476
			c3.2007,5.7533,6.2814,11.6213,9.2383,17.6005c-0.2599,0.103-0.5195,0.2061-0.779,0.3093
			C268.5925,309.6535,265.5016,303.7981,262.291,298.0579z"/>
		<path style="fill:#1E1E1E;" d="M267.1888,295.9763c0.2721-0.1142,0.5444-0.2282,0.817-0.3421
			c3.1405,5.8312,6.1595,11.7759,9.0532,17.8302c-0.2622,0.1012-0.5242,0.2026-0.786,0.3041
			C273.3687,307.7267,270.3394,301.7947,267.1888,295.9763z"/>
		<path style="fill:#1E1E1E;" d="M272.132,293.9284c0.2746-0.1123,0.5494-0.2244,0.8245-0.3364
			c3.0794,5.9086,6.0359,11.9293,8.8655,18.058c-0.2646,0.0994-0.529,0.199-0.7932,0.2988
			C278.1885,305.8322,275.2216,299.8242,272.132,293.9284z"/>
		<path style="fill:#1E1E1E;" d="M277.0376,291.9481c0.2771-0.1104,0.5544-0.2206,0.8319-0.3307
			c3.0185,5.9841,5.9126,12.0788,8.6784,18.28c-0.2669,0.0977-0.5336,0.1955-0.8002,0.2934
			C282.9711,304.0017,280.0665,297.9195,277.0376,291.9481z"/>
		<path style="fill:#1E1E1E;" d="M282.0711,289.9695c0.2797-0.1084,0.5595-0.2167,0.8395-0.3248
			c2.9557,6.0602,5.7855,12.2295,8.4856,18.5039c-0.2693,0.0958-0.5384,0.1917-0.8073,0.2878
			C287.8779,302.174,285.0374,296.0171,282.0711,289.9695z"/>
		<path style="fill:#1E1E1E;" d="M287.1504,288.027c0.2822-0.1064,0.5645-0.2126,0.8471-0.3187
			c2.8921,6.1357,5.6566,12.3789,8.2901,18.7257c-0.2716,0.0939-0.5432,0.1879-0.8145,0.282
			C292.8286,300.3812,290.0531,294.1502,287.1504,288.027z"/>
		<path style="fill:#1E1E1E;" d="M292.2754,286.1215c0.2847-0.1043,0.5696-0.2085,0.8547-0.3125
			c2.8275,6.2104,5.5261,12.5269,8.0921,18.9456c-0.2741,0.0919-0.5479,0.1839-0.8216,0.2762
			C297.8232,298.624,295.1136,292.3195,292.2754,286.1215z"/>
		<path style="fill:#1E1E1E;" d="M252.8105,302.2382c0.2647-0.1195,0.5296-0.2389,0.7947-0.3582
			c3.3162,5.5983,6.5154,11.3142,9.5938,17.1439c-0.2552,0.1063-0.5103,0.2127-0.7651,0.3192
			C259.3454,313.5261,256.1363,307.8232,252.8105,302.2382z"/>
		<path style="fill:#1E1E1E;" d="M302.6299,282.4362c0.2897-0.1001,0.5797-0.2,0.8698-0.2997
			c2.6963,6.3575,5.2607,12.8182,7.6899,19.3779c-0.2789,0.0878-0.5576,0.1758-0.836,0.264
			C307.913,295.2303,305.3373,288.7816,302.6299,282.4362z"/>
		<path style="fill:#1E1E1E;" d="M307.8922,280.6465c0.2923-0.0979,0.5848-0.1955,0.8775-0.293
			c2.6291,6.4303,5.1251,12.9622,7.4843,19.5917c-0.2813,0.0857-0.5623,0.1716-0.8432,0.2577
			C313.04,293.5849,310.5327,287.0647,307.8922,280.6465z"/>
		<path style="fill:#1E1E1E;" d="M313.2005,278.8971c0.2948-0.0956,0.5899-0.191,0.8851-0.2863
			c2.5612,6.5024,4.9878,13.1049,7.2762,19.8034c-0.2837,0.0836-0.5671,0.1673-0.8504,0.2513
			C318.2112,291.9784,315.773,285.3875,313.2005,278.8971z"/>
		<path style="fill:#1E1E1E;" d="M318.3535,277.2521c0.2973-0.0934,0.5948-0.1866,0.8924-0.2796
			c2.4799,6.2654,4.8318,12.6247,7.0525,19.0741c-0.2867,0.0818-0.573,0.1638-0.8592,0.246
			C323.2072,289.8542,320.8443,283.506,318.3535,277.2521z"/>
		<path style="fill:#1E1E1E;" d="M323.6256,274.6889c0.3004-0.0914,0.601-0.1827,0.9018-0.2738
			c2.4346,6.6361,4.732,13.3695,6.8887,20.1959c-0.289,0.0796-0.5778,0.1594-0.8663,0.2394
			C328.381,288.0352,326.0718,281.3133,323.6256,274.6889z"/>
		<path style="fill:#1E1E1E;" d="M329.0804,273.0568c0.3029-0.0891,0.6061-0.1779,0.9094-0.2665
			c2.3643,6.7063,4.59,13.5083,6.6736,20.4018c-0.2914,0.0773-0.5826,0.1548-0.8736,0.2325
			C333.694,286.5422,331.4564,279.7515,329.0804,273.0568z"/>
		<path style="fill:#1E1E1E;" d="M334.5813,271.4687c0.3055-0.0866,0.6112-0.173,0.917-0.2592
			c2.2931,6.7758,4.4463,13.6458,6.456,20.6057c-0.2938,0.075-0.5873,0.1501-0.8808,0.2255
			C339.0514,285.0918,336.8862,278.233,334.5813,271.4687z"/>
		<path style="fill:#1E1E1E;" d="M340.1281,269.9255c0.308-0.0841,0.6163-0.1679,0.9247-0.2516
			c2.2211,6.8446,4.3009,13.7819,6.236,20.8074c-0.2962,0.0725-0.5923,0.1453-0.888,0.2183
			C344.4532,283.6848,342.3612,276.7587,340.1281,269.9255z"/>
		<path style="fill:#1E1E1E;" d="M297.6082,284.1962c0.2873-0.1022,0.5747-0.2042,0.8625-0.3059
			c2.7601,6.2868,5.3897,12.6782,7.8854,19.1702c-0.2766,0.0898-0.5529,0.1797-0.8291,0.2699
			C303.0199,296.8502,300.3791,290.4708,297.6082,284.1962z"/>
		<path style="fill:#1E1E1E;" d="M351.078,267.0484c0.313-0.079,0.6262-0.1579,0.9395-0.2365
			c2.0784,6.9768,4.0127,14.0432,5.8,21.1947c-0.3009,0.0677-0.6016,0.1357-0.9021,0.2039
			C355.1155,281.0696,353.1686,274.0142,351.078,267.0484z"/>
		<path style="fill:#1E1E1E;" d="M356.7604,265.643c0.3155-0.0764,0.6312-0.1526,0.9472-0.2285
			c2.0039,7.0436,3.8626,14.1751,5.5728,21.3901c-0.3033,0.0652-0.6064,0.1306-0.9093,0.1962
			C360.648,279.7963,358.7767,272.6756,356.7604,265.643z"/>
		<path style="fill:#1E1E1E;" d="M362.7039,264.2362c0.3181-0.0735,0.6365-0.1469,0.955-0.22
			c1.9258,7.1122,3.7051,14.3105,5.3347,21.5906c-0.3058,0.0625-0.6114,0.1252-0.9167,0.1881
			C366.4344,278.5251,364.6423,271.3375,362.7039,264.2362z"/>
		<path style="fill:#1E1E1E;" d="M368.6965,262.8828c0.3208-0.0707,0.6418-0.1412,0.9629-0.2114
			c1.8469,7.1799,3.546,14.4443,5.094,21.7888c-0.3083,0.0598-0.6163,0.1197-0.9242,0.1799
			C372.2682,277.3058,370.5562,270.0518,368.6965,262.8828z"/>
		<path style="fill:#1E1E1E;" d="M374.4226,261.6499c0.3232-0.068,0.6467-0.1357,0.9703-0.2031
			c1.7714,7.2433,3.3937,14.5696,4.8636,21.9745c-0.3107,0.0571-0.6211,0.1144-0.9313,0.1719
			C377.842,276.1985,376.2067,268.8826,374.4226,261.6499z"/>
		<path style="fill:#1E1E1E;" d="M380.9789,260.0057c0.3262-0.0649,0.6527-0.1295,0.9793-0.1938
			c1.4178,7.2832,2.6983,14.6379,3.8391,22.0604c-0.3134,0.0545-0.6266,0.1093-0.9394,0.1643
			C383.7036,274.6238,382.4098,267.2789,380.9789,260.0057z"/>
		<path style="fill:#1E1E1E;" d="M345.6519,268.4462c0.3105-0.0815,0.6212-0.1629,0.9322-0.244
			c2.1491,6.9119,4.1557,13.9149,6.0163,21.0045c-0.2986,0.0701-0.597,0.1405-0.8952,0.2111
			C349.8321,282.3388,347.8133,275.3469,345.6519,268.4462z"/>
		<path style="fill:#1E1E1E;" d="M212.9955,322.0702c-0.4321,0.2361-0.8636,0.4726-1.2944,0.7094
			c0.0021-0.3899,0.0045-0.7801,0.0071-1.1703C212.1379,321.7617,212.567,321.9154,212.9955,322.0702z"/>
		<path style="fill:#1E1E1E;" d="M217.2628,319.7616c-0.4363,0.2337-0.8719,0.4677-1.3068,0.7022
			c0.0069-0.3933,0.014-0.7868,0.0214-1.1805C216.4065,319.4415,216.8349,319.601,217.2628,319.7616z"/>
		<path style="fill:#1E1E1E;" d="M221.5611,317.4819c-0.4403,0.2312-0.8801,0.4629-1.3192,0.6948
			c0.0117-0.3966,0.0237-0.7934,0.0358-1.1905C220.7061,317.1502,221.1339,317.3155,221.5611,317.4819z"/>
		<path style="fill:#1E1E1E;" d="M235.1373,310.5766c-0.4533,0.2232-0.906,0.4468-1.358,0.6708
			c0.027-0.4065,0.0542-0.8133,0.0817-1.2202C234.2871,310.2092,234.7125,310.3923,235.1373,310.5766z"/>
		<path style="fill:#1E1E1E;" d="M226.0695,315.1394c-0.4447,0.2286-0.8888,0.4577-1.3322,0.687
			c0.0168-0.4001,0.0338-0.8002,0.051-1.2007C225.216,314.7958,225.643,314.967,226.0695,315.1394z"/>
		<path style="fill:#1E1E1E;" d="M230.5817,312.8444c-0.449,0.226-0.8974,0.4523-1.3451,0.679
			c0.0218-0.4033,0.0439-0.8069,0.0662-1.2106C229.7297,312.4888,230.156,312.666,230.5817,312.8444z"/>
		<path style="fill:#1E1E1E;" d="M239.7826,308.3147c-0.4577,0.2204-0.9147,0.4411-1.3711,0.6624
			c0.0322-0.4098,0.0647-0.8197,0.0974-1.2298C238.9341,307.9353,239.3587,308.1244,239.7826,308.3147z"/>
		<path style="fill:#1E1E1E;" d="M244.4677,306.0845c-0.4621,0.2175-0.9235,0.4353-1.3843,0.6536
			c0.0375-0.4128,0.0753-0.8259,0.1134-1.2391C243.6211,305.6931,244.0448,305.8882,244.4677,306.0845z"/>
		<path style="fill:#1E1E1E;" d="M249.1976,303.8843c-0.4665,0.2144-0.9323,0.4294-1.3975,0.6447
			c0.0429-0.4159,0.086-0.8319,0.1294-1.2482C248.353,303.4809,248.7757,303.6821,249.1976,303.8843z"/>
		<path style="fill:#1E1E1E;" d="M253.9135,301.7415c-0.4708,0.2115-0.941,0.4233-1.4106,0.6357
			c0.0482-0.4188,0.0967-0.8378,0.1455-1.257C253.0707,301.3261,253.4925,301.5332,253.9135,301.7415z"/>
		<path style="fill:#1E1E1E;" d="M258.5515,299.6829c-0.4752,0.2084-0.9496,0.4173-1.4234,0.6266
			c0.0535-0.4216,0.1072-0.8434,0.1613-1.2653C257.7108,299.2559,258.1315,299.4688,258.5515,299.6829z"/>
		<path style="fill:#1E1E1E;" d="M263.4144,297.5758c-0.4796,0.2052-0.9585,0.4109-1.4367,0.617
			c0.059-0.4244,0.1183-0.849,0.1779-1.2737C262.5759,297.1368,262.9955,297.3558,263.4144,297.5758z"/>
		<path style="fill:#1E1E1E;" d="M268.3226,295.5019c-0.484,0.2019-0.9673,0.4043-1.45,0.6072
			c0.0646-0.4272,0.1295-0.8545,0.1947-1.282C267.4865,295.0509,267.9049,295.2758,268.3226,295.5019z"/>
		<path style="fill:#1E1E1E;" d="M273.2763,293.4618c-0.4885,0.1985-0.9763,0.3977-1.4634,0.5972
			c0.0703-0.4299,0.1408-0.8599,0.2116-1.29C272.4424,292.9988,272.8598,293.2298,273.2763,293.4618z"/>
		<path style="fill:#1E1E1E;" d="M278.1922,291.4895c-0.4929,0.1951-0.9851,0.3908-1.4767,0.587
			c0.0758-0.4323,0.152-0.8649,0.2284-1.2976C277.3608,291.0146,277.7769,291.2515,278.1922,291.4895z"/>
		<path style="fill:#1E1E1E;" d="M283.2363,289.5191c-0.4973,0.1917-0.994,0.3838-1.4901,0.5765
			c0.0816-0.4349,0.1635-0.87,0.2457-1.3052C282.4074,289.0322,282.8222,289.2751,283.2363,289.5191z"/>
		<path style="fill:#1E1E1E;" d="M288.326,287.5851c-0.5018,0.188-1.003,0.3766-1.5035,0.5657
			c0.0874-0.4374,0.1751-0.8749,0.2631-1.3125C287.4998,287.0862,287.9134,287.3351,288.326,287.5851z"/>
		<path style="fill:#1E1E1E;" d="M293.4616,285.6882c-0.5063,0.1844-1.012,0.3692-1.517,0.5547
			c0.0933-0.4397,0.1868-0.8795,0.2806-1.3196C292.6382,285.1772,293.0502,285.4322,293.4616,285.6882z"/>
		<path style="fill:#1E1E1E;" d="M298.8319,283.8628c-0.5109,0.1804-1.0211,0.3613-1.5306,0.5428
			c0.0993-0.4421,0.199-0.8843,0.299-1.3266C298.0115,283.3391,298.4221,283.6004,298.8319,283.8628z"/>
		<path style="fill:#1E1E1E;" d="M303.8372,282.0207c-0.5153,0.1767-1.03,0.3541-1.544,0.532
			c0.105-0.4442,0.2104-0.8886,0.3162-1.3331C303.0194,281.4856,303.4287,281.7526,303.8372,282.0207z"/>
		<path style="fill:#1E1E1E;" d="M309.1462,280.3289c-0.5197,0.1727-1.0389,0.346-1.5573,0.5198
			c0.1111-0.4463,0.2225-0.8928,0.3342-1.3394C308.3316,279.7815,308.7394,280.0547,309.1462,280.3289z"/>
		<path style="fill:#1E1E1E;" d="M314.4289,278.5002c-0.5244,0.1688-1.048,0.3381-1.571,0.5081
			c0.1172-0.4484,0.2346-0.8969,0.3523-1.3455C313.6172,277.9409,314.0235,278.22,314.4289,278.5002z"/>
		<path style="fill:#1E1E1E;" d="M319.5921,276.8644c-0.5286,0.1649-1.0567,0.3303-1.584,0.4963
			c0.123-0.4503,0.2463-0.9007,0.3699-1.3512C318.7835,276.2935,319.1881,276.5784,319.5921,276.8644z"/>
		<path style="fill:#1E1E1E;" d="M235.1373,310.5766c-0.4533,0.2232-0.906,0.4468-1.358,0.6708
			c0.027-0.4065,0.0542-0.8133,0.0817-1.2202C234.2871,310.2092,234.7125,310.3923,235.1373,310.5766z"/>
		<path style="fill:#1E1E1E;" d="M324.8772,274.3094c-0.5342,0.1613-1.0677,0.3233-1.6006,0.4859
			c0.1291-0.4522,0.2586-0.9045,0.3883-1.357C324.0698,273.7276,324.4739,274.018,324.8772,274.3094z"/>
		<path style="fill:#1E1E1E;" d="M330.3531,272.6842c-0.5387,0.1571-1.0768,0.3147-1.6142,0.4731
			c0.1353-0.454,0.271-0.9082,0.407-1.3624C329.5492,272.0903,329.9516,272.3868,330.3531,272.6842z"/>
		<path style="fill:#1E1E1E;" d="M235.1373,310.5766c-0.4533,0.2232-0.906,0.4468-1.358,0.6708
			c0.027-0.4065,0.0542-0.8133,0.0817-1.2202C234.2871,310.2092,234.7125,310.3923,235.1373,310.5766z"/>
		<path style="fill:#1E1E1E;" d="M335.854,271.1095c-0.5433,0.1527-1.0858,0.306-1.6278,0.46
			c0.1416-0.4557,0.2835-0.9116,0.4257-1.3676C335.0535,270.5034,335.4542,270.8059,335.854,271.1095z"/>
		<path style="fill:#1E1E1E;" d="M341.4115,269.5767c-0.5478,0.1482-1.0949,0.2971-1.6413,0.4466
			c0.1479-0.4574,0.2961-0.9149,0.4445-1.3724C340.6145,268.9584,341.0133,269.2671,341.4115,269.5767z"/>
		<path style="fill:#1E1E1E;" d="M346.9457,268.1079c-0.5522,0.1437-1.1038,0.2881-1.6547,0.4332
			c0.1541-0.459,0.3085-0.9179,0.4632-1.3771C346.1522,267.4777,346.5494,267.7923,346.9457,268.1079z"/>
		<path style="fill:#1E1E1E;" d="M352.382,266.7207c-0.5565,0.1392-1.1125,0.2791-1.6676,0.4197
			c0.1602-0.4603,0.3207-0.9208,0.4816-1.3813C351.5922,266.0786,351.9875,266.3991,352.382,266.7207z"/>
		<path style="fill:#1E1E1E;" d="M358.0749,265.3263c-0.561,0.1345-1.1215,0.2697-1.6812,0.4056
			c0.1667-0.4618,0.3336-0.9236,0.5009-1.3855C357.2889,264.672,357.6824,264.9987,358.0749,265.3263z"/>
		<path style="fill:#1E1E1E;" d="M364.0293,263.9313c-0.5658,0.1295-1.1308,0.2596-1.6952,0.3906
			c0.1733-0.4631,0.347-0.9263,0.521-1.3896C363.2474,263.2643,363.6388,263.5973,364.0293,263.9313z"/>
		<path style="fill:#1E1E1E;" d="M235.1373,310.5766c-0.4533,0.2232-0.906,0.4468-1.358,0.6708
			c0.027-0.4065,0.0542-0.8133,0.0817-1.2202C234.2871,310.2092,234.7125,310.3923,235.1373,310.5766z"/>
		<path style="fill:#1E1E1E;" d="M370.0329,262.5898c-0.5703,0.1244-1.14,0.2495-1.7091,0.3753
			c0.1801-0.4644,0.3604-0.9288,0.5411-1.3934C369.2551,261.9101,369.6445,262.2495,370.0329,262.5898z"/>
		<path style="fill:#1E1E1E;" d="M375.7692,261.3685c-0.5748,0.1194-1.1489,0.2396-1.7223,0.3605
			c0.1865-0.4655,0.3733-0.931,0.5605-1.3966C374.9956,260.6768,375.3829,261.0222,375.7692,261.3685z"/>
		<path style="fill:#1E1E1E;" d="M382.3381,259.7372c-0.5801,0.1139-1.1595,0.2286-1.7383,0.344
			c0.1938-0.4666,0.388-0.9334,0.5825-1.4001C381.5685,259.0322,381.9538,259.3842,382.3381,259.7372z"/>
	</g>
</g>
<g>
	<g>
		<path style="fill:#1E1E1E;" d="M616.7988,277.6745c78.4857,10.837,149.5946,37.0412,209.7903,73.5552
			c-0.0956,0.155-0.1915,0.3101-0.2869,0.4651c-60.1472-36.4804-131.2029-62.6589-209.6331-73.4781
			C616.7123,278.036,616.7555,277.8553,616.7988,277.6745z"/>
		<path style="fill:#1E1E1E;" d="M620.0475,263.2914c79.9374,11.4296,152.3853,38.4246,213.7703,75.9092
			c-0.1,0.1558-0.2,0.3116-0.2999,0.4675c-61.3361-37.4495-133.7306-64.4175-213.6118-75.8278
			C619.9532,263.6573,620.0003,263.4744,620.0475,263.2914z"/>
		<path style="fill:#1E1E1E;" d="M620.0681,260.5847c80.5276,11.4334,153.525,38.5942,215.3699,76.3598
			c-0.117,0.1858-0.2338,0.3716-0.3507,0.5574c-61.6312-37.6638-134.3666-64.7857-214.6135-76.274
			C620.3387,261.0135,620.2035,260.7991,620.0681,260.5847z"/>
		<path style="fill:#1E1E1E;" d="M629.8354,260.9293c0.3897,0.0613,0.7791,0.1231,1.1686,0.1851
			c-2.0318,7.3345-3.957,14.6763-5.7755,22.0227c-0.3784-0.0583-0.7568-0.1162-1.1355-0.1737
			C625.9006,275.6133,627.8148,268.2678,629.8354,260.9293z"/>
		<path style="fill:#1E1E1E;" d="M636.6011,262.0341c0.3876,0.0656,0.7751,0.1315,1.1624,0.1978
			c-2.0956,7.3113-4.0847,14.6307-5.9673,21.9559c-0.3763-0.0624-0.7527-0.1245-1.1293-0.1863
			C632.5383,276.6726,634.5165,269.3494,636.6011,262.0341z"/>
		<path style="fill:#1E1E1E;" d="M643.5911,263.2599c0.3854,0.0699,0.7707,0.1403,1.1558,0.211
			c-2.1619,7.2865-4.2173,14.5822-6.1663,21.8847c-0.3741-0.0667-0.7485-0.1331-1.1229-0.1991
			C639.3958,277.8502,641.4402,270.5505,643.5911,263.2599z"/>
		<path style="fill:#1E1E1E;" d="M650.5411,264.5646c0.3832,0.0743,0.7663,0.149,1.1492,0.224
			c-2.2279,7.2612-4.3495,14.5326-6.3645,21.8119c-0.3719-0.0709-0.744-0.1415-1.1163-0.2118
			C646.2136,279.1055,648.3241,271.83,650.5411,264.5646z"/>
		<path style="fill:#1E1E1E;" d="M657.3361,265.9237c0.381,0.0785,0.762,0.1574,1.1425,0.2367
			c-2.2925,7.2357-4.4788,14.4828-6.5588,21.7386c-0.3697-0.0751-0.7396-0.1498-1.1097-0.2242
			C652.8791,280.415,655.0545,273.1638,657.3361,265.9237z"/>
		<path style="fill:#1E1E1E;" d="M664.2048,267.3825c0.3786,0.0828,0.7573,0.166,1.1355,0.2494
			c-2.3582,7.2094-4.6101,14.431-6.7557,21.6626c-0.3674-0.0792-0.7351-0.1582-1.1029-0.2367
			C659.6165,281.8221,661.8575,274.5963,664.2048,267.3825z"/>
		<path style="fill:#1E1E1E;" d="M671.0316,268.9178c0.3764,0.0871,0.7525,0.1744,1.1285,0.2621
			c-2.4235,7.1824-4.7408,14.3781-6.9521,21.5847c-0.3651-0.0834-0.7305-0.1663-1.0959-0.249
			C666.3124,283.3047,668.6189,276.1047,671.0316,268.9178z"/>
		<path style="fill:#1E1E1E;" d="M677.8157,270.5289c0.374,0.0912,0.7477,0.1827,1.1213,0.2746
			c-2.4886,7.1549-4.8712,14.3241-7.1477,21.5053c-0.3629-0.0874-0.7258-0.1745-1.089-0.2613
			C672.966,284.862,675.3378,277.6884,677.8157,270.5289z"/>
		<path style="fill:#1E1E1E;" d="M623.0342,259.8991c0.3917,0.057,0.7834,0.1144,1.1748,0.1722
			c-1.9677,7.3573-3.8286,14.7208-5.5829,22.0881c-0.3804-0.0541-0.7609-0.1078-1.1415-0.1611
			C619.2278,274.6275,621.0776,267.2603,623.0342,259.8991z"/>
		<path style="fill:#1E1E1E;" d="M690.9213,273.8859c0.3693,0.0992,0.7384,0.1987,1.1072,0.2985
			c-2.6148,7.0995-5.124,14.2155-7.5273,21.3456c-0.358-0.0953-0.7163-0.1902-1.075-0.2847
			C685.8187,288.1107,688.3171,280.9902,690.9213,273.8859z"/>
		<path style="fill:#1E1E1E;" d="M697.576,275.7159c0.3668,0.1032,0.7334,0.2068,1.0997,0.3107
			c-2.6793,7.0703-5.2529,14.1582-7.7209,21.2612c-0.3558-0.0992-0.7115-0.198-1.0676-0.2965
			C692.3445,289.8838,694.9075,282.7912,697.576,275.7159z"/>
		<path style="fill:#1E1E1E;" d="M704.1857,277.6187c0.3643,0.1072,0.7283,0.2148,1.0923,0.3227
			c-2.7434,7.0407-5.3812,14.0999-7.9138,21.1752c-0.3533-0.1031-0.7066-0.2058-1.0603-0.3083
			C698.8256,291.7283,701.453,284.6643,704.1857,277.6187z"/>
		<path style="fill:#1E1E1E;" d="M710.7499,279.5934c0.3616,0.1112,0.7233,0.2227,1.0845,0.3345
			c-2.8073,7.0104-5.5094,14.0404-8.106,21.0875c-0.3508-0.1069-0.7015-0.2135-1.0527-0.3199
			C705.2618,293.6437,707.9532,286.6088,710.7499,279.5934z"/>
		<path style="fill:#1E1E1E;" d="M717.1601,281.6047c0.3591,0.115,0.7182,0.2304,1.0769,0.3461
			c-2.87,6.98-5.6349,13.9807-8.2943,20.9996c-0.3483-0.1107-0.6965-0.221-1.0453-0.3311
			C711.5464,295.5956,714.3007,288.59,717.1601,281.6047z"/>
		<path style="fill:#1E1E1E;" d="M723.6319,283.7198c0.3566,0.1189,0.713,0.2382,1.0692,0.3577
			c-2.9332,6.9487-5.7617,13.919-8.485,20.9086c-0.3457-0.1145-0.6915-0.2286-1.0375-0.3425
			C717.8911,297.6491,720.7092,290.6737,723.6319,283.7198z"/>
		<path style="fill:#1E1E1E;" d="M730.0564,285.9045c0.354,0.1228,0.7078,0.2458,1.0612,0.3691
			c-2.9965,6.9168-5.8882,13.8562-8.675,20.8159c-0.3431-0.1182-0.6863-0.236-1.0297-0.3536
			C724.1891,299.7712,727.0704,292.8266,730.0564,285.9045z"/>
		<path style="fill:#1E1E1E;" d="M736.433,288.158c0.3514,0.1266,0.7023,0.2534,1.0532,0.3805
			c-3.0594,6.8843-6.0143,13.7923-8.8643,20.7216c-0.3405-0.1218-0.6809-0.2434-1.0219-0.3647
			C730.4396,301.961,733.384,295.0477,736.433,288.158z"/>
		<path style="fill:#1E1E1E;" d="M684.4738,272.1937c0.3715,0.0953,0.743,0.1909,1.1142,0.2868
			c-2.5526,7.1271-4.9995,14.2697-7.3402,21.4252c-0.3605-0.0913-0.7211-0.1825-1.0818-0.2732
			C679.496,286.4726,681.932,279.3256,684.4738,272.1937z"/>
		<path style="fill:#1E1E1E;" d="M749.0008,292.8533c0.3459,0.134,0.6915,0.2682,1.037,0.4027
			c-3.184,6.8178-6.2639,13.6614-9.2393,20.5285c-0.3351-0.1291-0.6703-0.2579-1.0059-0.3864
			C742.7577,306.5258,745.8271,299.6768,749.0008,292.8533z"/>
		<path style="fill:#1E1E1E;" d="M755.2307,295.3083c0.3433,0.1376,0.686,0.2755,1.0287,0.4137
			c-3.246,6.7837-6.3882,13.5942-9.4261,20.4292c-0.3323-0.1327-0.665-0.265-0.9977-0.3971
			C748.863,308.9137,751.9947,302.0977,755.2307,295.3083z"/>
		<path style="fill:#1E1E1E;" d="M761.4103,297.829c0.3405,0.1413,0.6804,0.2827,1.0204,0.4245
			c-3.3079,6.749-6.5122,13.5258-9.6122,20.3282c-0.3296-0.1361-0.6595-0.2721-0.9895-0.4076
			C754.9188,311.3663,758.1127,304.5838,761.4103,297.829z"/>
		<path style="fill:#1E1E1E;" d="M767.3111,300.3168c0.3375,0.1447,0.675,0.2896,1.0122,0.4348
			c-3.3671,6.7151-6.6307,13.459-9.7906,20.2294c-0.327-0.1395-0.6542-0.2787-0.9815-0.4176
			C760.7007,313.7874,763.9542,307.0378,767.3111,300.3168z"/>
		<path style="fill:#1E1E1E;" d="M773.2906,302.9199c0.3348,0.1481,0.6694,0.2966,1.0038,0.4452
			c-3.4275,6.6799-6.7516,13.3896-9.972,20.1269c-0.3243-0.1429-0.6486-0.2855-0.9733-0.4278
			C766.5593,316.3214,769.8733,309.6058,773.2906,302.9199z"/>
		<path style="fill:#1E1E1E;" d="M779.3198,305.6299c0.3318,0.1516,0.6638,0.3035,0.9952,0.4557
			c-3.4884,6.6436-6.8739,13.318-10.1558,20.0209c-0.3214-0.1462-0.6429-0.2923-0.9648-0.4379
			C772.4662,318.9598,775.8415,312.2795,779.3198,305.6299z"/>
		<path style="fill:#1E1E1E;" d="M785.2969,308.4025c0.3291,0.1551,0.658,0.3104,0.9866,0.466
			c-3.5492,6.6066-6.9955,13.2453-10.3386,19.9134c-0.3186-0.1496-0.6373-0.299-0.9563-0.448
			C778.3217,321.6599,781.7578,315.0153,785.2969,308.4025z"/>
		<path style="fill:#1E1E1E;" d="M791.2214,311.237c0.3261,0.1584,0.6522,0.3172,0.9778,0.4762
			c-3.6095,6.5692-7.1166,13.1714-10.5204,19.8041c-0.3157-0.1529-0.6316-0.3056-0.9477-0.4579
			C784.125,324.4207,787.6218,317.8124,791.2214,311.237z"/>
		<path style="fill:#1E1E1E;" d="M742.9576,290.5531c0.3486,0.1304,0.6968,0.261,1.0448,0.392
			c-3.1239,6.8502-6.1434,13.7252-9.0586,20.6226c-0.3377-0.1256-0.6756-0.251-1.0136-0.376
			C736.8347,304.2892,739.8439,297.4088,742.9576,290.5531z"/>
		<path style="fill:#1E1E1E;" d="M802.6226,316.9402c0.3205,0.1649,0.6406,0.3302,0.9604,0.4957
			c-3.7265,6.4946-7.3509,13.0241-10.8729,19.5863c-0.31-0.1593-0.6201-0.3181-0.9307-0.4769
			C795.2914,329.977,798.9061,323.4411,802.6226,316.9402z"/>
		<path style="fill:#1E1E1E;" d="M808.3892,319.9529c0.3174,0.1682,0.6346,0.3368,0.9515,0.5055
			c-3.786,6.4555-7.4702,12.9469-11.0523,19.4721c-0.307-0.1624-0.6141-0.3246-0.9218-0.4865
			C800.9387,332.9127,804.6131,326.4149,808.3892,319.9529z"/>
		<path style="fill:#1E1E1E;" d="M814.3141,323.1405c0.3143,0.1716,0.6283,0.3434,0.9421,0.5156
			c-3.8475,6.4143-7.5934,12.8658-11.2375,19.3519c-0.3038-0.1656-0.6081-0.3311-0.9125-0.4962
			C806.7403,336.0193,810.4764,329.5614,814.3141,323.1405z"/>
		<path style="fill:#1E1E1E;" d="M820.18,326.3906c0.311,0.1749,0.6219,0.3501,0.9326,0.5255
			c-4.0909,6.4529-8.0732,12.9479-11.9462,19.4824c-0.3008-0.1686-0.6019-0.3369-0.9031-0.5049
			C812.1264,339.3524,816.0988,332.8506,820.18,326.3906z"/>
		<path style="fill:#1E1E1E;" d="M825.6855,329.5284c0.308,0.178,0.616,0.3561,0.9235,0.5347
			c-3.9661,6.3324-7.8314,12.7041-11.5953,19.1127c-0.2978-0.1718-0.5959-0.3435-0.8942-0.5149
			C817.8736,342.2459,821.7291,335.8676,825.6855,329.5284z"/>
		<path style="fill:#1E1E1E;" d="M832.0286,333.1311c0.3046,0.1816,0.6091,0.3633,0.9131,0.5454
			c-4.4365,6.0837-8.7598,12.2174-12.9689,18.3979c-0.295-0.1747-0.5903-0.349-0.8858-0.5232
			C823.287,345.3635,827.6012,339.2224,832.0286,333.1311z"/>
		<path style="fill:#1E1E1E;" d="M797.0209,314.0967c0.3233,0.1618,0.6463,0.3238,0.9691,0.4861
			c-3.669,6.5316-7.2354,13.0973-10.6994,19.6946c-0.3129-0.1561-0.6259-0.312-0.939-0.4676
			C789.8055,327.2065,793.362,320.6346,797.0209,314.0967z"/>
		<path style="fill:#1E1E1E;" d="M624.6482,260.1364c-0.6944-0.103-1.3896-0.205-2.0851-0.3057
			c0.4572-0.3621,0.9151-0.7238,1.3737-1.085C624.1743,259.2092,624.4114,259.6727,624.6482,260.1364z"/>
		<path style="fill:#1E1E1E;" d="M631.4566,261.1868c-0.6909-0.1107-1.3824-0.2202-2.0744-0.3286
			c0.459-0.3571,0.9187-0.7136,1.3792-1.0697C630.9935,260.2545,631.2252,260.7206,631.4566,261.1868z"/>
		<path style="fill:#1E1E1E;" d="M638.2136,262.3092c-0.6871-0.1182-1.375-0.2353-2.0632-0.3512
			c0.4606-0.352,0.9222-0.7035,1.3845-1.0544C637.7615,261.372,637.9877,261.8406,638.2136,262.3092z"/>
		<path style="fill:#1E1E1E;" d="M658.9138,266.2512c-0.6752-0.1411-1.3513-0.2812-2.0277-0.4201
			c0.4658-0.3362,0.9324-0.672,1.3998-1.0073C658.4954,265.2995,658.7048,265.7753,658.9138,266.2512z"/>
		<path style="fill:#1E1E1E;" d="M645.1945,263.5533c-0.6833-0.126-1.3672-0.2509-2.0516-0.3746
			c0.4626-0.3467,0.9256-0.6929,1.3896-1.0386C644.7535,262.6111,644.9742,263.0821,645.1945,263.5533z"/>
		<path style="fill:#1E1E1E;" d="M652.0742,264.864c-0.6794-0.1336-1.3593-0.2661-2.0399-0.3974
			c0.4642-0.3415,0.9291-0.6825,1.3948-1.0229C651.6445,263.9169,651.8595,264.3904,652.0742,264.864z"/>
		<path style="fill:#1E1E1E;" d="M665.78,267.7292c-0.6712-0.1487-1.3431-0.2963-2.0155-0.4427
			c0.4675-0.331,0.9357-0.6616,1.4046-0.9915C665.3732,266.7729,665.5768,267.251,665.78,267.7292z"/>
		<path style="fill:#1E1E1E;" d="M672.597,269.282c-0.6671-0.1562-1.3346-0.3112-2.003-0.4651
			c0.4691-0.3258,0.9389-0.651,1.4093-0.9758C672.2017,268.3213,672.3994,268.8016,672.597,269.282z"/>
		<path style="fill:#1E1E1E;" d="M679.3712,270.9104c-0.6629-0.1635-1.3264-0.326-1.9905-0.4873
			c0.4707-0.3206,0.942-0.6406,1.4141-0.96C678.9874,269.9454,679.1794,270.4279,679.3712,270.9104z"/>
		<path style="fill:#1E1E1E;" d="M686.0194,272.5922c-0.6585-0.1707-1.3178-0.3404-1.9777-0.509
			c0.4721-0.3154,0.945-0.6302,1.4185-0.9445C685.6471,271.6231,685.8335,272.1076,686.0194,272.5922z"/>
		<path style="fill:#1E1E1E;" d="M692.4571,274.3006c-0.6545-0.1777-1.3094-0.3543-1.9651-0.5299
			c0.4735-0.3104,0.9478-0.6202,1.4227-0.9294C692.0957,273.3276,692.2766,273.8141,692.4571,274.3006z"/>
		<path style="fill:#1E1E1E;" d="M699.1015,276.1475c-0.65-0.1848-1.3006-0.3687-1.9519-0.5515
			c0.4749-0.3051,0.9505-0.6097,1.4269-0.9138C698.7519,275.1707,698.9269,275.6591,699.1015,276.1475z"/>
		<path style="fill:#1E1E1E;" d="M705.7009,278.0669c-0.6454-0.192-1.2917-0.3828-1.9386-0.5727
			c0.4763-0.2999,0.9533-0.5993,1.4311-0.8981C705.3629,277.0863,705.532,277.5765,705.7009,278.0669z"/>
		<path style="fill:#1E1E1E;" d="M712.2543,280.058c-0.641-0.199-1.2827-0.3969-1.925-0.5938
			c0.4776-0.2947,0.956-0.5889,1.4351-0.8825C711.9281,279.0738,712.0914,279.5659,712.2543,280.058z"/>
		<path style="fill:#1E1E1E;" d="M718.6539,282.0854c-0.6365-0.2057-1.2737-0.4105-1.9116-0.6142
			c0.4791-0.2896,0.9586-0.5786,1.4388-0.8672C718.3392,281.0978,718.4968,281.5916,718.6539,282.0854z"/>
		<path style="fill:#1E1E1E;" d="M725.1149,284.2166c-0.6318-0.2126-1.2644-0.4242-1.8976-0.6348
			c0.4801-0.2844,0.9609-0.5683,1.4424-0.8516C724.8118,283.2255,724.9636,283.7211,725.1149,284.2166z"/>
		<path style="fill:#1E1E1E;" d="M731.5284,286.4171c-0.6272-0.2194-1.2551-0.4378-1.8836-0.6552
			c0.4813-0.2792,0.9634-0.5579,1.446-0.836C731.2371,285.4229,731.383,285.92,731.5284,286.4171z"/>
		<path style="fill:#1E1E1E;" d="M737.8939,288.6864c-0.6223-0.226-1.2455-0.4512-1.8694-0.6753
			c0.4824-0.2741,0.9656-0.5476,1.4495-0.8205C737.6143,287.6892,737.7543,288.1878,737.8939,288.6864z"/>
		<path style="fill:#1E1E1E;" d="M744.3501,291.1867c-0.6174-0.2329-1.2356-0.4648-1.8544-0.6956
			c0.4836-0.2688,0.9678-0.537,1.4528-0.8046C744.0826,290.1866,744.2167,290.6866,744.3501,291.1867z"/>
		<path style="fill:#1E1E1E;" d="M750.4392,293.4125c-0.6128-0.2392-1.2263-0.4775-1.8406-0.7148
			c0.4847-0.2638,0.97-0.527,1.4562-0.7896C750.1833,292.4096,750.3115,292.9111,750.4392,293.4125z"/>
		<path style="fill:#1E1E1E;" d="M756.6128,295.9762c-0.6079-0.2457-1.2164-0.4904-1.8257-0.7341
			c0.4857-0.2586,0.972-0.5167,1.4589-0.7742C756.3687,294.9706,756.4907,295.4734,756.6128,295.9762z"/>
		<path style="fill:#1E1E1E;" d="M762.8257,298.4185c-0.6029-0.2521-1.2068-0.5033-1.8112-0.7535
			c0.4867-0.2535,0.9741-0.5064,1.4622-0.7586C762.5934,297.4104,762.7097,297.9144,762.8257,298.4185z"/>
		<path style="fill:#1E1E1E;" d="M768.7151,300.9206c-0.5981-0.2582-1.197-0.5154-1.7967-0.7718
			c0.4876-0.2485,0.976-0.4965,1.465-0.7437C768.4944,299.9102,768.6049,300.4154,768.7151,300.9206z"/>
		<path style="fill:#1E1E1E;" d="M658.9138,266.2512c-0.6752-0.1411-1.3513-0.2812-2.0277-0.4201
			c0.4658-0.3362,0.9324-0.672,1.3998-1.0073C658.4954,265.2995,658.7048,265.7753,658.9138,266.2512z"/>
		<path style="fill:#1E1E1E;" d="M774.683,303.5381c-0.5931-0.2643-1.187-0.5278-1.7817-0.7903
			c0.4885-0.2435,0.9777-0.4863,1.4676-0.7286C774.4741,302.5255,774.5787,303.0318,774.683,303.5381z"/>
		<path style="fill:#1E1E1E;" d="M780.7118,306.2679c-0.588-0.2705-1.1769-0.5401-1.7665-0.8088
			c0.4894-0.2384,0.9796-0.476,1.4703-0.7131C780.5147,305.2531,780.6133,305.7605,780.7118,306.2679z"/>
		<path style="fill:#1E1E1E;" d="M658.9138,266.2512c-0.6752-0.1411-1.3513-0.2812-2.0277-0.4201
			c0.4658-0.3362,0.9324-0.672,1.3998-1.0073C658.4954,265.2995,658.7048,265.7753,658.9138,266.2512z"/>
		<path style="fill:#1E1E1E;" d="M786.6653,309.0495c-0.5829-0.2766-1.1667-0.5523-1.7512-0.8271
			c0.4902-0.2332,0.9812-0.4658,1.4728-0.6978C786.4801,308.0328,786.5729,308.5411,786.6653,309.0495z"/>
		<path style="fill:#1E1E1E;" d="M792.5777,311.8982c-0.5779-0.2827-1.1562-0.5644-1.7356-0.8453
			c0.4912-0.2281,0.9828-0.4555,1.4752-0.6824C792.4045,310.8797,792.4912,311.3889,792.5777,311.8982z"/>
		<path style="fill:#1E1E1E;" d="M798.3652,314.7717c-0.5726-0.2885-1.1459-0.5761-1.7201-0.8629
			c0.4918-0.2231,0.9843-0.4455,1.4774-0.6673C798.2037,313.7515,798.2847,314.2616,798.3652,314.7717z"/>
		<path style="fill:#1E1E1E;" d="M803.9548,317.6284c-0.5675-0.2942-1.1357-0.5875-1.7048-0.8799
			c0.4926-0.2182,0.9857-0.4357,1.4794-0.6525C803.8049,316.6068,803.8801,317.1176,803.9548,317.6284z"/>
		<path style="fill:#1E1E1E;" d="M809.7089,320.6547c-0.5621-0.3-1.125-0.599-1.6888-0.8973
			c0.4932-0.213,0.9872-0.4255,1.4815-0.6372C809.5711,319.6317,809.6403,320.1432,809.7089,320.6547z"/>
		<path style="fill:#1E1E1E;" d="M815.6208,323.8563c-0.5566-0.3059-1.1141-0.611-1.6721-0.9151
			c0.4938-0.2078,0.9883-0.4149,1.4833-0.6215C815.4954,322.8319,815.5583,323.3441,815.6208,323.8563z"/>
		<path style="fill:#1E1E1E;" d="M658.9138,266.2512c-0.6752-0.1411-1.3513-0.2812-2.0277-0.4201
			c0.4658-0.3362,0.9324-0.672,1.3998-1.0073C658.4954,265.2995,658.7048,265.7753,658.9138,266.2512z"/>
		<path style="fill:#1E1E1E;" d="M821.4734,327.1201c-0.5509-0.3117-1.1028-0.6227-1.6553-0.9327
			c0.4947-0.2025,0.9897-0.4044,1.4854-0.6056C821.3606,326.0945,821.4171,326.6074,821.4734,327.1201z"/>
		<path style="fill:#1E1E1E;" d="M826.9664,330.2707c-0.5456-0.3172-1.092-0.6336-1.6391-0.9492
			c0.4952-0.1975,0.9907-0.3944,1.487-0.5905C826.8654,329.2443,826.916,329.7575,826.9664,330.2707z"/>
		<path style="fill:#1E1E1E;" d="M833.295,333.8882c-0.5394-0.3235-1.0797-0.6462-1.6207-0.9681
			c0.4957-0.1917,0.9921-0.3828,1.489-0.5732C833.2076,332.8607,833.2515,333.3745,833.295,333.8882z"/>
	</g>
</g>
<g>
	<g>
		<path style="fill:#1E1E1E;" d="M824.4288,349.9563c62.4626,38.6022,118.1005,82.7596,166.2367,131.2058
			c-0.1248,0.1335-0.2497,0.2672-0.3746,0.4007c-48.1301-48.4339-103.7614-92.5785-166.216-131.1674
			C824.1928,350.249,824.3109,350.1026,824.4288,349.9563z"/>
		<path style="fill:#1E1E1E;" d="M833.1953,338.8375c62.7227,38.829,118.6088,83.2064,166.9826,131.8651
			c-0.1291,0.135-0.2582,0.2699-0.3873,0.4049c-48.3676-48.646-104.2468-93.0103-166.9615-131.8257
			C832.9512,339.1336,833.0733,338.9856,833.1953,338.8375z"/>
		<path style="fill:#1E1E1E;" d="M835.1004,336.7247c62.4207,38.693,118.0731,82.8723,166.2927,131.291
			c0.1198,0.416,0.2393,0.832,0.3587,1.248c-49.1672-49.4596-106.0879-94.5032-170.0527-133.8029
			C832.8343,335.8806,833.9681,336.3019,835.1004,336.7247z"/>
		<path style="fill:#1E1E1E;" d="M843.403,339.7111c0.3032,0.1925,0.6064,0.385,0.9092,0.5778
			c-4.967,5.9404-9.85,11.8859-14.6489,17.8353c-0.3013-0.1901-0.6028-0.38-0.9046-0.5699
			C833.556,351.6023,838.4374,345.6541,843.403,339.7111z"/>
		<path style="fill:#1E1E1E;" d="M848.6643,343.0746c0.3013,0.194,0.6025,0.3881,0.9035,0.5823
			c-4.9758,5.9248-9.8675,11.8549-14.6752,17.789c-0.2994-0.1916-0.5991-0.383-0.8989-0.5744
			C838.7997,354.9349,843.6899,349.0021,848.6643,343.0746z"/>
		<path style="fill:#1E1E1E;" d="M854.0952,346.5967c0.2993,0.1955,0.5986,0.3912,0.8975,0.587
			c-4.9849,5.9086-9.8856,11.8228-14.7024,17.7411c-0.2976-0.1931-0.5952-0.3862-0.8931-0.5791
			C844.2126,358.4248,849.1118,352.508,854.0952,346.5967z"/>
		<path style="fill:#1E1E1E;" d="M859.4903,350.1467c0.2974,0.1971,0.5944,0.3943,0.8916,0.5916
			c-4.9939,5.8925-9.9037,11.7906-14.7296,17.6932c-0.2955-0.1947-0.5912-0.3893-0.8871-0.5837
			C849.5896,361.9427,854.4979,356.0419,859.4903,350.1467z"/>
		<path style="fill:#1E1E1E;" d="M864.7607,353.665c0.2954,0.1986,0.5907,0.3973,0.8858,0.5962
			c-5.0027,5.8767-9.9213,11.7592-14.7559,17.6464c-0.2936-0.1962-0.5873-0.3923-0.8813-0.5883
			C854.8425,365.4296,859.7596,359.5444,864.7607,353.665z"/>
		<path style="fill:#1E1E1E;" d="M870.0845,357.2702c0.2935,0.2001,0.5866,0.4004,0.8798,0.6007
			c-5.0116,5.8607-9.939,11.7273-14.7826,17.5988c-0.2916-0.1978-0.5834-0.3954-0.8753-0.5929
			C860.1484,369.0028,865.0743,363.1335,870.0845,357.2702z"/>
		<path style="fill:#1E1E1E;" d="M875.3721,360.9028c0.2914,0.2016,0.5826,0.4034,0.8737,0.6053
			c-5.0204,5.8446-9.9566,11.6955-14.809,17.5512c-0.2896-0.1992-0.5794-0.3984-0.8693-0.5974
			C865.4183,372.6035,870.3531,366.75,875.3721,360.9028z"/>
		<path style="fill:#1E1E1E;" d="M880.6234,364.5627c0.2895,0.2031,0.5787,0.4064,0.8677,0.6098
			c-5.0292,5.8286-9.9742,11.6637-14.8353,17.5039c-0.2877-0.2008-0.5756-0.4014-0.8633-0.602
			C870.6522,376.2317,875.5957,370.394,880.6234,364.5627z"/>
		<path style="fill:#1E1E1E;" d="M837.385,335.7852c0.3054,0.1908,0.6107,0.3816,0.9158,0.5727
			c-4.4656,6.1657-8.8514,12.3327-13.1575,18.4999c-0.3032-0.1888-0.6065-0.3774-0.9099-0.5659
			C828.5375,348.1225,832.9213,341.9532,837.385,335.7852z"/>
		<path style="fill:#1E1E1E;" d="M890.7601,371.7782c0.2855,0.206,0.5708,0.4123,0.8559,0.6185
			c-5.046,5.7976-10.0079,11.602-14.8861,17.4118c-0.2837-0.2037-0.5676-0.4072-0.8516-0.6107
			C880.7549,383.3854,885.7155,377.5784,890.7601,371.7782z"/>
		<path style="fill:#1E1E1E;" d="M895.9039,375.5175c0.2835,0.2075,0.5667,0.4151,0.8498,0.6229
			c-5.0546,5.7817-10.0251,11.5704-14.912,17.3647c-0.2816-0.2052-0.5635-0.4102-0.8455-0.6151
			C885.8814,387.0931,890.8506,381.3018,895.9039,375.5175z"/>
		<path style="fill:#1E1E1E;" d="M901.0109,379.2833c0.2814,0.209,0.5627,0.4181,0.8438,0.6273
			c-5.0631,5.7659-10.0424,11.5389-14.9376,17.3178c-0.2797-0.2066-0.5594-0.4131-0.8395-0.6196
			C890.9714,390.8275,895.9491,385.0518,901.0109,379.2833z"/>
		<path style="fill:#1E1E1E;" d="M906.0813,383.0755c0.2795,0.2104,0.5587,0.421,0.8376,0.6317
			c-5.0717,5.75-10.0593,11.5074-14.963,17.271c-0.2776-0.2081-0.5555-0.4161-0.8334-0.6239
			C896.0248,394.5882,901.0109,388.8282,906.0813,383.0755z"/>
		<path style="fill:#1E1E1E;" d="M911.0316,386.8303c0.2773,0.2119,0.5546,0.4239,0.8316,0.6359
			c-5.08,5.7345-10.0759,11.4767-14.9879,17.225c-0.2756-0.2095-0.5513-0.4189-0.8274-0.6282
			C900.9585,398.3122,905.9531,392.5676,911.0316,386.8303z"/>
		<path style="fill:#1E1E1E;" d="M916.0287,390.6742c0.2754,0.2133,0.5505,0.4267,0.8255,0.6402
			c-5.0883,5.7188-10.0927,11.4454-15.013,17.1784c-0.2735-0.2109-0.5474-0.4217-0.8213-0.6324
			C905.939,402.1248,910.9418,396.3956,916.0287,390.6742z"/>
		<path style="fill:#1E1E1E;" d="M920.9887,394.5439c0.2733,0.2147,0.5464,0.4296,0.8193,0.6444
			c-5.0966,5.7032-10.1091,11.4142-15.038,17.1319c-0.2714-0.2123-0.5433-0.4246-0.8151-0.6367
			C910.8823,405.9633,915.8934,400.2496,920.9887,394.5439z"/>
		<path style="fill:#1E1E1E;" d="M925.9115,398.4391c0.2711,0.2161,0.5422,0.4323,0.8131,0.6487
			c-5.1047,5.6875-10.1256,11.3831-15.0627,17.0855c-0.2695-0.2137-0.5391-0.4276-0.809-0.641
			C915.7885,409.8274,920.808,404.1292,925.9115,398.4391z"/>
		<path style="fill:#1E1E1E;" d="M885.7745,368.2042c0.2875,0.2046,0.5747,0.4094,0.8616,0.6142
			c-5.0378,5.8129-9.9913,11.6324-14.8611,17.4572c-0.2856-0.2023-0.5714-0.4044-0.8574-0.6064
			C875.7859,379.8419,880.7381,374.0197,885.7745,368.2042z"/>
		<path style="fill:#1E1E1E;" d="M935.6148,406.2806c0.2671,0.2189,0.5341,0.4378,0.8007,0.657
			c-5.1211,5.6564-10.1583,11.3213-15.1115,16.9933c-0.2653-0.2166-0.5309-0.433-0.7968-0.6494
			C925.4592,417.607,930.4951,411.9395,935.6148,406.2806z"/>
		<path style="fill:#1E1E1E;" d="M940.4257,410.2513c0.2649,0.2203,0.5298,0.4406,0.7945,0.6611
			c-5.1292,5.6409-10.1744,11.2904-15.1359,16.9473c-0.2634-0.2179-0.5267-0.4358-0.7904-0.6535
			C930.254,421.5468,935.2977,415.8947,940.4257,410.2513z"/>
		<path style="fill:#1E1E1E;" d="M945.199,414.2467c0.2629,0.2216,0.5258,0.4434,0.7883,0.6652
			c-5.1372,5.6253-10.1904,11.2596-15.1599,16.9014c-0.2612-0.2193-0.5227-0.4386-0.7842-0.6577
			C935.0112,425.5114,940.0631,419.8746,945.199,414.2467z"/>
		<path style="fill:#1E1E1E;" d="M949.7581,418.1159c0.2609,0.2229,0.5218,0.446,0.7822,0.6692
			c-5.1448,5.6105-10.2059,11.23-15.1829,16.8572c-0.2593-0.2206-0.5187-0.4411-0.7783-0.6615
			C939.5549,429.351,944.6144,423.7289,949.7581,418.1159z"/>
		<path style="fill:#1E1E1E;" d="M954.3797,422.0922c0.2587,0.2242,0.5175,0.4486,0.776,0.6731
			c-5.1526,5.5953-10.2213,11.1998-15.2063,16.8123c-0.2573-0.222-0.5147-0.4438-0.7722-0.6655
			C944.1608,433.2971,949.2282,427.6901,954.3797,422.0922z"/>
		<path style="fill:#1E1E1E;" d="M959.0416,426.1596c0.2567,0.2256,0.5133,0.4513,0.7697,0.6771
			c-5.1605,5.58-10.237,11.1693-15.2299,16.7667c-0.2551-0.2233-0.5103-0.4464-0.7658-0.6696
			C948.8069,437.3339,953.8824,431.7421,959.0416,426.1596z"/>
		<path style="fill:#1E1E1E;" d="M963.6655,430.251c0.2545,0.2269,0.5092,0.454,0.7634,0.6811
			c-5.1683,5.5645-10.2527,11.1388-15.2534,16.7212c-0.253-0.2246-0.5062-0.4492-0.7596-0.6736
			C953.4155,441.3948,958.4985,435.8181,963.6655,430.251z"/>
		<path style="fill:#1E1E1E;" d="M968.2513,434.3663c0.2526,0.2282,0.505,0.4565,0.7572,0.685
			c-5.1761,5.5492-10.2682,11.1082-15.2767,16.6758c-0.2507-0.226-0.5019-0.4518-0.7532-0.6775
			C957.9857,445.4796,963.0767,439.9181,968.2513,434.3663z"/>
		<path style="fill:#1E1E1E;" d="M930.9488,402.4823c0.269,0.2176,0.5379,0.4352,0.8067,0.653
			c-5.1133,5.6714-10.1426,11.3511-15.088,17.0378c-0.2674-0.2152-0.535-0.4303-0.8027-0.6453
			C920.8089,413.8386,925.8369,408.1563,930.9488,402.4823z"/>
		<path style="fill:#1E1E1E;" d="M977.085,442.4599c0.2484,0.2307,0.4968,0.4617,0.7447,0.6926
			c-5.1909,5.5195-10.2982,11.0491-15.3217,16.5877c-0.2468-0.2285-0.4938-0.4568-0.7409-0.6852
			C966.7894,453.5141,971.8952,447.982,977.085,442.4599z"/>
		<path style="fill:#1E1E1E;" d="M981.558,446.6444c0.2462,0.232,0.4924,0.4642,0.7383,0.6964
			c-5.1987,5.5042-10.3134,11.0189-15.3445,16.5426c-0.2446-0.2298-0.4895-0.4594-0.7346-0.689
			C971.2471,457.6684,976.3605,452.1513,981.558,446.6444z"/>
		<path style="fill:#1E1E1E;" d="M986.1576,451.0099c0.244,0.2334,0.4879,0.4668,0.7318,0.7004
			c-5.2064,5.4885-10.329,10.9877-15.368,16.496c-0.2424-0.2311-0.4852-0.4621-0.7279-0.693
			C975.8311,462.0026,980.9523,456.501,986.1576,451.0099z"/>
		<path style="fill:#1E1E1E;" d="M990.7158,455.4c0.2419,0.2347,0.4836,0.4695,0.725,0.7044
			c-5.2142,5.4728-10.3445,10.9565-15.3912,16.4495c-0.2403-0.2324-0.4808-0.4647-0.7214-0.6969
			C980.3738,466.3615,985.5028,460.8753,990.7158,455.4z"/>
		<path style="fill:#1E1E1E;" d="M994.9983,459.5841c0.2397,0.2359,0.4794,0.4719,0.7187,0.708
			c-5.2214,5.458-10.3591,10.927-15.4131,16.4056c-0.2383-0.2336-0.4766-0.4671-0.7151-0.7006
			C984.6415,470.516,989.778,465.0446,994.9983,459.5841z"/>
		<path style="fill:#1E1E1E;" d="M998.9929,463.5402c0.2377,0.2371,0.4755,0.4742,0.7128,0.7114
			c-5.2284,5.4441-10.373,10.8993-15.4338,16.3643c-0.2361-0.2347-0.4725-0.4695-0.7092-0.704
			C988.6226,474.4444,993.7657,468.9867,998.9929,463.5402z"/>
		<path style="fill:#1E1E1E;" d="M972.7434,438.4542c0.2505,0.2295,0.5007,0.4592,0.7509,0.6889
			c-5.1837,5.5342-10.2834,11.0783-15.2996,16.6311c-0.2488-0.2273-0.4978-0.4544-0.747-0.6814
			C962.4623,449.5376,967.561,443.9908,972.7434,438.4542z"/>
		<path style="fill:#1E1E1E;" d="M838.5875,336.59c-0.5413-0.3393-1.0832-0.678-1.6254-1.0164
			c0.5488-0.1649,1.0977-0.3295,1.647-0.4939C838.6019,335.5831,838.5945,336.0865,838.5875,336.59z"/>
		<path style="fill:#1E1E1E;" d="M844.6642,340.5131c-0.5374-0.3423-1.0753-0.6842-1.6137-1.0257
			c0.5474-0.1623,1.0948-0.3244,1.6428-0.4861C844.6835,339.5052,844.674,340.0091,844.6642,340.5131z"/>
		<path style="fill:#1E1E1E;" d="M849.9177,343.8828c-0.5341-0.3449-1.0686-0.6895-1.6036-1.0337
			c0.546-0.1601,1.0924-0.3199,1.6392-0.4795C849.9412,342.8741,849.9294,343.3785,849.9177,343.8828z"/>
		<path style="fill:#1E1E1E;" d="M865.9838,354.4887c-0.5235-0.3532-1.0475-0.7058-1.5721-1.0582
			c0.5425-0.1533,1.0852-0.3064,1.628-0.4591C866.0211,353.4771,866.0023,353.983,865.9838,354.4887z"/>
		<path style="fill:#1E1E1E;" d="M855.3403,347.4114c-0.5305-0.3477-1.0616-0.6951-1.5932-1.042
			c0.545-0.1578,1.0901-0.3153,1.6356-0.4727C855.3685,346.4016,855.3544,346.9065,855.3403,347.4114z"/>
		<path style="fill:#1E1E1E;" d="M860.6797,350.9363c-0.527-0.3504-1.0546-0.7004-1.5826-1.0501
			c0.5437-0.1555,1.0876-0.3108,1.6317-0.4659C860.7124,349.9257,860.696,350.431,860.6797,350.9363z"/>
		<path style="fill:#1E1E1E;" d="M871.3048,358.1039c-0.52-0.3558-1.0406-0.7113-1.5615-1.0664
			c0.5412-0.1511,1.0826-0.3018,1.6242-0.4524C871.3466,357.0914,871.3257,357.5977,871.3048,358.1039z"/>
		<path style="fill:#1E1E1E;" d="M876.584,361.7428c-0.5163-0.3585-1.0334-0.7166-1.5508-1.0744
			c0.5399-0.1489,1.08-0.2974,1.6204-0.4457C876.6304,360.7295,876.6072,361.2361,876.584,361.7428z"/>
		<path style="fill:#1E1E1E;" d="M881.827,365.4091c-0.5128-0.3612-1.0262-0.722-1.5401-1.0825
			c0.5386-0.1466,1.0775-0.2929,1.6165-0.4389C881.8779,364.3948,881.8524,364.9019,881.827,365.4091z"/>
		<path style="fill:#1E1E1E;" d="M886.9698,369.0566c-0.5093-0.3638-1.0192-0.7272-1.5295-1.0903
			c0.5374-0.1444,1.075-0.2885,1.6127-0.4324C887.0251,368.0416,886.9974,368.5491,886.9698,369.0566z"/>
		<path style="fill:#1E1E1E;" d="M891.9473,372.6366c-0.5058-0.3663-1.0121-0.7323-1.5192-1.0979
			c0.5361-0.1423,1.0724-0.2843,1.6088-0.426C892.0071,371.6206,891.9772,372.1286,891.9473,372.6366z"/>
		<path style="fill:#1E1E1E;" d="M897.0827,376.382c-0.5023-0.369-1.0051-0.7375-1.5085-1.1057
			c0.5347-0.14,1.0699-0.2799,1.605-0.4194C897.147,375.3653,897.1149,375.8736,897.0827,376.382z"/>
		<path style="fill:#1E1E1E;" d="M902.1814,380.1539c-0.4987-0.3715-0.9979-0.7427-1.4976-1.1135
			c0.5334-0.1378,1.0671-0.2755,1.601-0.4129C902.2502,379.1364,902.2158,379.6452,902.1814,380.1539z"/>
		<path style="fill:#1E1E1E;" d="M907.2432,383.9521c-0.4951-0.3741-0.9907-0.7478-1.4868-1.1212
			c0.532-0.1357,1.0643-0.2712,1.597-0.4063C907.3167,382.9338,907.28,383.443,907.2432,383.9521z"/>
		<path style="fill:#1E1E1E;" d="M912.1852,387.7129c-0.4915-0.3766-0.9837-0.7529-1.4761-1.1288
			c0.5308-0.1336,1.0618-0.2669,1.593-0.4C912.2631,386.6937,912.2242,387.2033,912.1852,387.7129z"/>
		<path style="fill:#1E1E1E;" d="M917.1737,391.5627c-0.4879-0.3791-0.9761-0.7579-1.4651-1.1363
			c0.5294-0.1314,1.059-0.2626,1.5889-0.3935C917.2562,390.5428,917.2149,391.0527,917.1737,391.5627z"/>
		<path style="fill:#1E1E1E;" d="M922.1252,395.4382c-0.4842-0.3816-0.9689-0.763-1.4542-1.1439
			c0.5281-0.1293,1.0564-0.2583,1.5849-0.3871C922.2122,394.4176,922.1686,394.9279,922.1252,395.4382z"/>
		<path style="fill:#1E1E1E;" d="M927.0394,399.3393c-0.4807-0.3842-0.9616-0.768-1.4432-1.1514
			c0.5266-0.1271,1.0536-0.2541,1.5806-0.3807C927.131,398.3179,927.0851,398.8286,927.0394,399.3393z"/>
		<path style="fill:#1E1E1E;" d="M931.9868,403.4581c-0.4767-0.3867-0.9542-0.7731-1.4319-1.159
			c0.5253-0.125,1.0507-0.2497,1.5764-0.3742C932.0829,402.436,932.035,402.9471,931.9868,403.4581z"/>
		<path style="fill:#1E1E1E;" d="M936.7255,407.1924c-0.4731-0.3891-0.947-0.7778-1.4213-1.1662
			c0.524-0.123,1.0482-0.2456,1.5726-0.3681C936.8264,406.1695,936.7759,406.681,936.7255,407.1924z"/>
		<path style="fill:#1E1E1E;" d="M941.4571,411.2465c-0.4694-0.3915-0.9395-0.7827-1.4102-1.1735
			c0.5225-0.1208,1.0452-0.2415,1.5682-0.3618C941.5624,410.2229,941.5098,410.7347,941.4571,411.2465z"/>
		<path style="fill:#1E1E1E;" d="M946.2925,415.1699c-0.4659-0.3939-0.9323-0.7876-1.3992-1.1808
			c0.5212-0.1187,1.0426-0.2373,1.5642-0.3555C946.4023,414.1457,946.3474,414.6578,946.2925,415.1699z"/>
		<path style="fill:#1E1E1E;" d="M950.8431,419.0445c-0.4623-0.3962-0.925-0.7921-1.3885-1.1877
			c0.52-0.1168,1.0399-0.2333,1.5601-0.3496C950.9575,418.0197,950.9003,418.5321,950.8431,419.0445z"/>
		<path style="fill:#1E1E1E;" d="M865.9838,354.4887c-0.5235-0.3532-1.0475-0.7058-1.5721-1.0582
			c0.5425-0.1533,1.0852-0.3064,1.628-0.4591C866.0211,353.4771,866.0023,353.983,865.9838,354.4887z"/>
		<path style="fill:#1E1E1E;" d="M955.4561,423.0263c-0.4587-0.3987-0.9177-0.7969-1.3774-1.1948
			c0.5185-0.1147,1.0372-0.2292,1.5559-0.3435C955.5751,422.0009,955.5155,422.5135,955.4561,423.0263z"/>
		<path style="fill:#1E1E1E;" d="M960.1183,427.1072c-0.4549-0.401-0.9103-0.8016-1.3664-1.2019
			c0.5172-0.1127,1.0344-0.2251,1.5518-0.3373C960.2418,426.0811,960.18,426.5941,960.1183,427.1072z"/>
		<path style="fill:#1E1E1E;" d="M865.9838,354.4887c-0.5235-0.3532-1.0475-0.7058-1.5721-1.0582
			c0.5425-0.1533,1.0852-0.3064,1.628-0.4591C866.0211,353.4771,866.0023,353.983,865.9838,354.4887z"/>
		<path style="fill:#1E1E1E;" d="M964.7245,431.1962c-0.4513-0.4034-0.9028-0.8063-1.3552-1.2089
			c0.5157-0.1106,1.0314-0.2211,1.5475-0.3313C964.8527,430.1694,964.7886,430.6828,964.7245,431.1962z"/>
		<path style="fill:#1E1E1E;" d="M969.3016,435.317c-0.4474-0.4056-0.8954-0.811-1.3439-1.2159
			c0.5142-0.1087,1.0286-0.2169,1.543-0.3251C969.4344,434.2896,969.368,434.8033,969.3016,435.317z"/>
		<path style="fill:#1E1E1E;" d="M973.7849,439.4102c-0.4437-0.408-0.8879-0.8156-1.3328-1.2228
			c0.5128-0.1066,1.0258-0.2131,1.5388-0.3192C973.9224,438.3822,973.8535,438.8961,973.7849,439.4102z"/>
		<path style="fill:#1E1E1E;" d="M978.118,443.4211c-0.4401-0.4102-0.8807-0.8199-1.322-1.2294
			c0.5114-0.1047,1.023-0.2092,1.5346-0.3134C978.2598,442.3926,978.1888,442.9069,978.118,443.4211z"/>
		<path style="fill:#1E1E1E;" d="M982.5822,447.6109c-0.4363-0.4124-0.8732-0.8244-1.3106-1.2362
			c0.51-0.1028,1.0199-0.2052,1.5302-0.3075C982.7285,446.5819,982.6554,447.0963,982.5822,447.6109z"/>
		<path style="fill:#1E1E1E;" d="M987.1726,451.9819c-0.4323-0.4147-0.8653-0.8291-1.2988-1.2432
			c0.5083-0.1006,1.017-0.2011,1.5256-0.3013C987.3239,450.9522,987.2482,451.4671,987.1726,451.9819z"/>
		<path style="fill:#1E1E1E;" d="M865.9838,354.4887c-0.5235-0.3532-1.0475-0.7058-1.5721-1.0582
			c0.5425-0.1533,1.0852-0.3064,1.628-0.4591C866.0211,353.4771,866.0023,353.983,865.9838,354.4887z"/>
		<path style="fill:#1E1E1E;" d="M991.7216,456.3774c-0.4285-0.4171-0.8574-0.8337-1.287-1.2502
			c0.5068-0.0986,1.0139-0.197,1.5211-0.2951C991.8775,455.3472,991.7994,455.8623,991.7216,456.3774z"/>
		<path style="fill:#1E1E1E;" d="M995.9953,460.5666c-0.4247-0.4192-0.8499-0.8381-1.2759-1.2567
			c0.5055-0.0967,1.011-0.1932,1.5167-0.2895C996.1558,459.5358,996.0754,460.0512,995.9953,460.5666z"/>
		<path style="fill:#1E1E1E;" d="M999.9816,464.5274c-0.4212-0.4212-0.843-0.8422-1.2653-1.2628
			c0.5041-0.0949,1.0082-0.1896,1.5125-0.284C1000.1464,463.4962,1000.064,464.0118,999.9816,464.5274z"/>
	</g>
</g>
<g>
	<g>
		<path style="fill:#1E1E1E;" d="M388.5983,277.3224c76.4079-12.1017,154.2444-12.1018,230.6521,0.0001
			c-0.0284,0.1796-0.0569,0.3593-0.0854,0.5389c-76.3513-12.0928-154.13-12.0928-230.4814,0
			C388.6552,277.6817,388.6267,277.502,388.5983,277.3224z"/>
		<path style="fill:#1E1E1E;" d="M386.4098,263.5047c77.7514-12.3146,156.9546-12.3314,234.7101-0.0504
			c-0.0287,0.182-0.0574,0.3639-0.0862,0.5459c-77.6983-12.2719-156.8432-12.2552-234.5375,0.0504
			C386.4674,263.8686,386.4386,263.6866,386.4098,263.5047z"/>
		<path style="fill:#1E1E1E;" d="M386.1548,260.8588c78.0281-12.3412,157.5111-12.3412,235.5392,0
			c-0.0288,0.182-0.0576,0.3639-0.0864,0.5458c-77.9708-12.3322-157.3956-12.3322-235.3665,0
			C386.2124,261.2227,386.1836,261.0407,386.1548,260.8588z"/>
		<path style="fill:#1E1E1E;" d="M394.0841,258.1317c0.3829-0.0563,0.7659-0.1122,1.1489-0.1679
			c1.0678,7.3437,2.1357,14.6874,3.2035,22.0311c-0.3717,0.0541-0.7434,0.1084-1.115,0.163
			C396.2424,272.8158,395.1632,265.4737,394.0841,258.1317z"/>
		<path style="fill:#1E1E1E;" d="M400.7527,257.1819c0.3833-0.0529,0.7666-0.1054,1.15-0.1577
			c1.0023,7.3529,2.0045,14.7058,3.0069,22.0588c-0.372,0.0507-0.744,0.1017-1.1161,0.153
			C402.7799,271.8846,401.7664,264.5333,400.7527,257.1819z"/>
		<path style="fill:#1E1E1E;" d="M407.6871,256.2585c0.3836-0.0493,0.7674-0.0983,1.151-0.147
			c0.9342,7.3619,1.8683,14.7238,2.8025,22.0857c-0.3724,0.0472-0.7448,0.0947-1.1171,0.1426
			C409.578,270.9794,408.6326,263.619,407.6871,256.2585z"/>
		<path style="fill:#1E1E1E;" d="M414.6277,255.3997c0.3839-0.0457,0.7679-0.0911,1.152-0.1363
			c0.866,7.3702,1.732,14.7405,2.5979,22.1107c-0.3727,0.0438-0.7454,0.0879-1.1181,0.1322
			C416.3822,270.1374,415.505,262.7686,414.6277,255.3997z"/>
		<path style="fill:#1E1E1E;" d="M421.4586,254.6179c0.3842-0.0422,0.7686-0.0842,1.153-0.1257
			c0.7989,7.3778,1.5977,14.7556,2.3965,22.1334c-0.373,0.0403-0.746,0.0811-1.1189,0.122
			C423.079,269.371,422.2689,261.9945,421.4586,254.6179z"/>
		<path style="fill:#1E1E1E;" d="M428.4102,253.887c0.3846-0.0386,0.7692-0.077,1.1537-0.115
			c0.7305,7.3849,1.4611,14.7698,2.1916,22.1546c-0.3733,0.0369-0.7465,0.0741-1.1197,0.1116
			C429.8939,268.6545,429.1521,261.2707,428.4102,253.887z"/>
		<path style="fill:#1E1E1E;" d="M435.3666,253.2205c0.3848-0.035,0.7696-0.0698,1.1545-0.1043
			c0.6623,7.3913,1.3244,14.7827,1.9866,22.174c-0.3735,0.0334-0.7469,0.0672-1.1205,0.1012
			C436.7137,268.0011,436.0401,260.6108,435.3666,253.2205z"/>
		<path style="fill:#1E1E1E;" d="M442.3273,252.6186c0.385-0.0315,0.7701-0.0627,1.1552-0.0936
			c0.5938,7.3971,1.1876,14.7943,1.7814,22.1914c-0.3737,0.03-0.7475,0.0603-1.1212,0.0909
			C443.5376,267.411,442.9325,260.0148,442.3273,252.6186z"/>
		<path style="fill:#1E1E1E;" d="M387.4224,259.1412c0.3825-0.0597,0.7652-0.1191,1.1477-0.1783
			c1.1333,7.3339,2.2665,14.6678,3.3998,22.0017c-0.3713,0.0574-0.7426,0.1151-1.1139,0.173
			C389.7115,273.8055,388.567,266.4733,387.4224,259.1412z"/>
		<path style="fill:#1E1E1E;" d="M455.9134,251.6302c0.3855-0.0245,0.7708-0.0488,1.1563-0.0728
			c0.4603,7.4066,0.9206,14.8133,1.381,22.2199c-0.3741,0.0233-0.7481,0.0468-1.1222,0.0706
			C456.8568,266.442,456.3851,259.0361,455.9134,251.6302z"/>
		<path style="fill:#1E1E1E;" d="M462.8846,251.2186c0.3856-0.021,0.7712-0.0417,1.1568-0.0621
			c0.3918,7.4106,0.7836,14.8212,1.1755,22.2317c-0.3742,0.0198-0.7485,0.0398-1.1227,0.0602
			C463.691,266.0385,463.2878,258.6285,462.8846,251.2186z"/>
		<path style="fill:#1E1E1E;" d="M469.8584,250.8714c0.3857-0.0174,0.7715-0.0345,1.1572-0.0514
			c0.3233,7.4139,0.6466,14.8278,0.9699,22.2416c-0.3743,0.0163-0.7487,0.033-1.1231,0.0499
			C470.5277,265.6982,470.1931,258.2848,469.8584,250.8714z"/>
		<path style="fill:#1E1E1E;" d="M476.8344,250.5888c0.3858-0.0138,0.7717-0.0274,1.1575-0.0407
			c0.2548,7.4166,0.5096,14.8331,0.7643,22.2496c-0.3745,0.0128-0.7489,0.026-1.1234,0.0395
			C477.3666,265.4211,477.1005,258.0049,476.8344,250.5888z"/>
		<path style="fill:#1E1E1E;" d="M483.6964,250.3738c0.3859-0.0103,0.7719-0.0204,1.1577-0.0301
			c0.1874,7.4185,0.3747,14.8371,0.5621,22.2557c-0.3745,0.0095-0.7491,0.0192-1.1236,0.0292
			C484.0938,265.2103,483.8951,257.792,483.6964,250.3738z"/>
		<path style="fill:#1E1E1E;" d="M490.6754,250.2191c0.386-0.0068,0.7719-0.0133,1.1579-0.0194
			c0.1188,7.42,0.2375,14.84,0.3564,22.2599c-0.3746,0.006-0.7491,0.0123-1.1238,0.0188
			C490.9357,265.0587,490.8056,257.6389,490.6754,250.2191z"/>
		<path style="fill:#1E1E1E;" d="M497.6552,250.1289c0.386-0.0032,0.7721-0.0061,1.158-0.0087
			c0.0502,7.4208,0.1004,14.8415,0.1506,22.2623c-0.3746,0.0025-0.7492,0.0053-1.1239,0.0085
			C497.7784,264.9702,497.7168,257.5496,497.6552,250.1289z"/>
		<path style="fill:#1E1E1E;" d="M504.6355,250.1032c0.386,0.0004,0.772,0.001,1.158,0.002
			c-0.0183,7.4209-0.0367,14.8418-0.0551,22.2627c-0.3746-0.0009-0.7493-0.0016-1.1239-0.0019
			C504.6216,264.9451,504.6286,257.5241,504.6355,250.1032z"/>
		<path style="fill:#1E1E1E;" d="M449.2064,252.0873c0.3853-0.028,0.7705-0.0556,1.1558-0.0831
			c0.5262,7.4023,1.0524,14.8045,1.5786,22.2067c-0.3739,0.0266-0.7478,0.0535-1.1218,0.0806
			C450.2815,266.8902,449.7439,259.4888,449.2064,252.0873z"/>
		<path style="fill:#1E1E1E;" d="M518.5515,250.2445c0.386,0.0075,0.772,0.0152,1.158,0.0233
			c-0.1552,7.4193-0.3101,14.8386-0.4652,22.2579c-0.3747-0.0078-0.7493-0.0154-1.1238-0.0226
			C518.2642,265.0836,518.4078,257.6641,518.5515,250.2445z"/>
		<path style="fill:#1E1E1E;" d="M525.5303,250.412c0.3859,0.011,0.7718,0.0223,1.1577,0.034
			c-0.2236,7.4176-0.4473,14.8351-0.6709,22.2526c-0.3745-0.0113-0.749-0.0223-1.1235-0.033
			C525.1058,265.2477,525.3181,257.8298,525.5303,250.412z"/>
		<path style="fill:#1E1E1E;" d="M532.5078,250.6439c0.3857,0.0146,0.7716,0.0295,1.1573,0.0447
			c-0.2921,7.4152-0.5844,14.8303-0.8766,22.2455c-0.3744-0.0147-0.7488-0.0292-1.1232-0.0434
			C531.9462,265.4751,532.2271,258.0595,532.5078,250.6439z"/>
		<path style="fill:#1E1E1E;" d="M539.2224,250.9281c0.3857,0.018,0.7714,0.0364,1.157,0.055
			c-0.3581,7.4123-0.7162,14.8246-1.0744,22.2368c-0.3744-0.0181-0.7485-0.0359-1.1229-0.0534
			C538.5289,265.7537,538.8757,258.3409,539.2224,250.9281z"/>
		<path style="fill:#1E1E1E;" d="M546.08,251.2801c0.3856,0.0216,0.7711,0.0434,1.1567,0.0655
			c-0.4255,7.4087-0.8511,14.8175-1.2766,22.2261c-0.3741-0.0215-0.7483-0.0427-1.1225-0.0636
			C545.2518,266.0989,545.6659,258.6895,546.08,251.2801z"/>
		<path style="fill:#1E1E1E;" d="M553.0508,251.7021c0.3854,0.0251,0.7708,0.0505,1.1562,0.0762
			c-0.494,7.4045-0.988,14.8089-1.482,22.2134c-0.374-0.025-0.748-0.0496-1.1221-0.074
			C552.0854,266.5125,552.5681,259.1073,553.0508,251.7021z"/>
		<path style="fill:#1E1E1E;" d="M560.0182,252.1886c0.3852,0.0287,0.7704,0.0577,1.1556,0.087
			c-0.5624,7.3996-1.1249,14.7991-1.6873,22.1987c-0.3739-0.0284-0.7477-0.0566-1.1215-0.0844
			C558.9162,266.9894,559.4671,259.589,560.0182,252.1886z"/>
		<path style="fill:#1E1E1E;" d="M566.9822,252.7395c0.385,0.0323,0.77,0.0648,1.155,0.0976
			c-0.6309,7.3941-1.2617,14.7881-1.8926,22.1822c-0.3736-0.0319-0.7473-0.0634-1.1209-0.0947
			C565.7432,267.5296,566.3628,260.1346,566.9822,252.7395z"/>
		<path style="fill:#1E1E1E;" d="M511.8333,250.1443c0.3861,0.004,0.7721,0.0084,1.1581,0.013
			c-0.0891,7.4204-0.1782,14.8408-0.2673,22.2611c-0.3746-0.0045-0.7492-0.0087-1.1239-0.0126
			C511.6779,264.9853,511.7556,257.5648,511.8333,250.1443z"/>
		<path style="fill:#1E1E1E;" d="M580.5515,253.9996c0.3844,0.0392,0.769,0.0787,1.1534,0.1185
			c-0.7642,7.3815-1.5283,14.763-2.2924,22.1444c-0.3731-0.0386-0.7463-0.077-1.1194-0.115
			C579.0458,268.7649,579.7988,261.3823,580.5515,253.9996z"/>
		<path style="fill:#1E1E1E;" d="M587.5021,254.7409c0.3842,0.0428,0.7684,0.0858,1.1526,0.1292
			c-0.8324,7.3741-1.6648,14.7482-2.4973,22.1223c-0.3729-0.0421-0.7458-0.0839-1.1187-0.1254
			C585.86,269.4916,586.681,262.1163,587.5021,254.7409z"/>
		<path style="fill:#1E1E1E;" d="M594.7072,255.5781c0.384,0.0465,0.7678,0.0933,1.1517,0.1403
			c-0.9033,7.3658-1.8065,14.7315-2.7097,22.0973c-0.3726-0.0457-0.7451-0.0911-1.1177-0.1362
			C592.9235,270.3123,593.8152,262.9452,594.7072,255.5781z"/>
		<path style="fill:#1E1E1E;" d="M601.9061,256.4847c0.3835,0.0502,0.767,0.1006,1.1506,0.1514
			c-0.9739,7.3568-1.9478,14.7135-2.9217,22.0702c-0.3723-0.0493-0.7446-0.0983-1.1168-0.1469
			C599.9808,271.2011,600.9434,263.8429,601.9061,256.4847z"/>
		<path style="fill:#1E1E1E;" d="M608.7238,257.4082c0.3832,0.0536,0.7663,0.1077,1.1495,0.162
			c-1.0408,7.3476-2.0818,14.6951-3.1227,22.0427c-0.3719-0.0527-0.7437-0.1051-1.1157-0.1572
			C606.6646,272.1065,607.6942,264.7574,608.7238,257.4082z"/>
		<path style="fill:#1E1E1E;" d="M615.1318,258.334c0.3829,0.057,0.7656,0.1142,1.1484,0.1718
			c-1.1039,7.3384-2.2076,14.6768-3.3114,22.0151c-0.3715-0.0559-0.7431-0.1115-1.1147-0.1668
			C612.9468,273.0141,614.0393,265.674,615.1318,258.334z"/>
		<path style="fill:#1E1E1E;" d="M573.8566,253.347c0.3848,0.0358,0.7695,0.0719,1.1542,0.1082
			c-0.6984,7.388-1.3967,14.776-2.0952,22.164c-0.3734-0.0353-0.7468-0.0703-1.1202-0.105
			C572.4825,268.1252,573.1696,260.7361,573.8566,253.347z"/>
		<path style="fill:#1E1E1E;" d="M388.9996,258.8967c-0.6792,0.1046-1.3582,0.2101-2.0372,0.3165
			c0.2751-0.4639,0.5508-0.9278,0.8271-1.3915C388.1934,258.1797,388.5968,258.538,388.9996,258.8967z"/>
		<path style="fill:#1E1E1E;" d="M395.6783,257.8991c-0.6799,0.0985-1.3596,0.1978-2.0392,0.2981
			c0.2791-0.4615,0.5588-0.9228,0.8391-1.384C394.8787,257.1749,395.2788,257.5369,395.6783,257.8991z"/>
		<path style="fill:#1E1E1E;" d="M402.3484,256.9637c-0.6805,0.0923-1.3609,0.1856-2.0411,0.2798
			c0.2831-0.459,0.5668-0.9178,0.851-1.3764C401.5555,256.2323,401.9522,256.5978,402.3484,256.9637z"/>
		<path style="fill:#1E1E1E;" d="M423.0511,254.4447c-0.6822,0.0735-1.3643,0.1479-2.0464,0.2232
			c0.2954-0.451,0.5914-0.9017,0.8879-1.3523C422.2794,253.6917,422.6656,254.068,423.0511,254.4447z"/>
		<path style="fill:#1E1E1E;" d="M409.2842,256.0551c-0.6811,0.086-1.3622,0.173-2.0431,0.2609
			c0.2872-0.4563,0.5751-0.9125,0.8635-1.3685C408.4984,255.3164,408.8916,255.6856,409.2842,256.0551z"/>
		<path style="fill:#1E1E1E;" d="M416.1649,255.2182c-0.6817,0.0797-1.3633,0.1604-2.0448,0.242
			c0.2914-0.4536,0.5833-0.9071,0.8757-1.3604C415.3861,254.4723,415.7758,254.8451,416.1649,255.2182z"/>
		<path style="fill:#1E1E1E;" d="M430.011,253.7278c-0.6827,0.0671-1.3654,0.1351-2.0479,0.2042
			c0.2995-0.4482,0.5995-0.8962,0.9001-1.344C429.2464,252.9677,429.629,253.3476,430.011,253.7278z"/>
		<path style="fill:#1E1E1E;" d="M436.9684,253.0762c-0.6831,0.0608-1.3663,0.1225-2.0492,0.1852
			c0.3035-0.4454,0.6076-0.8906,0.9123-1.3356C436.2111,252.309,436.59,252.6925,436.9684,253.0762z"/>
		<path style="fill:#1E1E1E;" d="M443.9302,252.4892c-0.6836,0.0545-1.3671,0.1098-2.0505,0.1662
			c0.3076-0.4425,0.6157-0.8849,0.9245-1.3271C443.18,251.7149,443.5555,252.1019,443.9302,252.4892z"/>
		<path style="fill:#1E1E1E;" d="M450.81,251.9726c-0.6839,0.0482-1.3677,0.0974-2.0516,0.1474
			c0.3116-0.4397,0.6237-0.8792,0.9364-1.3186C450.0671,251.1916,450.4388,251.5819,450.81,251.9726z"/>
		<path style="fill:#1E1E1E;" d="M457.5179,251.5298c-0.6842,0.0421-1.3683,0.0851-2.0525,0.1291
			c0.3154-0.437,0.6314-0.8736,0.9479-1.3102C456.782,250.7421,457.1502,251.1358,457.5179,251.5298z"/>
		<path style="fill:#1E1E1E;" d="M464.4897,251.1329c-0.6845,0.0358-1.3689,0.0725-2.0533,0.1101
			c0.3194-0.434,0.6393-0.8678,0.9598-1.3013C463.7613,250.3386,464.1258,250.7356,464.4897,251.1329z"/>
		<path style="fill:#1E1E1E;" d="M471.464,250.8007c-0.6847,0.0294-1.3694,0.0598-2.054,0.0912
			c0.3232-0.431,0.6472-0.8618,0.9716-1.2924C470.7431,249.9996,471.1039,250.4,471.464,250.8007z"/>
		<path style="fill:#1E1E1E;" d="M478.4404,250.5329c-0.6849,0.0231-1.3697,0.0472-2.0545,0.0722
			c0.3273-0.428,0.6551-0.8558,0.9835-1.2834C477.7269,249.7252,478.0839,250.1289,478.4404,250.5329z"/>
		<path style="fill:#1E1E1E;" d="M485.3028,250.3324c-0.685,0.0169-1.37,0.0347-2.055,0.0535
			c0.3311-0.425,0.6628-0.8498,0.995-1.2744C484.5966,249.5183,484.95,249.9252,485.3028,250.3324z"/>
		<path style="fill:#1E1E1E;" d="M492.282,250.1926c-0.6852,0.0106-1.3703,0.0221-2.0554,0.0345
			c0.335-0.422,0.6706-0.8436,1.0067-1.2651C491.5834,249.3719,491.933,249.7821,492.282,250.1926z"/>
		<path style="fill:#1E1E1E;" d="M499.262,250.1173c-0.6852,0.0042-1.3703,0.0094-2.0555,0.0155
			c0.3389-0.4188,0.6783-0.8374,1.0183-1.2558C498.5712,249.2902,498.9168,249.7036,499.262,250.1173z"/>
		<path style="fill:#1E1E1E;" d="M506.2423,250.1064c-0.6852-0.0021-1.3704-0.0033-2.0555-0.0035
			c0.3428-0.4156,0.686-0.8311,1.0299-1.2463C505.5592,249.273,505.901,249.6896,506.2423,250.1064z"/>
		<path style="fill:#1E1E1E;" d="M513.4235,250.2649c-0.685-0.0087-1.3701-0.0163-2.0551-0.023
			c0.3466-0.4124,0.6938-0.8245,1.0416-1.2364C512.7484,249.425,513.0863,249.8448,513.4235,250.2649z"/>
		<path style="fill:#1E1E1E;" d="M520.1581,250.2773c-0.6851-0.0147-1.3701-0.0285-2.0552-0.0414
			c0.3503-0.4093,0.7012-0.8183,1.0527-1.2271C519.4904,249.4315,519.8245,249.8543,520.1581,250.2773z"/>
		<path style="fill:#1E1E1E;" d="M527.1334,250.5619c-0.6848-0.021-1.3696-0.0412-2.0545-0.0604
			c0.354-0.4061,0.7087-0.8118,1.0639-1.2173C526.4736,249.7099,526.8039,250.1358,527.1334,250.5619z"/>
		<path style="fill:#1E1E1E;" d="M534.1137,250.7064c-0.6848-0.0274-1.3697-0.0538-2.0544-0.0794
			c0.3579-0.4027,0.7163-0.8052,1.0753-1.2074C533.4615,249.8483,533.7879,250.2772,534.1137,250.7064z"/>
		<path style="fill:#1E1E1E;" d="M540.8278,251.0049c-0.6846-0.0335-1.3691-0.066-2.0538-0.0977
			c0.3616-0.3995,0.7235-0.7988,1.0862-1.1978C540.1832,250.1411,540.5057,250.5729,540.8278,251.0049z"/>
		<path style="fill:#1E1E1E;" d="M423.0511,254.4447c-0.6822,0.0735-1.3643,0.1479-2.0464,0.2232
			c0.2954-0.451,0.5914-0.9017,0.8879-1.3523C422.2794,253.6917,422.6656,254.068,423.0511,254.4447z"/>
		<path style="fill:#1E1E1E;" d="M547.6849,251.3716c-0.6842-0.0397-1.3687-0.0785-2.053-0.1163
			c0.3651-0.3962,0.7309-0.7922,1.0971-1.1879C547.0482,250.5018,547.3668,250.9366,547.6849,251.3716z"/>
		<path style="fill:#1E1E1E;" d="M554.6684,251.8093c-0.684-0.0461-1.3682-0.0912-2.0522-0.1354
			c0.3688-0.3928,0.7383-0.7854,1.1083-1.1777C554.0396,250.9337,554.3543,251.3714,554.6684,251.8093z"/>
		<path style="fill:#1E1E1E;" d="M423.0511,254.4447c-0.6822,0.0735-1.3643,0.1479-2.0464,0.2232
			c0.2954-0.451,0.5914-0.9017,0.8879-1.3523C422.2794,253.6917,422.6656,254.068,423.0511,254.4447z"/>
		<path style="fill:#1E1E1E;" d="M561.6217,252.3097c-0.6837-0.0524-1.3674-0.1038-2.0512-0.1543
			c0.3725-0.3894,0.7455-0.7785,1.1192-1.1674C561.0009,251.4284,561.3116,251.869,561.6217,252.3097z"/>
		<path style="fill:#1E1E1E;" d="M568.5848,252.8755c-0.6833-0.0587-1.3666-0.1165-2.0501-0.1733
			c0.3762-0.3859,0.7529-0.7716,1.1302-1.157C567.9721,251.9885,568.2787,252.4319,568.5848,252.8755z"/>
		<path style="fill:#1E1E1E;" d="M575.4581,253.4977c-0.683-0.0649-1.366-0.129-2.0489-0.1921
			c0.3796-0.3825,0.76-0.7647,1.1409-1.1466C574.8534,252.605,575.1559,253.0513,575.4581,253.4977z"/>
		<path style="fill:#1E1E1E;" d="M582.1519,254.1646c-0.6824-0.0711-1.3649-0.1412-2.0474-0.2104
			c0.3832-0.3791,0.767-0.7579,1.1512-1.1363C581.555,253.2666,581.8537,253.7155,582.1519,254.1646z"/>
		<path style="fill:#1E1E1E;" d="M589.1014,254.9207c-0.6818-0.0774-1.3638-0.1539-2.0459-0.2294
			c0.3868-0.3755,0.7741-0.7507,1.162-1.1256C588.5128,254.0172,588.8074,254.4689,589.1014,254.9207z"/>
		<path style="fill:#1E1E1E;" d="M596.3051,255.7733c-0.6813-0.084-1.3627-0.167-2.0442-0.2491
			c0.3904-0.3717,0.7814-0.7432,1.173-1.1143C595.725,254.8641,596.0154,255.3186,596.3051,255.7733z"/>
		<path style="fill:#1E1E1E;" d="M423.0511,254.4447c-0.6822,0.0735-1.3643,0.1479-2.0464,0.2232
			c0.2954-0.451,0.5914-0.9017,0.8879-1.3523C422.2794,253.6917,422.6656,254.068,423.0511,254.4447z"/>
		<path style="fill:#1E1E1E;" d="M603.5024,256.6953c-0.6807-0.0905-1.3615-0.1801-2.0423-0.2688
			c0.3941-0.368,0.7886-0.7356,1.184-1.103C602.9308,255.7806,603.2169,256.2379,603.5024,256.6953z"/>
		<path style="fill:#1E1E1E;" d="M610.3187,257.6334c-0.6801-0.0967-1.3601-0.1925-2.0404-0.2874
			c0.3976-0.3643,0.7957-0.7284,1.1943-1.0921C609.7553,256.7135,610.0373,257.1733,610.3187,257.6334z"/>
		<path style="fill:#1E1E1E;" d="M616.7252,258.5729c-0.6794-0.1026-1.3588-0.2043-2.0385-0.305
			c0.4008-0.3609,0.8021-0.7215,1.2039-1.0818C616.1694,257.6482,616.4475,258.1104,616.7252,258.5729z"/>
	</g>
</g>
<path style="fill:#7F8082;stroke:#686867;stroke-miterlimit:10;" d="M438.5806,372.4322l14.4811-0.028l0.0219-10.6046
	c0.0077-3.7096-3.2018-6.7107-7.1684-6.703l0,0c-4.031,0.0078-7.3051,3.0701-7.3129,6.8398L438.5806,372.4322z"/>
<path style="fill:#7F8082;stroke:#686867;stroke-miterlimit:10;" d="M414.6523,352.524l14.481-0.028l0.0219-10.6045
	c0.0077-3.7096-3.2017-6.7107-7.1684-6.703l0,0c-4.031,0.0078-7.3051,3.0701-7.3128,6.8399L414.6523,352.524z"/>
<path style="fill:#414924;stroke:#393D2A;stroke-width:4;stroke-miterlimit:10;" d="M497.1832,407.8226
	c61.3712,59.473-108.3682,92.5659-251.8825,97.3827c-143.5143,4.8168-332.0827-22.4202-286.6504-77.437
	C0,377.6955,81.6611,326.4594,225.1754,321.6426C368.6897,316.8258,445.9443,358.1685,497.1832,407.8226z"/>
<path style="fill:#7F8082;stroke:#686867;stroke-miterlimit:10;" d="M346.3678,296.4538l14.4372-0.9819l-0.9465-10.8467
	c-0.3097-3.5483-3.7665-6.2067-7.7212-5.9377l0,0c-4.0188,0.2733-7.0215,3.418-6.7069,7.0238L346.3678,296.4538z"/>
<path style="fill:#7F8082;stroke:#686867;stroke-miterlimit:10;" d="M365.493,311.2988l14.4731-0.4073l-0.4102-10.8725
	c-0.1342-3.5567-3.4568-6.3495-7.4213-6.238l0,0c-4.0288,0.1134-7.1842,3.1353-7.0478,6.7497L365.493,311.2988z"/>
<path style="fill:#7F8082;stroke:#686867;stroke-miterlimit:10;" d="M385.2976,331.3887l14.4684-0.6053l-0.4009-10.597
	c-0.1402-3.707-3.4667-6.5777-7.43-6.4119h0c-4.0275,0.1685-7.1768,3.3589-7.0343,7.126L385.2976,331.3887z"/>
<path style="fill:#7F8082;stroke:#686867;stroke-miterlimit:10;" d="M156.6863,334.6719l-17.9436,0.6992l-0.5854-15.0251
	c-0.1915-4.9152,3.6378-9.0549,8.5529-9.2464h0c4.9948-0.1946,9.2017,3.6967,9.3963,8.6916L156.6863,334.6719z"/>
<path style="fill:#7F8082;stroke:#686867;stroke-miterlimit:10;" d="M116.9004,346.0583l-17.9436,0.6991l-0.5854-15.0251
	c-0.1915-4.9151,3.6377-9.0549,8.5529-9.2464h0c4.9948-0.1946,9.2017,3.6967,9.3963,8.6915L116.9004,346.0583z"/>
<path style="fill:#7F8082;stroke:#686867;stroke-miterlimit:10;" d="M74.5065,368.5032H56.5493v-15.0366
	c0-4.9189,3.9875-8.9064,8.9064-8.9064h0c4.9986,0,9.0508,4.0522,9.0508,9.0508V368.5032z"/>
<path style="fill:#7F8082;stroke:#686867;stroke-miterlimit:10;" d="M207.1694,362.5451h-17.9572v-15.0365
	c0-4.9189,3.9875-8.9064,8.9064-8.9064h0c4.9986,0,9.0508,4.0522,9.0508,9.0508V362.5451z"/>
<path style="fill:#7F8082;stroke:#686867;stroke-miterlimit:10;" d="M239.8993,340.7833h-17.9572v-15.0366
	c0-4.9189,3.9875-8.9064,8.9064-8.9064h0c4.9986,0,9.0508,4.0522,9.0508,9.0508V340.7833z"/>
<path style="fill:#7F8082;stroke:#686867;stroke-miterlimit:10;" d="M163.2534,391.0903h-17.9572v-15.0366
	c0-4.9189,3.9875-8.9064,8.9064-8.9064h0c4.9986,0,9.0508,4.0522,9.0508,9.0508V391.0903z"/>
<path style="fill:#7F8082;stroke:#686867;stroke-miterlimit:10;" d="M270.6982,393.7515H252.741V378.715
	c0-4.9189,3.9875-8.9064,8.9064-8.9064h0c4.9986,0,9.0508,4.0522,9.0508,9.0508V393.7515z"/>
<path style="fill:#7F8082;stroke:#686867;stroke-miterlimit:10;" d="M393.8368,340.3339l-17.1526-5.3151l1.8458-5.9568
	c1.4559-4.6985,6.445-7.3271,11.1435-5.8712l0,0c4.7746,1.4795,7.4459,6.5495,5.9663,11.3242L393.8368,340.3339z"/>
<path style="fill:#7F8082;stroke:#686867;stroke-miterlimit:10;" d="M339.5408,326.6153l-17.7183-2.9197l1.014-6.1532
	c0.7997-4.8534,5.3826-8.1396,10.236-7.3398h0c4.9321,0.8127,8.2715,5.4698,7.4587,10.4019L339.5408,326.6153z"/>
<path style="fill:#7F8082;stroke:#686867;stroke-miterlimit:10;" d="M319.4141,341.4114l-17.9086-1.3213l1.1064-14.9958
	c0.3619-4.9055,4.632-8.5889,9.5376-8.227l0,0c4.9851,0.3678,8.7281,4.7072,8.3603,9.6922L319.4141,341.4114z"/>
<polygon style="fill:#7F8082;stroke:#686867;stroke-miterlimit:10;" points="29.3557,397.9306 23.3708,397.7914 23.1364,380.0227 
	13.9496,380.0404 13.9496,374.5693 22.6664,374.4977 22.7545,365.1801 29.2701,365.1802 29.2701,374.641 38.7793,374.6888 
	38.7793,380.0523 29.3581,380.0165 "/>
<polygon style="fill:#7F8082;stroke:#686867;stroke-miterlimit:10;" points="286.1043,367.7748 280.1194,367.6356 279.885,349.8669 
	270.6982,349.8846 270.6982,344.4135 279.415,344.3419 279.5031,335.0244 286.0187,335.0244 286.0186,344.4852 295.5279,344.533 
	295.5279,349.8965 286.1067,349.8607 "/>
<path style="fill:#7F8082;stroke:#686867;stroke-miterlimit:10;" d="M266.8804,320.0777l-17.9492-0.5349l0.1858-6.2334
	c0.1465-4.9167,4.2511-8.7837,9.1678-8.6371h0c4.9964,0.1489,8.9261,4.32,8.7772,9.3164L266.8804,320.0777z"/>
<path style="fill:#7F8082;stroke:#686867;stroke-miterlimit:10;" d="M195.4716,321.0212l-17.8865,1.5925l-0.553-6.2116
	c-0.4362-4.8995,3.182-9.2249,8.0815-9.6612h0c4.9789-0.4433,9.3745,3.2336,9.8178,8.2125L195.4716,321.0212z"/>
<path style="fill:#7F8082;stroke:#686867;stroke-miterlimit:10;" d="M380.8582,362.2454l-17.9085-1.3213l1.1064-14.9958
	c0.3619-4.9055,4.632-8.5889,9.5376-8.2269l0,0c4.9851,0.3678,8.7281,4.7071,8.3603,9.6922L380.8582,362.2454z"/>
<path style="fill:#7F8082;stroke:#686867;stroke-miterlimit:10;" d="M364.6122,386.9195l-17.9492-0.5349l0.4479-15.0299
	c0.1465-4.9167,4.2511-8.7837,9.1678-8.6371h0c4.9964,0.1489,8.9261,4.32,8.7772,9.3164L364.6122,386.9195z"/>
<path style="fill:#7F8082;stroke:#686867;stroke-miterlimit:10;" d="M349.9696,415.6137h-17.9572v-15.0366
	c0-4.9189,3.9875-8.9064,8.9064-8.9064l0,0c4.9986,0,9.0508,4.0522,9.0508,9.0508V415.6137z"/>
<path style="fill:#7F8082;stroke:#686867;stroke-miterlimit:10;" d="M121.656,423.3589h-17.9572v-15.0365
	c0-4.9189,3.9875-8.9064,8.9064-8.9064h0c4.9986,0,9.0508,4.0522,9.0508,9.0508V423.3589z"/>
<path style="fill:#7F8082;stroke:#686867;stroke-miterlimit:10;" d="M241.0585,431.7655h-17.9572V416.729
	c0-4.9189,3.9875-8.9064,8.9064-8.9064h0c4.9986,0,9.0508,4.0522,9.0508,9.0508V431.7655z"/>
<path style="fill:#7F8082;stroke:#686867;stroke-miterlimit:10;" d="M477.0585,351.7975l14.462-0.1918l0.1234-10.894
	c0.0404-3.5638-3.1383-6.4101-7.0998-6.3576l0,0c-4.0257,0.0534-7.3224,3.0325-7.3634,6.654L477.0585,351.7975z"/>
<path style="fill:#7F8082;stroke:#686867;stroke-miterlimit:10;" d="M637.7881,298.435l14.4289,1.1373l1.0316-10.8361
	c0.3375-3.5448-2.593-6.671-6.5453-6.9825l0,0c-4.0165-0.3166-7.5505,2.347-7.8934,5.9492L637.7881,298.435z"/>
<path style="fill:#7F8082;stroke:#686867;stroke-miterlimit:10;" d="M664.8287,315.2689l14.4288,1.1373l1.0317-10.8361
	c0.3375-3.5448-2.593-6.6709-6.5453-6.9825l0,0c-4.0165-0.3166-7.5505,2.347-7.8934,5.9492L664.8287,315.2689z"/>
<path style="fill:#7F8082;stroke:#686867;stroke-miterlimit:10;" d="M565.3135,306.4525l14.4755,0.4034l0.3378-10.5992
	c0.1182-3.7077-3.0004-6.803-6.9656-6.9135l0,0c-4.0294-0.1123-7.3933,2.8511-7.5134,6.619L565.3135,306.4525z"/>
<path style="fill:#7F8082;stroke:#686867;stroke-miterlimit:10;" d="M540.5077,288.6969l14.4755,0.4034l0.3378-10.5992
	c0.1182-3.7077-3.0004-6.803-6.9656-6.9135l0,0c-4.0294-0.1123-7.3932,2.8511-7.5134,6.619L540.5077,288.6969z"/>
<path style="fill:#7F8082;stroke:#686867;stroke-miterlimit:10;" d="M587.0011,325.6311l14.4755,0.4034l0.3378-10.5992
	c0.1182-3.7078-3.0004-6.8031-6.9656-6.9135h-0.0001c-4.0294-0.1123-7.3932,2.8511-7.5133,6.619L587.0011,325.6311z"/>
<path style="fill:#7F8082;stroke:#686867;stroke-miterlimit:10;" d="M513.9942,317.0298l14.4755,0.4034l0.3378-10.5992
	c0.1182-3.7078-3.0004-6.8031-6.9656-6.9135l0,0c-4.0294-0.1123-7.3933,2.8511-7.5134,6.619L513.9942,317.0298z"/>
<path style="fill:#7F8082;stroke:#686867;stroke-miterlimit:10;" d="M459.7958,273.3946l14.4681-0.266l-0.1694-4.5125
	c-0.1336-3.5592-3.4547-6.3855-7.4178-6.3127l0,0c-4.0274,0.0741-7.1822,3.0662-7.0464,6.6832L459.7958,273.3946z"/>
<path style="fill:#7F8082;stroke:#686867;stroke-miterlimit:10;" d="M477.9031,283.9149l14.4804,0.182l0.1399-10.8768
	c0.0457-3.5581-3.1327-6.4829-7.0992-6.5328h0c-4.0308-0.0507-7.3361,2.8394-7.3826,6.4552L477.9031,283.9149z"/>
<polygon style="fill:#7F8082;stroke:#686867;stroke-miterlimit:10;" points="409.9133,278.1515 404.9699,278.5924 404.7013,276.088 
	397.3528,276.7749 396.8249,272.8339 403.7921,272.1427 402.9635,265.4246 408.1765,264.9465 409.0894,271.7614 416.7021,271.0981 
	417.2197,274.9615 409.6785,275.627 "/>
<polygon style="fill:#7F8082;stroke:#686867;stroke-miterlimit:10;" points="502.0481,302.5743 506.8755,302.5343 
	507.2298,289.6835 514.6378,289.7894 514.6887,285.8319 507.6602,285.6917 507.6759,278.9509 502.4218,278.8849 502.3338,285.7285 
	494.6652,285.6667 494.6153,289.5464 502.2128,289.616 "/>
<path style="fill:#7F8082;stroke:#686867;stroke-miterlimit:10;" d="M520.6902,271.9532l14.4592,0.7513l0.2784-4.5039
	c0.2196-3.5525-2.8132-6.5992-6.7739-6.805l0,0c-4.0249-0.2091-7.4686,2.5479-7.6918,6.158L520.6902,271.9532z"/>
<path style="fill:#7F8082;stroke:#686867;stroke-miterlimit:10;" d="M577.4577,276.3439l14.3858,1.5222l0.5769-4.4803
	c0.4551-3.5339-2.3705-6.7368-6.3111-7.1537l0,0c-4.0045-0.4237-7.6256,2.144-8.088,5.7352L577.4577,276.3439z"/>
<path style="fill:#7F8082;stroke:#686867;stroke-miterlimit:10;" d="M418.9307,292.7004l14.4372-0.982l-0.9465-10.8467
	c-0.3096-3.5482-3.7665-6.2067-7.7212-5.9377h0c-4.0188,0.2733-7.0215,3.418-6.7069,7.0238L418.9307,292.7004z"/>
<path style="fill:#7F8082;stroke:#686867;stroke-miterlimit:10;" d="M438.0558,307.5454l14.4731-0.4073l-0.4102-10.8725
	c-0.1342-3.5567-3.4568-6.3495-7.4213-6.238h0c-4.0287,0.1134-7.1842,3.1353-7.0478,6.7497L438.0558,307.5454z"/>
<path style="fill:#7F8082;stroke:#686867;stroke-miterlimit:10;" d="M457.2542,327.1333l14.4755,0.4034l0.3378-10.5992
	c0.1182-3.7077-3.0004-6.803-6.9656-6.9135h0c-4.0294-0.1123-7.3932,2.8511-7.5133,6.619L457.2542,327.1333z"/>
<polygon style="fill:#7F8082;stroke:#686867;stroke-miterlimit:10;" points="610.0786,288.071 614.8972,288.3497 616.3046,275.5595 
	623.6851,276.154 624.0605,272.2113 617.0613,271.6076 617.6298,264.8874 612.3945,264.4747 611.7454,271.2927 604.1013,270.7249 
	603.7333,274.5901 611.3058,275.1609 "/>
<path style="fill:#7F8082;stroke:#686867;stroke-miterlimit:10;" d="M528.8369,337.9867l14.4755,0.4034l0.3378-10.5992
	c0.1182-3.7077-3.0004-6.803-6.9656-6.9135l0,0c-4.0294-0.1123-7.3932,2.8511-7.5134,6.619L528.8369,337.9867z"/>
<path style="fill:#3F4925;stroke:#393D29;stroke-width:4;stroke-miterlimit:10;" d="M947.5154,446.9667
	c33.6517,62.6859-122.811,86.1173-264.6639,76.9962s-326.0527-14.0356-293.564-86.829
	c29.044-65.0752,167.668-116.0688,309.5208-106.9478S913.5293,383.658,947.5154,446.9667z"/>
</svg>
