<?xml version="1.0" encoding="utf-8"?>
<!-- Generator: Adobe Illustrator 26.5.1, SVG Export Plug-In . SVG Version: 6.00 Build 0)  -->
<svg version="1.1" id="Layer_1" xmlns="http://www.w3.org/2000/svg" xmlns:xlink="http://www.w3.org/1999/xlink" x="0px" y="0px"
	 viewBox="0 0 896 720" style="enable-background:new 0 0 896 720;" xml:space="preserve">
<linearGradient id="SVGID_1_" gradientUnits="userSpaceOnUse" x1="446.8132" y1="744.1356" x2="449.0377" y2="285.9333" gradientTransform="matrix(1 0 0 -1 0 722)">
	<stop  offset="0" style="stop-color:#5D6889"/>
	<stop  offset="1" style="stop-color:#35405D"/>
</linearGradient>
<rect x="-5" y="-5" style="fill:url(#SVGID_1_);" width="905.8418" height="422.0773"/>
<g>
	<rect x="-5.4233" y="380.4455" style="fill:#1E1E1E;" width="907.649" height="3.8305"/>
	<rect x="-5.4233" y="282.2301" style="fill:#1E1E1E;" width="906.4091" height="3.8796"/>
	<rect x="-4.8033" y="263.6031" style="fill:#1E1E1E;" width="906.4091" height="3.8796"/>
	<rect x="25.7247" y="253.0726" style="fill:#1E1E1E;" width="4.4339" height="156.2943"/>
	<rect x="52.4507" y="253.0726" style="fill:#1E1E1E;" width="4.4339" height="156.2943"/>
	<rect x="79.1768" y="253.0726" style="fill:#1E1E1E;" width="4.4339" height="156.2943"/>
	<rect x="105.9028" y="253.0726" style="fill:#1E1E1E;" width="4.4339" height="156.2943"/>
	<rect x="132.1854" y="253.0726" style="fill:#1E1E1E;" width="4.4339" height="156.2943"/>
	<rect x="158.9114" y="253.0726" style="fill:#1E1E1E;" width="4.4339" height="156.2943"/>
	<rect x="185.6374" y="253.0726" style="fill:#1E1E1E;" width="4.4339" height="156.2943"/>
	<rect x="212.3634" y="253.0726" style="fill:#1E1E1E;" width="4.4339" height="156.2943"/>
	<rect y="253.0726" style="fill:#1E1E1E;" width="4.4339" height="156.2943"/>
	<rect x="264.4853" y="253.0726" style="fill:#1E1E1E;" width="4.4339" height="156.2943"/>
	<rect x="291.2113" y="253.0726" style="fill:#1E1E1E;" width="4.4339" height="156.2943"/>
	<rect x="317.9373" y="253.0726" style="fill:#1E1E1E;" width="4.4339" height="156.2943"/>
	<rect x="344.6633" y="253.0726" style="fill:#1E1E1E;" width="4.4339" height="156.2943"/>
	<rect x="370.946" y="253.0726" style="fill:#1E1E1E;" width="4.4339" height="156.2943"/>
	<rect x="397.672" y="253.0726" style="fill:#1E1E1E;" width="4.4339" height="156.2943"/>
	<rect x="424.398" y="253.0726" style="fill:#1E1E1E;" width="4.4339" height="156.2943"/>
	<rect x="451.124" y="253.0726" style="fill:#1E1E1E;" width="4.4339" height="156.2943"/>
	<rect x="238.7606" y="253.0726" style="fill:#1E1E1E;" width="4.4339" height="156.2943"/>
	<rect x="504.4079" y="253.0726" style="fill:#1E1E1E;" width="4.4339" height="156.2943"/>
	<rect x="531.134" y="253.0726" style="fill:#1E1E1E;" width="4.4339" height="156.2943"/>
	<rect x="557.86" y="253.0726" style="fill:#1E1E1E;" width="4.4339" height="156.2943"/>
	<rect x="583.586" y="253.0726" style="fill:#1E1E1E;" width="4.4339" height="156.2943"/>
	<rect x="609.8686" y="253.0726" style="fill:#1E1E1E;" width="4.4339" height="156.2943"/>
	<rect x="636.5946" y="253.0726" style="fill:#1E1E1E;" width="4.4339" height="156.2943"/>
	<rect x="663.3206" y="253.0726" style="fill:#1E1E1E;" width="4.4339" height="156.2943"/>
	<rect x="690.0466" y="253.0726" style="fill:#1E1E1E;" width="4.4339" height="156.2943"/>
	<rect x="478.6832" y="253.0726" style="fill:#1E1E1E;" width="4.4339" height="156.2943"/>
	<rect x="742.1685" y="253.0726" style="fill:#1E1E1E;" width="4.4339" height="156.2943"/>
	<rect x="768.8945" y="253.0726" style="fill:#1E1E1E;" width="4.4339" height="156.2943"/>
	<rect x="795.6205" y="253.0726" style="fill:#1E1E1E;" width="4.4339" height="156.2943"/>
	<rect x="822.3466" y="253.0726" style="fill:#1E1E1E;" width="4.4339" height="156.2943"/>
	<rect x="847.6292" y="253.0726" style="fill:#1E1E1E;" width="4.4339" height="156.2943"/>
	<rect x="874.3552" y="253.0726" style="fill:#1E1E1E;" width="4.4339" height="156.2943"/>
	<rect x="896.0812" y="253.0726" style="fill:#1E1E1E;" width="4.4339" height="156.2943"/>
	<rect x="716.4438" y="253.0726" style="fill:#1E1E1E;" width="4.4339" height="156.2943"/>
	<polygon style="fill:#1E1E1E;" points="6.0929,253.0726 -1.7772,253.0726 2.1578,244.3157 	"/>
	<polygon style="fill:#1E1E1E;" points="31.8767,253.0726 24.0066,253.0726 27.9417,244.3157 	"/>
	<polygon style="fill:#1E1E1E;" points="58.6027,253.0726 50.7326,253.0726 54.6677,244.3157 	"/>
	<polygon style="fill:#1E1E1E;" points="138.3097,253.0726 130.4395,253.0726 134.3746,244.3157 	"/>
	<polygon style="fill:#1E1E1E;" points="85.3288,253.0726 77.4586,253.0726 81.3937,244.3157 	"/>
	<polygon style="fill:#1E1E1E;" points="111.8192,253.0726 103.9491,253.0726 107.8841,244.3157 	"/>
	<polygon style="fill:#1E1E1E;" points="165.0634,253.0726 157.1933,253.0726 161.1283,244.3157 	"/>
	<polygon style="fill:#1E1E1E;" points="191.7894,253.0726 183.9193,253.0726 187.8544,244.3157 	"/>
	<polygon style="fill:#1E1E1E;" points="218.5154,253.0726 210.6453,253.0726 214.5804,244.3157 	"/>
	<polygon style="fill:#1E1E1E;" points="244.9126,253.0726 237.0424,253.0726 240.9775,244.3157 	"/>
	<polygon style="fill:#1E1E1E;" points="270.6373,253.0726 262.7672,253.0726 266.7022,244.3157 	"/>
	<polygon style="fill:#1E1E1E;" points="297.3633,253.0726 289.4932,253.0726 293.4283,244.3157 	"/>
	<polygon style="fill:#1E1E1E;" points="324.0893,253.0726 316.2192,253.0726 320.1543,244.3157 	"/>
	<polygon style="fill:#1E1E1E;" points="350.8153,253.0726 342.9452,253.0726 346.8803,244.3157 	"/>
	<polygon style="fill:#1E1E1E;" points="377.098,253.0726 369.2278,253.0726 373.1629,244.3157 	"/>
	<polygon style="fill:#1E1E1E;" points="403.824,253.0726 395.9539,253.0726 399.8889,244.3157 	"/>
	<polygon style="fill:#1E1E1E;" points="430.55,253.0726 422.6799,253.0726 426.6149,244.3157 	"/>
	<polygon style="fill:#1E1E1E;" points="457.276,253.0726 449.4059,253.0726 453.3409,244.3157 	"/>
	<polygon style="fill:#1E1E1E;" points="484.777,253.7907 476.9069,253.7907 480.842,245.0338 	"/>
	<polygon style="fill:#1E1E1E;" points="510.5599,253.0726 502.6898,253.0726 506.6249,244.3157 	"/>
	<polygon style="fill:#1E1E1E;" points="537.2859,253.7907 529.4158,253.7907 533.3509,245.0338 	"/>
	<polygon style="fill:#1E1E1E;" points="564.012,253.0726 556.1418,253.0726 560.0769,244.3157 	"/>
	<polygon style="fill:#1E1E1E;" points="589.738,253.0726 581.8679,253.0726 585.8029,244.3157 	"/>
	<polygon style="fill:#1E1E1E;" points="138.3097,253.0726 130.4395,253.0726 134.3746,244.3157 	"/>
	<polygon style="fill:#1E1E1E;" points="616.0206,253.0726 608.1505,253.0726 612.0855,244.3157 	"/>
	<polygon style="fill:#1E1E1E;" points="642.7982,253.0726 634.928,253.0726 638.8631,244.3157 	"/>
	<polygon style="fill:#1E1E1E;" points="138.3097,253.0726 130.4395,253.0726 134.3746,244.3157 	"/>
	<polygon style="fill:#1E1E1E;" points="669.4727,253.0726 661.6025,253.0726 665.5376,244.3157 	"/>
	<polygon style="fill:#1E1E1E;" points="696.1987,253.0726 688.3285,253.0726 692.2636,244.3157 	"/>
	<polygon style="fill:#1E1E1E;" points="722.5958,253.0726 714.7256,253.0726 718.6607,244.3157 	"/>
	<polygon style="fill:#1E1E1E;" points="748.3205,253.0726 740.4504,253.0726 744.3854,244.3157 	"/>
	<polygon style="fill:#1E1E1E;" points="775.0465,253.0726 767.1764,253.0726 771.1115,244.3157 	"/>
	<polygon style="fill:#1E1E1E;" points="801.7725,253.0726 793.9024,253.0726 797.8375,244.3157 	"/>
	<polygon style="fill:#1E1E1E;" points="138.3097,253.0726 130.4395,253.0726 134.3746,244.3157 	"/>
	<polygon style="fill:#1E1E1E;" points="828.4985,253.0726 820.6284,253.0726 824.5635,244.3157 	"/>
	<polygon style="fill:#1E1E1E;" points="853.7812,253.0726 845.9111,253.0726 849.8461,244.3157 	"/>
	<polygon style="fill:#1E1E1E;" points="880.5072,253.0726 872.6371,253.0726 876.5721,244.3157 	"/>
	<polygon style="fill:#1E1E1E;" points="902.2332,253.0726 894.3631,253.0726 898.2982,244.3157 	"/>
</g>
</svg>
